<svg id="Capa_1" data-name="Capa 1" xmlns="http://www.w3.org/2000/svg" viewBox="0 0 81.4 81.4"><defs><style>.cls-1{fill:#0080ff;}.cls-2{fill:#fff;}</style></defs><title>iconoFacebook</title><path class="cls-1" d="M98.2,43.58A40.7,40.7,0,1,0,51.14,83.79V55.35H40.81V43.58H51.14v-9c0-10.2,6.08-15.84,15.37-15.84a62.06,62.06,0,0,1,9.11.8v10H70.49c-5,0-6.63,3.14-6.63,6.36v7.63H75.15L73.34,55.35H63.86V83.79A40.7,40.7,0,0,0,98.2,43.58Z" transform="translate(-16.8 -2.88)"/><path class="cls-2" d="M73.34,55.35l1.81-11.77H63.86V36c0-3.22,1.58-6.36,6.63-6.36h5.13v-10a62.06,62.06,0,0,0-9.11-.8c-9.29,0-15.37,5.64-15.37,15.84v9H40.81V55.35H51.14V83.79a40.7,40.7,0,0,0,12.72,0V55.35Z" transform="translate(-16.8 -2.88)"/></svg>