<svg xmlns="http://www.w3.org/2000/svg" xmlns:xlink="http://www.w3.org/1999/xlink" viewBox="0 0 121.48 159.67"><defs><style>.cls-1{fill:url(#Degradado_sin_nombre_7);}.cls-2{fill:url(#Degradado_sin_nombre_9);}.cls-3{fill:url(#Degradado_sin_nombre_10);}.cls-4{fill:url(#Degradado_sin_nombre_5);}.cls-5{fill:url(#Degradado_sin_nombre_7-2);}.cls-6{fill:url(#Degradado_sin_nombre_9-2);}.cls-7{fill:url(#Degradado_sin_nombre_7-3);}.cls-8{fill:url(#Degradado_sin_nombre_9-3);}.cls-57,.cls-9{fill:none;}.cls-10{isolation:isolate;}.cls-11{opacity:0.44;}.cls-11,.cls-21,.cls-33{mix-blend-mode:multiply;}.cls-12{clip-path:url(#clip-path);}.cls-13{clip-path:url(#clip-path-2);}.cls-14{mask:url(#mask);}.cls-15{fill:url(#Degradado_sin_nombre_6);}.cls-16{opacity:0.96;}.cls-17{clip-path:url(#clip-path-3);}.cls-18{clip-path:url(#clip-path-4);}.cls-19{mask:url(#mask-2);}.cls-20{fill:url(#Degradado_sin_nombre_8);}.cls-22{clip-path:url(#clip-path-5);}.cls-23{clip-path:url(#clip-path-6);}.cls-24{mask:url(#mask-3);}.cls-25{fill:url(#Degradado_sin_nombre_2);}.cls-26{clip-path:url(#clip-path-7);}.cls-27{fill:url(#Degradado_sin_nombre_3);}.cls-28{opacity:0.21;mix-blend-mode:lighten;}.cls-29{clip-path:url(#clip-path-8);}.cls-30{clip-path:url(#clip-path-9);}.cls-31{mask:url(#mask-4);}.cls-32{fill:url(#Degradado_sin_nombre_4);}.cls-33{opacity:0.17;}.cls-34{clip-path:url(#clip-path-10);}.cls-35{opacity:0.11;}.cls-36{clip-path:url(#clip-path-11);}.cls-37{fill:#ab7719;}.cls-38{clip-path:url(#clip-path-12);}.cls-39{clip-path:url(#clip-path-13);}.cls-40{clip-path:url(#clip-path-14);}.cls-41{clip-path:url(#clip-path-15);}.cls-42{clip-path:url(#clip-path-16);}.cls-43{clip-path:url(#clip-path-17);}.cls-44{clip-path:url(#clip-path-18);}.cls-45{clip-path:url(#clip-path-19);}.cls-46{clip-path:url(#clip-path-20);}.cls-47{clip-path:url(#clip-path-21);}.cls-48{clip-path:url(#clip-path-22);}.cls-49{clip-path:url(#clip-path-23);}.cls-50{clip-path:url(#clip-path-24);}.cls-51{mask:url(#mask-5);}.cls-52{fill:url(#Degradado_sin_nombre_6-2);}.cls-53{clip-path:url(#clip-path-25);}.cls-54{clip-path:url(#clip-path-26);}.cls-55{mask:url(#mask-6);}.cls-56{fill:url(#Degradado_sin_nombre_8-2);}.cls-57{stroke:#f3c213;stroke-linecap:round;stroke-miterlimit:10;stroke-width:0.55px;}.cls-58,.cls-59{fill:#1d1d1b;}.cls-58{fill-rule:evenodd;}.cls-60{clip-path:url(#clip-path-27);}.cls-61{clip-path:url(#clip-path-28);}.cls-62{mask:url(#mask-7);}.cls-63{fill:url(#Degradado_sin_nombre_6-3);}.cls-64{clip-path:url(#clip-path-29);}.cls-65{clip-path:url(#clip-path-30);}.cls-66{mask:url(#mask-8);}.cls-67{fill:url(#Degradado_sin_nombre_8-3);}</style><linearGradient id="Degradado_sin_nombre_7" x1="-5647.5" y1="1753.9" x2="-5645.62" y2="1753.9" gradientTransform="matrix(0, 17.24, 17.24, 0, -30036.09, 97416.58)" gradientUnits="userSpaceOnUse"><stop offset="0" stop-color="#4d4d4d"/><stop offset="0.1" stop-color="#4d4d4d"/><stop offset="0.2" stop-color="#535353"/><stop offset="0.35" stop-color="#656565"/><stop offset="0.51" stop-color="#818181"/><stop offset="0.69" stop-color="#a9a9a9"/><stop offset="0.88" stop-color="#dcdcdc"/><stop offset="1" stop-color="#fff"/></linearGradient><linearGradient id="Degradado_sin_nombre_9" x1="-5732.44" y1="1661.87" x2="-5730.56" y2="1661.87" gradientTransform="matrix(0, 26.44, 26.44, 0, -43753.07, 151642.26)" gradientUnits="userSpaceOnUse"><stop offset="0"/><stop offset="0.02"/><stop offset="0.03" stop-color="#030303"/><stop offset="0.29" stop-color="#404040"/><stop offset="0.48" stop-color="#666"/><stop offset="0.58" stop-color="#757575"/><stop offset="0.9" stop-color="#f1f1f1"/><stop offset="1" stop-color="#f1f1f1"/></linearGradient><radialGradient id="Degradado_sin_nombre_10" cx="-5622.9" cy="1504.35" r="1.88" gradientTransform="matrix(24.39, 0, 0, -24.39, 137202.35, 36761.2)" gradientUnits="userSpaceOnUse"><stop offset="0" stop-color="#fff"/><stop offset="0.1" stop-color="#fafafa"/><stop offset="0.23" stop-color="#ececec"/><stop offset="0.36" stop-color="#d4d4d4"/><stop offset="0.5" stop-color="#b3b3b3"/><stop offset="0.64" stop-color="#888"/><stop offset="0.79" stop-color="#535353"/><stop offset="0.94" stop-color="#171717"/><stop offset="0.99"/><stop offset="1"/></radialGradient><linearGradient id="Degradado_sin_nombre_5" x1="-5681.81" y1="1704.51" x2="-5679.93" y2="1704.51" gradientTransform="matrix(0, 18.82, 18.82, 0, -32047.96, 106989.64)" gradientUnits="userSpaceOnUse"><stop offset="0" stop-color="#fff"/><stop offset="1" stop-color="#1a1a1a"/></linearGradient><linearGradient id="Degradado_sin_nombre_7-2" x1="-5663.52" y1="1725.94" x2="-5661.64" y2="1725.94" gradientTransform="matrix(0, 17.24, 17.24, 0, -29688.33, 97700.99)" xlink:href="#Degradado_sin_nombre_7"/><linearGradient id="Degradado_sin_nombre_9-2" x1="-5741.38" y1="1642.86" x2="-5739.5" y2="1642.86" gradientTransform="matrix(0, 26.44, 26.44, 0, -43384.64, 151886.94)" xlink:href="#Degradado_sin_nombre_9"/><linearGradient id="Degradado_sin_nombre_7-3" x1="-5663.25" y1="1726.37" x2="-5661.37" y2="1726.37" gradientTransform="matrix(0, 17.24, 17.24, 0, -29821.43, 97694.27)" xlink:href="#Degradado_sin_nombre_7"/><linearGradient id="Degradado_sin_nombre_9-3" x1="-5741.23" y1="1643.15" x2="-5739.35" y2="1643.15" gradientTransform="matrix(0, 26.44, 26.44, 0, -43518.11, 151880.84)" xlink:href="#Degradado_sin_nombre_9"/><clipPath id="clip-path"><rect class="cls-9" x="157.3" y="15.29" width="82.77" height="85.93"/></clipPath><clipPath id="clip-path-2"><path class="cls-9" d="M215.69,15.29A45.59,45.59,0,0,1,157.3,82a45.58,45.58,0,1,0,58.39-66.7"/></clipPath><mask id="mask" x="114.34" y="-26.09" width="168.69" height="168.69" maskUnits="userSpaceOnUse"><rect class="cls-1" x="139.03" y="-1.38" width="119.3" height="119.27" transform="translate(17.73 158.88) rotate(-45.42)"/></mask><linearGradient id="Degradado_sin_nombre_6" x1="-5647.5" y1="1753.9" x2="-5645.62" y2="1753.9" gradientTransform="matrix(0, 17.24, 17.24, 0, -30036.09, 97416.58)" gradientUnits="userSpaceOnUse"><stop offset="0" stop-color="#fff"/><stop offset="0.1" stop-color="#fff"/><stop offset="0.19" stop-color="#f9f9f9"/><stop offset="0.31" stop-color="#e8e8e7"/><stop offset="0.45" stop-color="#cbcbcb"/><stop offset="0.6" stop-color="#a3a3a3"/><stop offset="0.77" stop-color="#70706f"/><stop offset="0.94" stop-color="#333331"/><stop offset="1" stop-color="#1d1d1b"/></linearGradient><clipPath id="clip-path-3"><rect class="cls-9" x="155.83" y="15.36" width="84.25" height="85.93"/></clipPath><clipPath id="clip-path-4"><path class="cls-9" d="M215.69,15.36C180,19.42,146.6,59,158.16,82.06c2.75,5.48,10.33,12.14,18.23,15.42a51.59,51.59,0,0,0,18.11,3.81c11.49,0,17.94-3,24.83-7.36,14.38-9.05,21-25.54,20.74-38.21a46.14,46.14,0,0,0-24.38-40.36"/></clipPath><mask id="mask-2" x="104.09" y="-30.98" width="178.7" height="178.62" maskUnits="userSpaceOnUse"><rect class="cls-2" x="129.91" y="-4.81" width="127.07" height="126.27" transform="translate(8.89 140.57) rotate(-40.8)"/></mask><linearGradient id="Degradado_sin_nombre_8" x1="-5732.44" y1="1661.87" x2="-5730.56" y2="1661.87" gradientTransform="matrix(0, 26.44, 26.44, 0, -43753.07, 151642.26)" gradientUnits="userSpaceOnUse"><stop offset="0" stop-color="#c38714"/><stop offset="0.02" stop-color="#c38714"/><stop offset="0.19" stop-color="#ca8f13"/><stop offset="0.58" stop-color="#d59e11"/><stop offset="0.9" stop-color="#f1c012"/><stop offset="1" stop-color="#f1c012"/></linearGradient><clipPath id="clip-path-5"><rect class="cls-9" x="22.95" y="27.13" width="92.53" height="90.98"/></clipPath><clipPath id="clip-path-6"><path class="cls-9" d="M115.48,72.62c0,25.13-20.71,45.49-46.27,45.49S23,97.75,23,72.62,43.66,27.13,69.21,27.13s46.27,20.37,46.27,45.49"/></clipPath><mask id="mask-3" x="22.95" y="27.13" width="92.53" height="90.98" maskUnits="userSpaceOnUse"><rect class="cls-3" x="22.95" y="27.13" width="92.53" height="90.98"/></mask><radialGradient id="Degradado_sin_nombre_2" cx="-5622.9" cy="1504.35" r="1.88" gradientTransform="matrix(24.39, 0, 0, -24.39, 137202.37, 36761.2)" gradientUnits="userSpaceOnUse"><stop offset="0" stop-color="#fff"/><stop offset="0.11" stop-color="#fafafa"/><stop offset="0.24" stop-color="#ececec"/><stop offset="0.38" stop-color="#d4d4d4"/><stop offset="0.53" stop-color="#b3b3b3"/><stop offset="0.68" stop-color="#898988"/><stop offset="0.84" stop-color="#565654"/><stop offset="0.99" stop-color="#1d1d1b"/><stop offset="1" stop-color="#1d1d1b"/></radialGradient><clipPath id="clip-path-7"><path class="cls-9" d="M14.59,63.89c.14,25.2,21.38,45.78,45.58,45.58A45.58,45.58,0,1,0,14.59,63.89"/></clipPath><linearGradient id="Degradado_sin_nombre_3" x1="-5734.06" y1="1483.32" x2="-5732.18" y2="1483.32" gradientTransform="matrix(48.45, 0, 0, -48.45, 277847.37, 71935.45)" gradientUnits="userSpaceOnUse"><stop offset="0" stop-color="#f4d265"/><stop offset="0.06" stop-color="#f4d15f"/><stop offset="0.14" stop-color="#f4cd4d"/><stop offset="0.24" stop-color="#f3c831"/><stop offset="0.32" stop-color="#f3c213"/><stop offset="0.73" stop-color="#f2b509"/><stop offset="1" stop-color="#f1aa00"/><stop offset="1" stop-color="#f1aa00"/></linearGradient><clipPath id="clip-path-8"><rect class="cls-9" x="19.85" y="23.95" width="34.85" height="61.82"/></clipPath><clipPath id="clip-path-9"><path class="cls-9" d="M33.1,85.27a2,2,0,0,0,.23-.55c.29-1.17-1.54-3.16-2.14-4-6.09-8.85-4.34-19.92.6-28.83A40.63,40.63,0,0,1,42.18,39.52c3.76-2.91,10.69-5.22,12.32-10.05,0,0,0,0,0,0a4.49,4.49,0,0,0,.18-1c.17-3-3.08-4.92-5.75-4.42a12,12,0,0,0-4.4,2.08C31.37,34.85,18.77,48,19.93,65c.53,7.84,4.35,15.56,10.73,20.14.91.64,1.93.92,2.44.1"/></clipPath><mask id="mask-4" x="-12.51" y="5.48" width="98.65" height="98.65" maskUnits="userSpaceOnUse"><rect class="cls-4" x="1.94" y="19.93" width="69.76" height="69.76" transform="translate(-27.97 42.09) rotate(-45)"/></mask><linearGradient id="Degradado_sin_nombre_4" x1="-5681.81" y1="1704.51" x2="-5679.93" y2="1704.51" gradientTransform="matrix(0, 18.82, 18.82, 0, -32047.96, 106989.65)" gradientUnits="userSpaceOnUse"><stop offset="0" stop-color="#fff"/><stop offset="1" stop-color="#fff"/></linearGradient><clipPath id="clip-path-10"><rect class="cls-9" x="100.32" y="60.85" width="3.46" height="2.68"/></clipPath><clipPath id="clip-path-11"><rect class="cls-9" x="101.74" y="63.24" width="1.44" height="0.2"/></clipPath><clipPath id="clip-path-12"><rect class="cls-9" x="100.56" y="62.53" width="1.28" height="0.49"/></clipPath><clipPath id="clip-path-13"><rect class="cls-9" x="100.9" y="61.08" width="1.42" height="0.22"/></clipPath><clipPath id="clip-path-14"><rect class="cls-9" x="102.26" y="62.13" width="1.52" height="0.51"/></clipPath><clipPath id="clip-path-15"><rect class="cls-9" x="101.7" y="60.99" width="1.45" height="0.18"/></clipPath><clipPath id="clip-path-16"><rect class="cls-9" x="100.32" y="61.86" width="1.09" height="0.49"/></clipPath><clipPath id="clip-path-17"><rect class="cls-9" x="101.07" y="63.38" width="1.44" height="0.15"/></clipPath><clipPath id="clip-path-18"><rect class="cls-9" x="102.5" y="61.88" width="1.17" height="0.49"/></clipPath><clipPath id="clip-path-19"><rect class="cls-9" x="100.59" y="61.42" width="1.29" height="0.41"/></clipPath><clipPath id="clip-path-20"><rect class="cls-9" x="101.22" y="60.85" width="1.42" height="0.49"/></clipPath><clipPath id="clip-path-21"><rect class="cls-9" x="102.28" y="62.6" width="1.29" height="0.43"/></clipPath><clipPath id="clip-path-22"><rect class="cls-9" x="100.39" y="62.42" width="1.16" height="0.47"/></clipPath><clipPath id="clip-path-23"><rect class="cls-9" x="22.95" y="23.54" width="82.77" height="85.93"/></clipPath><clipPath id="clip-path-24"><path class="cls-9" d="M81.34,23.54A45.58,45.58,0,0,1,23,90.23,45.58,45.58,0,1,0,81.34,23.54"/></clipPath><mask id="mask-5" x="-20.01" y="-17.84" width="168.69" height="168.69" maskUnits="userSpaceOnUse"><rect class="cls-5" x="4.68" y="6.87" width="119.3" height="119.27" transform="translate(-28.19 65.64) rotate(-45.42)"/></mask><linearGradient id="Degradado_sin_nombre_6-2" x1="-5663.52" y1="1725.94" x2="-5661.64" y2="1725.94" gradientTransform="matrix(0, 17.24, 17.24, 0, -29688.33, 97700.99)" xlink:href="#Degradado_sin_nombre_6"/><clipPath id="clip-path-25"><rect class="cls-9" x="21.48" y="23.61" width="84.24" height="85.93"/></clipPath><clipPath id="clip-path-26"><path class="cls-9" d="M81.34,23.61C45.65,27.66,12.25,67.27,23.81,90.3c2.75,5.49,10.33,12.14,18.23,15.43a51.82,51.82,0,0,0,18.11,3.81c11.49,0,17.94-3,24.84-7.36,14.37-9.06,21-25.54,20.73-38.22A46.13,46.13,0,0,0,81.34,23.61"/></clipPath><mask id="mask-6" x="-30.25" y="-22.73" width="178.7" height="178.61" maskUnits="userSpaceOnUse"><rect class="cls-6" x="-4.44" y="3.44" width="127.07" height="126.27" transform="translate(-29.14 54.79) rotate(-40.8)"/></mask><linearGradient id="Degradado_sin_nombre_8-2" x1="-5741.38" y1="1642.86" x2="-5739.5" y2="1642.86" gradientTransform="matrix(0, 26.44, 26.44, 0, -43384.59, 151886.95)" xlink:href="#Degradado_sin_nombre_8"/><clipPath id="clip-path-27"><rect class="cls-9" x="-102.67" y="21.45" width="82.77" height="85.93"/></clipPath><clipPath id="clip-path-28"><path class="cls-9" d="M-44.28,21.45A45.33,45.33,0,0,1-35.9,47.79,45.57,45.57,0,0,1-81.47,93.36a45.43,45.43,0,0,1-21.2-5.22,45.53,45.53,0,0,0,37.2,19.24A45.58,45.58,0,0,0-19.9,61.8,45.56,45.56,0,0,0-44.28,21.45"/></clipPath><mask id="mask-7" x="-145.63" y="-19.93" width="168.69" height="168.69" maskUnits="userSpaceOnUse"><rect class="cls-7" x="-120.93" y="4.78" width="119.3" height="119.27" transform="translate(-64.15 -24.45) rotate(-45.42)"/></mask><linearGradient id="Degradado_sin_nombre_6-3" x1="-5663.25" y1="1726.37" x2="-5661.37" y2="1726.37" gradientTransform="matrix(0, 17.24, 17.24, 0, -29821.43, 97694.27)" xlink:href="#Degradado_sin_nombre_6"/><clipPath id="clip-path-29"><rect class="cls-9" x="-104.13" y="21.52" width="84.24" height="85.93"/></clipPath><clipPath id="clip-path-30"><path class="cls-9" d="M-44.28,21.52c-35.69,4.05-69.08,43.66-57.53,66.7,2.75,5.48,10.34,12.14,18.23,15.42a51.86,51.86,0,0,0,18.11,3.81c11.5,0,17.94-3,24.84-7.36,14.38-9.06,21-25.54,20.73-38.22A46.14,46.14,0,0,0-44.28,21.52"/></clipPath><mask id="mask-8" x="-155.87" y="-24.82" width="178.7" height="178.61" maskUnits="userSpaceOnUse"><rect class="cls-8" x="-130.06" y="1.35" width="127.07" height="126.27" transform="translate(-58.3 -27.8) rotate(-40.8)"/></mask><linearGradient id="Degradado_sin_nombre_8-3" x1="-5741.23" y1="1643.15" x2="-5739.35" y2="1643.15" gradientTransform="matrix(0, 26.44, 26.44, 0, -43518.11, 151880.84)" xlink:href="#Degradado_sin_nombre_8"/></defs><title>iconos</title><g class="cls-10"><g id="Capa_1" data-name="Capa 1"><g class="cls-11"><g class="cls-12"><g class="cls-13"><g class="cls-14"><rect class="cls-15" x="139.03" y="-1.38" width="119.3" height="119.27" transform="translate(17.73 158.88) rotate(-45.42)"/></g></g></g></g><g class="cls-16"><g class="cls-17"><g class="cls-18"><g class="cls-19"><rect class="cls-20" x="129.91" y="-4.81" width="127.07" height="126.27" transform="translate(8.89 140.57) rotate(-40.8)"/></g></g></g></g><g class="cls-21"><g class="cls-22"><g class="cls-23"><g class="cls-24"><rect class="cls-25" x="22.95" y="27.13" width="92.53" height="90.98"/></g></g></g></g><g class="cls-26"><rect class="cls-27" x="14.46" y="18.32" width="91.28" height="91.35"/></g><g class="cls-28"><g class="cls-29"><g class="cls-30"><g class="cls-31"><rect class="cls-32" x="1.94" y="19.93" width="69.76" height="69.76" transform="translate(-27.97 42.09) rotate(-45)"/></g></g></g></g><g class="cls-33"><g class="cls-34"><g class="cls-35"><g class="cls-36"><path class="cls-37" d="M101.78,63.44h1a3,3,0,0,0,.44-.18l-1.05,0c-.08,0-.53.2-.35.2"/></g></g><g class="cls-35"><g class="cls-38"><path class="cls-37" d="M100.82,63h.92c.23,0,0-.48-.1-.47h-.94c-.29,0-.07.48.12.48"/></g></g><g class="cls-35"><g class="cls-39"><path class="cls-37" d="M100.9,61.3l1,0c.13,0,.37-.2.43-.2h-1a1.32,1.32,0,0,0-.42.22"/></g></g><g class="cls-35"><g class="cls-40"><path class="cls-37" d="M102.84,62.64h.79c.25,0,.19-.49-.13-.5h-1c-.54,0,0,.51.34.51"/></g></g><g class="cls-35"><g class="cls-41"><path class="cls-37" d="M102.09,61.17l1,0a2.75,2.75,0,0,0-.44-.15h-1c-.18,0,.27.18.35.18"/></g></g><g class="cls-35"><g class="cls-42"><path class="cls-37" d="M100.35,62.35h1s.07-.49.07-.49h-1c-.08,0-.11.49-.06.49"/></g></g><g class="cls-35"><g class="cls-43"><path class="cls-37" d="M101.46,63.53h1.05c-.07,0-.32-.11-.45-.12l-1,0c-.16,0,.29.15.36.15"/></g></g><g class="cls-35"><g class="cls-44"><path class="cls-37" d="M102.64,62.38h1c.07,0,0-.49-.07-.49h-1c-.14,0-.1.5.06.5"/></g></g><g class="cls-35"><g class="cls-45"><path class="cls-37" d="M100.61,61.83l1,0c.13,0,.25-.39.3-.39h-1c-.09,0-.34.41-.24.41"/></g></g><g class="cls-35"><g class="cls-46"><path class="cls-37" d="M101.49,61.34l.82-.05c.11,0,.53-.29.23-.32l-1-.11c-.41,0-.46.51-.07.48"/></g></g><g class="cls-35"><g class="cls-47"><path class="cls-37" d="M102.33,63h1c.13,0,.25-.42.26-.42h-1c-.1,0-.35.43-.2.43"/></g></g><g class="cls-35"><g class="cls-48"><path class="cls-37" d="M100.55,62.89h1s-.09-.47-.16-.47h-1s0,.47.16.47"/></g></g></g></g><g class="cls-11"><g class="cls-49"><g class="cls-50"><g class="cls-51"><rect class="cls-52" x="4.68" y="6.87" width="119.3" height="119.27" transform="translate(-28.19 65.65) rotate(-45.42)"/></g></g></g></g><g class="cls-16"><g class="cls-53"><g class="cls-54"><g class="cls-55"><rect class="cls-56" x="-4.44" y="3.44" width="127.07" height="126.27" transform="translate(-29.14 54.79) rotate(-40.8)"/></g></g></g></g><path class="cls-57" d="M8.41,84.92A56.27,56.27,0,0,1,6.4,79,55.55,55.55,0,0,1,111.34,43"/><path class="cls-58" d="M114.53,63c-.84,1.75,1.91,3.63,2.68,1.79-.91-.57-2-.87-2.68-1.79"/><path class="cls-58" d="M58.47,66.16a1.1,1.1,0,0,0,1.19-1.54c-.73.08-.95.82-1.19,1.54"/><path class="cls-58" d="M110,68.46a4.3,4.3,0,0,1-2.59-.9c-.45-.44-.6-1.27-1.19-1.53-.26,0-.43,0-.4.38-.73,1.57-1.71,2.82-3.48,3.07-1.5.22-2-1.46-3.18-1.28.28,1.69,1.47,2.21,2.88,2.43,2.09,0,2.82-1.84,4.08-2.94A3.37,3.37,0,0,0,107,69c1.63,1.33,5.59,1.56,6-1-.81-.51-1.86.5-3,.52"/><path class="cls-58" d="M51.41,68.84c-1.07-.5-1.58-1.72-2.28-2.68-1,.81-2.2,2.19-3.68,2.17-.77,0-1.4-.73-2.19-.51,1,2.5,4.94,1.31,5.87-.39.37,2.43,4.33,3.51,5.36,1-1.07.07-1.82.56-3.08.38"/><path class="cls-58" d="M17.42,62.83C13.45,64.38,9.51,66,7.48,70A3,3,0,0,0,8,71.53c2.71-.73,4.41-2.76,7.75-2.69.84,1.15,3.27,1.27,4.77.76a27.48,27.48,0,0,0,6.36,3.2c5.3,1.91,8.93,7.07,14.68,8.5,5.2,1.29,11.27,1.19,16.56.62A55.93,55.93,0,0,0,89.59,68c.23.47.46,1,.7,1.42a11.64,11.64,0,0,0,8.13-7,4.27,4.27,0,0,0,8.21,1.08c1.43,2.51,6.15,1.37,6.28-1.51a4.14,4.14,0,0,1-6.67-.33c.45,1.81-1.8,3.37-3.62,3s-3.07-2.06-4-3.68-1.74-3.39-3.23-4.51-4-1.23-5,.33a9.34,9.34,0,0,1,5.17-2.46,9.76,9.76,0,0,1,8,2.34c1.13,1.05,2,2.36,3.22,3.31s3,1.44,4.29.61c4.75-3.06-12.17-10-14.1-11a7.73,7.73,0,0,0-2.94-1.07C88.85,48,86.42,57,82.62,58.48c-2.24.86-4.82,1.3-6.66,2.69-.41,0-.28-.75-.89-.51A7.9,7.9,0,0,1,71.69,64a5.21,5.21,0,0,1-2.78-1.92c-.34-.49-.37-1.4-1-1.53-.83.59-.75,2.35-1.49,3.07a8.47,8.47,0,0,1-1.39.76,3.78,3.78,0,0,1-3.48-1.27c-1.16-1.28-1.07-4.16-2.68-4.86C57.56,60.8,57.81,65.39,54.2,65a6.82,6.82,0,0,1-2.39-1.53c-.76-.92-.73-2.37-1.59-3.2-1.28,1.17-1.42,3.8-3.08,4.48-1.15,0-2.45.17-3.08-.51-.62-.95-.85-2.41-1.79-2.94-.94.54-.89,2.35-1.59,3.19-1.45,1.54-4.54.9-5.57-.64-.34-.46-.19-1.54-.89-1.53-1.23.43-1.54,2-3,2.17A4.79,4.79,0,0,1,28.75,64a7.14,7.14,0,0,1-1.49-2.17c-.63-.56-.27-2.38-1.39-2.3C25.5,61,25.77,63,24.77,64a2.2,2.2,0,0,1-.79.51,8.13,8.13,0,0,1-4.28-.89m45.18,4.54c-.92.15-1.82.23-2.49.33-2.45.36-18.6,6.88-19.63,6-2.68-2.31-5.77-4.85-9.64-5.88-2-.52-4.06-.72-6.16-1.15s-4.23-.37-5.72-1.84a10.14,10.14,0,0,0,5-1.7,34.44,34.44,0,0,0,13.1,2.18,4.52,4.52,0,0,0,2.52-.62,1.68,1.68,0,0,0,.5-2.29,4,4,0,0,0,7.7-.24,4.61,4.61,0,0,0,9-2c.75,2,2,3.92,3.92,4.68s4.66-.32,4.89-2.4c0,1.43,1.88,1.31,1.13,3.11-.54,1.33-2.9,1.69-4.09,1.87m30.46-4.41c1.1-.9,1.7-2.43,2.59-3.58.54.32-.21,1.87,0,1.91-.49.52-1,1.08-1.43,1.62-.23.26-.47.53-.72.78a1.23,1.23,0,0,1-.77.45c-.59.12-1,.66-1.59.77a3.62,3.62,0,0,1-1.73-.09,3.84,3.84,0,0,1-2.39-2.3L89.18,63c0,.08-.36.51-.42.59-.17.23-.34.45-.52.67A7.59,7.59,0,0,1,87,65.45a2.53,2.53,0,0,1-3,.35,7.62,7.62,0,0,1-1.87-3c0,.07-.44.6-.5.68-.19.23-.39.46-.61.68a5.88,5.88,0,0,1-1.48,1.1A2.76,2.76,0,0,1,76.4,65a6.44,6.44,0,0,1-.84-1.38,3.31,3.31,0,0,1-.29-2.08c.65.06,1,.6,1.28,1.14s.56,1.36,1.25,1.41a4.3,4.3,0,0,0,2.64-1,9.35,9.35,0,0,0,1-.91c.12-.12.94-.89.9-1,.57,1.91,1.36,3.54,3,4.09,2.12-.47,2.69-2.92,4.27-4.09-.07,3.3,3.38,3.7,5.76,2.56"/><path class="cls-59" d="M36.56,149.09A6.59,6.59,0,0,1,32.51,147a18.22,18.22,0,0,1-2.83-4.2,94.39,94.39,0,0,1-6.77-15c-.26-.79-.4-1.86.32-2.26a1.44,1.44,0,0,1,1.66.25c11.75,12.86,12.91,12.1,13.75,11.69s1.3-2.21,1.6-2.9c.83-2,1.35-4.06,2.2-6,1.1-2.56,2-6.36,4.3-8.14,1.16-.91,3-1.09,4,0s.52,3.13-.11,4.65l-4.53,11c-.68,1.65-1.49,3.29-2.11,4.94a22.81,22.81,0,0,1-2,5,6.41,6.41,0,0,1-5,3.11,3.05,3.05,0,0,1-.43,0"/><path class="cls-59" d="M57.3,119.67a2.45,2.45,0,0,1,1.8.74,2.49,2.49,0,0,1,.76,1.82,2.56,2.56,0,0,1-2.56,2.56,2.48,2.48,0,0,1-1.82-.74,2.45,2.45,0,0,1-.76-1.82,2.56,2.56,0,0,1,2.58-2.56m0,30.77c2.11.06,2.72-4.92,2.7-6.61,0-2,1-21.51-4.51-16a2.47,2.47,0,0,0-.76,1.82v18a2.41,2.41,0,0,0,.76,1.82h0a2.82,2.82,0,0,0,1.81,1"/><path class="cls-59" d="M74.29,128.5a10.82,10.82,0,0,1,4.14,20.35,9.07,9.07,0,0,1-8.51.19,9.86,9.86,0,0,1-4.22-5.34,24.62,24.62,0,0,1-1.15-6.83,94.67,94.67,0,0,1,0-11.67c.77-12.76,8,2.68,4.91,3.85a10.34,10.34,0,0,1,4.83-.55m4.58,9.22a4.58,4.58,0,0,0-4.54-4.54h-.07A4.41,4.41,0,0,0,71,134.52a4.35,4.35,0,0,0-1.33,3.2v3a4.56,4.56,0,0,0,4.56,4.56h.07a4.34,4.34,0,0,0,3.2-1.34,4.39,4.39,0,0,0,1.34-3.22Z"/><path class="cls-59" d="M89.67,119.68a2.4,2.4,0,0,1,1.8.73,2.47,2.47,0,0,1,.76,1.82,2.56,2.56,0,1,1-2.56-2.55m0,30.79c2.15,0,2.45-5.54,2.55-7,.2-2.92,2-16.41-2.56-16.41a2.42,2.42,0,0,0-1.82.76,2.51,2.51,0,0,0-.76,1.82v18a2.46,2.46,0,0,0,.76,1.82,2.81,2.81,0,0,0,1.83,1.07"/><g class="cls-11"><g class="cls-60"><g class="cls-61"><g class="cls-62"><rect class="cls-63" x="-120.93" y="4.78" width="119.3" height="119.27" transform="translate(-64.15 -24.45) rotate(-45.42)"/></g></g></g></g><g class="cls-16"><g class="cls-64"><g class="cls-65"><g class="cls-66"><rect class="cls-67" x="-130.06" y="1.35" width="127.07" height="126.27" transform="translate(-58.3 -27.8) rotate(-40.8)"/></g></g></g></g></g></g></svg>