<svg xmlns="http://www.w3.org/2000/svg" xmlns:xlink="http://www.w3.org/1999/xlink" viewBox="0 0 111.48 171.67"><defs><style>.cls-1{fill:url(#Degradado_sin_nombre_7);}.cls-2{fill:url(#Degradado_sin_nombre_9);}.cls-3{fill:url(#Degradado_sin_nombre_5);}.cls-4{fill:url(#Degradado_sin_nombre_7-2);}.cls-5{fill:url(#Degradado_sin_nombre_9-2);}.cls-6{fill:url(#Degradado_sin_nombre_10);}.cls-7{fill:url(#Degradado_sin_nombre_5-2);}.cls-8{fill:url(#Degradado_sin_nombre_7-3);}.cls-9{fill:url(#Degradado_sin_nombre_9-3);}.cls-10,.cls-70{fill:none;}.cls-11{isolation:isolate;}.cls-12{opacity:0.44;}.cls-12,.cls-35,.cls-46{mix-blend-mode:multiply;}.cls-13{clip-path:url(#clip-path);}.cls-14{clip-path:url(#clip-path-2);}.cls-15{mask:url(#mask);}.cls-16{fill:url(#Degradado_sin_nombre_6);}.cls-17{opacity:0.96;}.cls-18{clip-path:url(#clip-path-3);}.cls-19{clip-path:url(#clip-path-4);}.cls-20{mask:url(#mask-2);}.cls-21{fill:url(#Degradado_sin_nombre_8);}.cls-22{opacity:0.21;mix-blend-mode:lighten;}.cls-23{clip-path:url(#clip-path-5);}.cls-24{clip-path:url(#clip-path-6);}.cls-25{mask:url(#mask-3);}.cls-26{fill:url(#Degradado_sin_nombre_4);}.cls-27{clip-path:url(#clip-path-7);}.cls-28{clip-path:url(#clip-path-8);}.cls-29{mask:url(#mask-4);}.cls-30{fill:url(#Degradado_sin_nombre_6-2);}.cls-31{clip-path:url(#clip-path-9);}.cls-32{clip-path:url(#clip-path-10);}.cls-33{mask:url(#mask-5);}.cls-34{fill:url(#Degradado_sin_nombre_8-2);}.cls-36{clip-path:url(#clip-path-11);}.cls-37{clip-path:url(#clip-path-12);}.cls-38{mask:url(#mask-6);}.cls-39{fill:url(#Degradado_sin_nombre_2);}.cls-40{clip-path:url(#clip-path-13);}.cls-41{fill:url(#Degradado_sin_nombre_3);}.cls-42{clip-path:url(#clip-path-14);}.cls-43{clip-path:url(#clip-path-15);}.cls-44{mask:url(#mask-7);}.cls-45{fill:url(#Degradado_sin_nombre_4-2);}.cls-46{opacity:0.17;}.cls-47{clip-path:url(#clip-path-16);}.cls-48{opacity:0.11;}.cls-49{clip-path:url(#clip-path-17);}.cls-50{fill:#ab7719;}.cls-51{clip-path:url(#clip-path-18);}.cls-52{clip-path:url(#clip-path-19);}.cls-53{clip-path:url(#clip-path-20);}.cls-54{clip-path:url(#clip-path-21);}.cls-55{clip-path:url(#clip-path-22);}.cls-56{clip-path:url(#clip-path-23);}.cls-57{clip-path:url(#clip-path-24);}.cls-58{clip-path:url(#clip-path-25);}.cls-59{clip-path:url(#clip-path-26);}.cls-60{clip-path:url(#clip-path-27);}.cls-61{clip-path:url(#clip-path-28);}.cls-62{clip-path:url(#clip-path-29);}.cls-63{clip-path:url(#clip-path-30);}.cls-64{mask:url(#mask-8);}.cls-65{fill:url(#Degradado_sin_nombre_6-3);}.cls-66{clip-path:url(#clip-path-31);}.cls-67{clip-path:url(#clip-path-32);}.cls-68{mask:url(#mask-9);}.cls-69{fill:url(#Degradado_sin_nombre_8-3);}.cls-70{stroke:#f3c213;stroke-linecap:round;stroke-miterlimit:10;stroke-width:0.55px;}.cls-71{fill:#1d1d1b;}</style><linearGradient id="Degradado_sin_nombre_7" x1="-5541.74" y1="1732.23" x2="-5539.86" y2="1732.23" gradientTransform="matrix(0, 17.24, 17.24, 0, -29936.5, 95607.69)" gradientUnits="userSpaceOnUse"><stop offset="0" stop-color="#4d4d4d"/><stop offset="0.1" stop-color="#4d4d4d"/><stop offset="0.2" stop-color="#535353"/><stop offset="0.35" stop-color="#656565"/><stop offset="0.51" stop-color="#818181"/><stop offset="0.69" stop-color="#a9a9a9"/><stop offset="0.88" stop-color="#dcdcdc"/><stop offset="1" stop-color="#fff"/></linearGradient><linearGradient id="Degradado_sin_nombre_9" x1="-5619.72" y1="1649.06" x2="-5617.84" y2="1649.06" gradientTransform="matrix(0, 26.44, 26.44, 0, -43688.47, 148675.76)" gradientUnits="userSpaceOnUse"><stop offset="0"/><stop offset="0.02"/><stop offset="0.03" stop-color="#030303"/><stop offset="0.29" stop-color="#404040"/><stop offset="0.48" stop-color="#666"/><stop offset="0.58" stop-color="#757575"/><stop offset="0.9" stop-color="#f1f1f1"/><stop offset="1" stop-color="#f1f1f1"/></linearGradient><linearGradient id="Degradado_sin_nombre_5" x1="-5560.33" y1="1710.51" x2="-5558.45" y2="1710.51" gradientTransform="matrix(0, 18.82, 18.82, 0, -32039.42, 104708.93)" gradientUnits="userSpaceOnUse"><stop offset="0" stop-color="#fff"/><stop offset="1" stop-color="#1a1a1a"/></linearGradient><linearGradient id="Degradado_sin_nombre_7-2" x1="-5542.04" y1="1731.94" x2="-5540.16" y2="1731.94" gradientTransform="matrix(0, 17.24, 17.24, 0, -29670.28, 95612.82)" xlink:href="#Degradado_sin_nombre_7"/><linearGradient id="Degradado_sin_nombre_9-2" x1="-5619.9" y1="1648.86" x2="-5618.02" y2="1648.86" gradientTransform="matrix(0, 26.44, 26.44, 0, -43421.82, 148680.47)" xlink:href="#Degradado_sin_nombre_9"/><radialGradient id="Degradado_sin_nombre_10" cx="-5501.07" cy="1510.44" r="1.88" gradientTransform="matrix(24.39, 0, 0, -24.39, 134226.93, 36913.53)" gradientUnits="userSpaceOnUse"><stop offset="0" stop-color="#fff"/><stop offset="0.1" stop-color="#fafafa"/><stop offset="0.23" stop-color="#ececec"/><stop offset="0.36" stop-color="#d4d4d4"/><stop offset="0.5" stop-color="#b3b3b3"/><stop offset="0.64" stop-color="#888"/><stop offset="0.79" stop-color="#535353"/><stop offset="0.94" stop-color="#171717"/><stop offset="0.99"/><stop offset="1"/></radialGradient><linearGradient id="Degradado_sin_nombre_5-2" x1="-5560.09" y1="1710.91" x2="-5558.21" y2="1710.91" gradientTransform="matrix(0, 18.82, 18.82, 0, -32172.62, 104702.25)" xlink:href="#Degradado_sin_nombre_5"/><linearGradient id="Degradado_sin_nombre_7-3" x1="-5541.77" y1="1732.37" x2="-5539.89" y2="1732.37" gradientTransform="matrix(0, 17.24, 17.24, 0, -29803.38, 95606.1)" xlink:href="#Degradado_sin_nombre_7"/><linearGradient id="Degradado_sin_nombre_9-3" x1="-5619.75" y1="1649.15" x2="-5617.87" y2="1649.15" gradientTransform="matrix(0, 26.44, 26.44, 0, -43555.29, 148674.37)" xlink:href="#Degradado_sin_nombre_9"/><clipPath id="clip-path"><rect class="cls-10" x="-116.72" y="29.54" width="82.77" height="85.93"/></clipPath><clipPath id="clip-path-2"><path class="cls-10" d="M-58.33,29.54a45.3,45.3,0,0,1,8.38,26.33,45.58,45.58,0,0,1-45.57,45.58,45.4,45.4,0,0,1-21.2-5.22,45.53,45.53,0,0,0,37.2,19.24A45.58,45.58,0,0,0-33.95,69.89,45.56,45.56,0,0,0-58.33,29.54"/></clipPath><mask id="mask" x="-159.68" y="-11.84" width="168.69" height="168.69" maskUnits="userSpaceOnUse"><rect class="cls-1" x="-134.98" y="12.87" width="119.3" height="119.27" transform="translate(-74.1 -32.04) rotate(-45.42)"/></mask><linearGradient id="Degradado_sin_nombre_6" x1="-5541.74" y1="1732.23" x2="-5539.86" y2="1732.23" gradientTransform="matrix(0, 17.24, 17.24, 0, -29936.5, 95607.69)" gradientUnits="userSpaceOnUse"><stop offset="0" stop-color="#fff"/><stop offset="0.1" stop-color="#fff"/><stop offset="0.19" stop-color="#f9f9f9"/><stop offset="0.31" stop-color="#e8e8e7"/><stop offset="0.45" stop-color="#cbcbcb"/><stop offset="0.6" stop-color="#a3a3a3"/><stop offset="0.77" stop-color="#70706f"/><stop offset="0.94" stop-color="#333331"/><stop offset="1" stop-color="#1d1d1b"/></linearGradient><clipPath id="clip-path-3"><rect class="cls-10" x="-118.19" y="29.61" width="84.24" height="85.93"/></clipPath><clipPath id="clip-path-4"><path class="cls-10" d="M-58.33,29.61c-35.69,4-69.09,43.66-57.53,66.69,2.75,5.49,10.33,12.14,18.23,15.43a51.82,51.82,0,0,0,18.11,3.81c11.49,0,17.94-3,24.84-7.36,14.38-9.06,21-25.54,20.73-38.22A46.13,46.13,0,0,0-58.33,29.61"/></clipPath><mask id="mask-2" x="-169.92" y="-16.73" width="178.7" height="178.61" maskUnits="userSpaceOnUse"><rect class="cls-2" x="-144.11" y="9.44" width="127.07" height="126.27" transform="translate(-67 -35.01) rotate(-40.8)"/></mask><linearGradient id="Degradado_sin_nombre_8" x1="-5619.72" y1="1649.06" x2="-5617.84" y2="1649.06" gradientTransform="matrix(0, 26.44, 26.44, 0, -43688.45, 148675.76)" gradientUnits="userSpaceOnUse"><stop offset="0" stop-color="#c38714"/><stop offset="0.02" stop-color="#c38714"/><stop offset="0.19" stop-color="#ca8f13"/><stop offset="0.58" stop-color="#d59e11"/><stop offset="0.9" stop-color="#f1c012"/><stop offset="1" stop-color="#f1c012"/></linearGradient><clipPath id="clip-path-5"><rect class="cls-10" x="141.33" y="29.95" width="34.85" height="61.82"/></clipPath><clipPath id="clip-path-6"><path class="cls-10" d="M154.58,91.27a1.75,1.75,0,0,0,.23-.55c.29-1.17-1.54-3.16-2.13-4-6.1-8.85-4.35-19.92.6-28.83a40.46,40.46,0,0,1,10.38-12.34c3.76-2.91,10.69-5.22,12.32-10.05l0,0a4,4,0,0,0,.18-1c.17-3-3.07-4.92-5.75-4.42a12,12,0,0,0-4.4,2.08C152.85,40.85,140.25,54,141.41,71c.53,7.84,4.35,15.56,10.73,20.14.91.64,1.93.92,2.44.1"/></clipPath><mask id="mask-3" x="108.98" y="11.48" width="98.65" height="98.65" maskUnits="userSpaceOnUse"><rect class="cls-3" x="123.42" y="25.93" width="69.76" height="69.76" transform="translate(3.37 129.75) rotate(-45)"/></mask><linearGradient id="Degradado_sin_nombre_4" x1="-5560.33" y1="1710.51" x2="-5558.45" y2="1710.51" gradientTransform="matrix(0, 18.82, 18.82, 0, -32039.42, 104708.94)" gradientUnits="userSpaceOnUse"><stop offset="0" stop-color="#fff"/><stop offset="1" stop-color="#fff"/></linearGradient><clipPath id="clip-path-7"><rect class="cls-10" x="144.43" y="29.54" width="82.77" height="85.93"/></clipPath><clipPath id="clip-path-8"><path class="cls-10" d="M202.82,29.54a45.58,45.58,0,0,1-58.39,66.69,45.58,45.58,0,1,0,58.39-66.69"/></clipPath><mask id="mask-4" x="101.47" y="-11.84" width="168.69" height="168.69" maskUnits="userSpaceOnUse"><rect class="cls-4" x="126.16" y="12.87" width="119.3" height="119.27" transform="translate(3.75 153.96) rotate(-45.42)"/></mask><linearGradient id="Degradado_sin_nombre_6-2" x1="-5542.04" y1="1731.94" x2="-5540.16" y2="1731.94" gradientTransform="matrix(0, 17.24, 17.24, 0, -29670.28, 95612.82)" xlink:href="#Degradado_sin_nombre_6"/><clipPath id="clip-path-9"><rect class="cls-10" x="142.96" y="29.61" width="84.24" height="85.93"/></clipPath><clipPath id="clip-path-10"><path class="cls-10" d="M202.82,29.61c-35.69,4-69.09,43.66-57.53,66.69,2.75,5.49,10.33,12.14,18.23,15.43a51.82,51.82,0,0,0,18.11,3.81c11.49,0,17.94-3,24.84-7.36C220.85,99.12,227.42,82.64,227.2,70a46.13,46.13,0,0,0-24.38-40.35"/></clipPath><mask id="mask-5" x="91.23" y="-16.73" width="178.7" height="178.61" maskUnits="userSpaceOnUse"><rect class="cls-5" x="117.04" y="9.44" width="127.07" height="126.27" transform="translate(-3.54 135.63) rotate(-40.8)"/></mask><linearGradient id="Degradado_sin_nombre_8-2" x1="-5619.9" y1="1648.86" x2="-5618.02" y2="1648.86" gradientTransform="matrix(0, 26.44, 26.44, 0, -43421.78, 148680.48)" xlink:href="#Degradado_sin_nombre_8"/><clipPath id="clip-path-11"><rect class="cls-10" x="18.82" y="31.04" width="92.53" height="90.98"/></clipPath><clipPath id="clip-path-12"><path class="cls-10" d="M111.35,76.53c0,25.13-20.72,45.49-46.27,45.49S18.82,101.66,18.82,76.53,39.53,31,65.08,31s46.27,20.37,46.27,45.49"/></clipPath><mask id="mask-6" x="18.82" y="31.04" width="92.53" height="90.98" maskUnits="userSpaceOnUse"><rect class="cls-6" x="18.82" y="31.04" width="92.53" height="90.98"/></mask><radialGradient id="Degradado_sin_nombre_2" cx="-5501.07" cy="1510.44" r="1.88" gradientTransform="matrix(24.39, 0, 0, -24.39, 134226.94, 36913.53)" gradientUnits="userSpaceOnUse"><stop offset="0" stop-color="#fff"/><stop offset="0.11" stop-color="#fafafa"/><stop offset="0.24" stop-color="#ececec"/><stop offset="0.38" stop-color="#d4d4d4"/><stop offset="0.53" stop-color="#b3b3b3"/><stop offset="0.68" stop-color="#898988"/><stop offset="0.84" stop-color="#565654"/><stop offset="0.99" stop-color="#1d1d1b"/><stop offset="1" stop-color="#1d1d1b"/></radialGradient><clipPath id="clip-path-13"><path class="cls-10" d="M10.46,67.8C10.59,93,31.84,113.58,56,113.38A45.58,45.58,0,1,0,10.46,67.8"/></clipPath><linearGradient id="Degradado_sin_nombre_3" x1="-5612.4" y1="1489.36" x2="-5610.52" y2="1489.36" gradientTransform="matrix(48.45, 0, 0, -48.45, 271948.53, 72232.17)" gradientUnits="userSpaceOnUse"><stop offset="0" stop-color="#f4d265"/><stop offset="0.06" stop-color="#f4d15f"/><stop offset="0.14" stop-color="#f4cd4d"/><stop offset="0.24" stop-color="#f3c831"/><stop offset="0.32" stop-color="#f3c213"/><stop offset="0.73" stop-color="#f2b509"/><stop offset="1" stop-color="#f1aa00"/><stop offset="1" stop-color="#f1aa00"/></linearGradient><clipPath id="clip-path-14"><rect class="cls-10" x="15.72" y="27.86" width="34.85" height="61.82"/></clipPath><clipPath id="clip-path-15"><path class="cls-10" d="M29,89.18a1.75,1.75,0,0,0,.22-.55c.3-1.17-1.53-3.16-2.13-4-6.09-8.85-4.34-19.92.6-28.83A40.63,40.63,0,0,1,38.05,43.43c3.76-2.91,10.69-5.21,12.32-10,0,0,0,0,0-.05a4,4,0,0,0,.18-1c.18-3-3.07-4.92-5.75-4.42A12.15,12.15,0,0,0,40.42,30C27.24,38.76,14.64,51.91,15.79,68.94c.54,7.84,4.36,15.57,10.74,20.14.9.64,1.93.92,2.44.1"/></clipPath><mask id="mask-7" x="-16.64" y="9.39" width="98.65" height="98.65" maskUnits="userSpaceOnUse"><rect class="cls-7" x="-2.19" y="23.84" width="69.76" height="69.76" transform="translate(-31.95 40.31) rotate(-45)"/></mask><linearGradient id="Degradado_sin_nombre_4-2" x1="-5560.09" y1="1710.91" x2="-5558.21" y2="1710.91" gradientTransform="matrix(0, 18.82, 18.82, 0, -32172.62, 104702.26)" xlink:href="#Degradado_sin_nombre_4"/><clipPath id="clip-path-16"><rect class="cls-10" x="96.19" y="64.76" width="3.46" height="2.68"/></clipPath><clipPath id="clip-path-17"><rect class="cls-10" x="97.61" y="67.15" width="1.44" height="0.2"/></clipPath><clipPath id="clip-path-18"><rect class="cls-10" x="96.43" y="66.43" width="1.28" height="0.49"/></clipPath><clipPath id="clip-path-19"><rect class="cls-10" x="96.77" y="64.99" width="1.42" height="0.22"/></clipPath><clipPath id="clip-path-20"><rect class="cls-10" x="98.13" y="66.04" width="1.52" height="0.51"/></clipPath><clipPath id="clip-path-21"><rect class="cls-10" x="97.56" y="64.91" width="1.45" height="0.18"/></clipPath><clipPath id="clip-path-22"><rect class="cls-10" x="96.19" y="65.77" width="1.09" height="0.49"/></clipPath><clipPath id="clip-path-23"><rect class="cls-10" x="96.93" y="67.29" width="1.44" height="0.15"/></clipPath><clipPath id="clip-path-24"><rect class="cls-10" x="98.36" y="65.8" width="1.17" height="0.49"/></clipPath><clipPath id="clip-path-25"><rect class="cls-10" x="96.45" y="65.33" width="1.29" height="0.41"/></clipPath><clipPath id="clip-path-26"><rect class="cls-10" x="97.09" y="64.76" width="1.42" height="0.49"/></clipPath><clipPath id="clip-path-27"><rect class="cls-10" x="98.15" y="66.51" width="1.29" height="0.43"/></clipPath><clipPath id="clip-path-28"><rect class="cls-10" x="96.25" y="66.33" width="1.16" height="0.47"/></clipPath><clipPath id="clip-path-29"><rect class="cls-10" x="18.82" y="27.45" width="82.77" height="85.93"/></clipPath><clipPath id="clip-path-30"><path class="cls-10" d="M77.21,27.45A45.58,45.58,0,0,1,18.82,94.14,45.58,45.58,0,1,0,77.21,27.45"/></clipPath><mask id="mask-8" x="-24.14" y="-13.93" width="168.69" height="168.69" maskUnits="userSpaceOnUse"><rect class="cls-8" x="0.55" y="10.78" width="119.3" height="119.27" transform="translate(-32.21 63.87) rotate(-45.42)"/></mask><linearGradient id="Degradado_sin_nombre_6-3" x1="-5541.77" y1="1732.37" x2="-5539.89" y2="1732.37" gradientTransform="matrix(0, 17.24, 17.24, 0, -29803.38, 95606.1)" xlink:href="#Degradado_sin_nombre_6"/><clipPath id="clip-path-31"><rect class="cls-10" x="17.35" y="27.52" width="84.24" height="85.93"/></clipPath><clipPath id="clip-path-32"><path class="cls-10" d="M77.21,27.52c-35.7,4.05-69.09,43.66-57.54,66.7C22.43,99.7,30,106.36,37.91,109.64A51.82,51.82,0,0,0,56,113.45c11.5,0,17.94-3,24.84-7.36,14.38-9.06,21-25.54,20.74-38.22A46.16,46.16,0,0,0,77.21,27.52"/></clipPath><mask id="mask-9" x="-34.39" y="-18.82" width="178.7" height="178.61" maskUnits="userSpaceOnUse"><rect class="cls-9" x="-8.57" y="7.35" width="127.07" height="126.27" transform="translate(-32.7 53.04) rotate(-40.8)"/></mask><linearGradient id="Degradado_sin_nombre_8-3" x1="-5619.75" y1="1649.15" x2="-5617.87" y2="1649.15" gradientTransform="matrix(0, 26.44, 26.44, 0, -43555.29, 148674.37)" xlink:href="#Degradado_sin_nombre_8"/></defs><title>iconos</title><g class="cls-11"><g id="Capa_1" data-name="Capa 1"><g class="cls-12"><g class="cls-13"><g class="cls-14"><g class="cls-15"><rect class="cls-16" x="-134.98" y="12.87" width="119.3" height="119.27" transform="translate(-74.1 -32.04) rotate(-45.42)"/></g></g></g></g><g class="cls-17"><g class="cls-18"><g class="cls-19"><g class="cls-20"><rect class="cls-21" x="-144.11" y="9.44" width="127.07" height="126.27" transform="translate(-67 -35.01) rotate(-40.8)"/></g></g></g></g><g class="cls-22"><g class="cls-23"><g class="cls-24"><g class="cls-25"><rect class="cls-26" x="123.42" y="25.93" width="69.76" height="69.76" transform="translate(3.37 129.75) rotate(-45)"/></g></g></g></g><g class="cls-12"><g class="cls-27"><g class="cls-28"><g class="cls-29"><rect class="cls-30" x="126.17" y="12.87" width="119.3" height="119.27" transform="translate(3.75 153.96) rotate(-45.42)"/></g></g></g></g><g class="cls-17"><g class="cls-31"><g class="cls-32"><g class="cls-33"><rect class="cls-34" x="117.04" y="9.44" width="127.07" height="126.27" transform="translate(-3.54 135.63) rotate(-40.8)"/></g></g></g></g><g class="cls-35"><g class="cls-36"><g class="cls-37"><g class="cls-38"><rect class="cls-39" x="18.82" y="31.04" width="92.53" height="90.98"/></g></g></g></g><g class="cls-40"><rect class="cls-41" x="10.33" y="22.23" width="91.28" height="91.35"/></g><g class="cls-22"><g class="cls-42"><g class="cls-43"><g class="cls-44"><rect class="cls-45" x="-2.19" y="23.84" width="69.76" height="69.76" transform="translate(-31.95 40.31) rotate(-45)"/></g></g></g></g><g class="cls-46"><g class="cls-47"><g class="cls-48"><g class="cls-49"><path class="cls-50" d="M97.65,67.35h1c.13,0,.39-.18.44-.18l-1.06,0c-.08,0-.52.2-.34.2"/></g></g><g class="cls-48"><g class="cls-51"><path class="cls-50" d="M96.69,66.92h.91c.24,0,0-.48-.09-.47h-.94c-.29,0-.07.48.12.47"/></g></g><g class="cls-48"><g class="cls-52"><path class="cls-50" d="M96.77,65.21l1,0c.12,0,.37-.2.42-.2h-1a1.21,1.21,0,0,0-.42.22"/></g></g><g class="cls-48"><g class="cls-53"><path class="cls-50" d="M98.71,66.55h.78c.26,0,.2-.49-.12-.49l-1,0c-.54,0-.06.51.34.51"/></g></g><g class="cls-48"><g class="cls-54"><path class="cls-50" d="M98,65.08l1.05,0a3.16,3.16,0,0,0-.44-.15h-1c-.17,0,.28.17.36.17"/></g></g><g class="cls-48"><g class="cls-55"><path class="cls-50" d="M96.22,66.27h1c.05,0,.07-.49.06-.49h-1c-.09,0-.12.5-.06.5"/></g></g><g class="cls-48"><g class="cls-56"><path class="cls-50" d="M97.33,67.44h1c-.07,0-.32-.11-.46-.12l-1,0c-.17,0,.28.15.36.15"/></g></g><g class="cls-48"><g class="cls-57"><path class="cls-50" d="M98.51,66.29h1c.07,0,0-.49-.07-.49h-1c-.15,0-.1.49.06.49"/></g></g><g class="cls-48"><g class="cls-58"><path class="cls-50" d="M96.47,65.74l1,0c.13,0,.25-.39.3-.39h-1c-.09,0-.34.41-.25.41"/></g></g><g class="cls-48"><g class="cls-59"><path class="cls-50" d="M97.36,65.25l.82,0c.11,0,.52-.29.23-.32l-1-.11c-.42,0-.46.51-.07.48"/></g></g><g class="cls-48"><g class="cls-60"><path class="cls-50" d="M98.2,66.94h1c.12,0,.25-.42.26-.42h-1c-.1,0-.35.43-.2.43"/></g></g><g class="cls-48"><g class="cls-61"><path class="cls-50" d="M96.42,66.8h1s-.09-.47-.16-.47h-1s0,.47.16.47"/></g></g></g></g><g class="cls-12"><g class="cls-62"><g class="cls-63"><g class="cls-64"><rect class="cls-65" x="0.55" y="10.78" width="119.3" height="119.27" transform="translate(-32.21 63.87) rotate(-45.42)"/></g></g></g></g><g class="cls-17"><g class="cls-66"><g class="cls-67"><g class="cls-68"><rect class="cls-69" x="-8.57" y="7.35" width="127.07" height="126.27" transform="translate(-32.7 53.04) rotate(-40.8)"/></g></g></g></g><path class="cls-70" d="M4.28,88.83a54.06,54.06,0,0,1-2-5.91,55.55,55.55,0,0,1,104.94-36"/><path class="cls-71" d="M85.38,88.17a51,51,0,0,0-3.13-4.32c1.87-.59,2.56-3.14,1.75-4.94a7.25,7.25,0,0,0-4.53-3.52c-3.63-1.18-7.54-.91-11.34-1.14-5.12-.31-8.48-1.75-11.31-5.91-.3-.43-.74-.25-1-.85A7.1,7.1,0,0,0,55,66.15l1.59.9s.83.12,1.33.14a11.86,11.86,0,0,1,1.85.6,6.93,6.93,0,0,0,1.2.35,3.51,3.51,0,0,1,.62-.23c.41-.1,3.54-.12,4.4-.21s6.23-2.08,6.82-2.11,2.69-1.83,2.69-1.83a4.74,4.74,0,0,0,.77,0c.15,0,.48-.76.48-.92.24.13,1.82.57,1.82.57,3.66-5-9.12-.61-9.79-.39-6.43,2-10.61-2.65-16.61-3.85A27.81,27.81,0,0,0,46,58.85c-.27,0-1.59-1-1.59-1l.27-1a19.06,19.06,0,0,0,.24-2.5,4,4,0,0,0-2.29-2.25,17.67,17.67,0,0,0-2.94-.67,8.34,8.34,0,0,0-2.83.66,2.38,2.38,0,0,0-.74,1.78c.06.24-.56.6-.79.65s-.14.7.37.92a4.4,4.4,0,0,0,.27,1.9s.23,1.08-.13,1.06S34.59,58,33.9,58s-2-1.65-3.44-2.52A16,16,0,0,0,26.71,54l-1.62-2.56-4.54-6.58s.93-2.36,1-2.53,1.09-.86,1.26-1.12A1,1,0,0,0,22,39.87c-.86,0-2.5,1.81-2.5,1.81l-1.05,0c-1.59,0-.7-5.33-3.07-2.26a1.43,1.43,0,0,0-1.58-.51c.1.52.19,1,.29,1.57a1.17,1.17,0,0,0-1.61-.16l.84,1.86c3.54,4.79,7,9.66,10.69,14.35,1.89,2.4,3.83,4.77,5.93,7,.81.87,6.45,5.09,6.45,5.9A127.89,127.89,0,0,0,53.67,85.93c4.37,3.46,9.07,6.67,14.4,8.23,4.22,1.24,9.83,1.6,13.83-.63,5.39-3-.48-4.63-4.1-3.57-.67.2-2.68-1-3.45-.94a5.3,5.3,0,0,0-1.86,1l-2.8-2.47-.46-3h-1c-.12,0-.5-1-.7-1.14.57,0,7.19-.26,7.19-.26l.37-.83L77.2,82l.69,1.1s-2.2.72-2.25,1.45,1.27,1.93,1.64,2.08,2.26.58,2.81.8,2.1,1.94,2.74,2.11a9.38,9.38,0,0,0,2.8.06.57.57,0,0,0,.27-.38,11,11,0,0,0-.52-1"/><path class="cls-71" d="M30.32,43a5.3,5.3,0,0,0,5.34-5.25C35.53,35,32.93,32.85,29.85,33s-5.48,2.5-5.35,5.26,2.74,4.87,5.82,4.72"/><path class="cls-71" d="M28,157.18a6.61,6.61,0,0,1-4-2.06,18.18,18.18,0,0,1-2.82-4.2,94.39,94.39,0,0,1-6.77-15c-.26-.79-.41-1.86.32-2.26a1.44,1.44,0,0,1,1.66.25c11.74,12.86,12.91,12.1,13.74,11.69s1.31-2.21,1.6-2.9c.84-2,1.36-4.06,2.2-6,1.1-2.56,2-6.36,4.3-8.15,1.17-.9,3-1.08,4,0s.51,3.13-.11,4.65q-2.27,5.51-4.54,11c-.68,1.65-1.49,3.29-2.1,4.94a22.81,22.81,0,0,1-2,5,6.43,6.43,0,0,1-5,3.11H28"/><path class="cls-71" d="M48.74,127.76a2.56,2.56,0,1,1-1.82.74,2.48,2.48,0,0,1,1.82-.74m0,30.77c2.11.05,2.72-4.92,2.7-6.61,0-2,1-21.51-4.51-16a2.47,2.47,0,0,0-.76,1.82v17.95a2.42,2.42,0,0,0,.76,1.82h0a2.82,2.82,0,0,0,1.81,1"/><path class="cls-71" d="M65.73,136.59a10.82,10.82,0,0,1,4.14,20.34,9,9,0,0,1-8.51.2,9.81,9.81,0,0,1-4.22-5.34A24.21,24.21,0,0,1,56,145a96.84,96.84,0,0,1,0-11.68c.77-12.75,8,2.69,4.91,3.86a10.18,10.18,0,0,1,4.83-.55m4.58,9.22a4.56,4.56,0,0,0-4.54-4.54H65.7a4.56,4.56,0,0,0-4.57,4.54v3a4.58,4.58,0,0,0,4.57,4.56h.07a4.58,4.58,0,0,0,4.54-4.56Z"/><path class="cls-71" d="M81.11,127.77a2.4,2.4,0,0,1,1.8.73,2.47,2.47,0,0,1,.76,1.82,2.56,2.56,0,1,1-2.56-2.55m0,30.79c2.14,0,2.45-5.55,2.55-7,.19-2.92,2-16.41-2.56-16.41a2.42,2.42,0,0,0-1.82.76,2.45,2.45,0,0,0-.76,1.82v17.95a2.42,2.42,0,0,0,.76,1.82,2.85,2.85,0,0,0,1.83,1.07"/></g></g></svg>