<svg xmlns="http://www.w3.org/2000/svg" xmlns:xlink="http://www.w3.org/1999/xlink" viewBox="0 0 81 79.4"><defs><style>.cls-1{isolation:isolate;}.cls-2{fill:#353434;}.cls-3{fill:url(#Degradado_sin_nombre_55);}.cls-4{mix-blend-mode:multiply;fill:url(#Degradado_sin_nombre_25);}.cls-5{fill:#fff;}.cls-6{fill:none;}</style><linearGradient id="Degradado_sin_nombre_55" x1="30.95" y1="16.05" x2="80.94" y2="68.29" gradientUnits="userSpaceOnUse"><stop offset="0" stop-color="#606060"/><stop offset="1" stop-color="#444150"/></linearGradient><linearGradient id="Degradado_sin_nombre_25" x1="58.85" y1="28.06" x2="58.85" y2="28.06" gradientUnits="userSpaceOnUse"><stop offset="0" stop-color="#700000" stop-opacity="0.7"/><stop offset="1" stop-color="#ff845a" stop-opacity="0"/></linearGradient></defs><title>iconoApple</title><g class="cls-1"><g id="Capa_1" data-name="Capa 1"><path class="cls-2" d="M57.94,4.39h0c-22,0-40.06,17.75-40.06,39.45h0c0,21.69,18,39.45,40.06,39.45h0C80,83.29,98,65.53,98,43.84h0C98,22.14,80,4.39,57.94,4.39Z" transform="translate(-17 -3.88)"/><path class="cls-3" d="M57.06,3.88h0C35,3.88,17,21.64,17,43.33h0C17,65,35,82.78,57.06,82.78h0c22,0,40.06-17.75,40.06-39.45h0C97.12,21.64,79.09,3.88,57.06,3.88Z" transform="translate(-17 -3.88)"/><path class="cls-4" d="M58.85,28.06" transform="translate(-17 -3.88)"/><path class="cls-5" d="M63.48,25.22a9.67,9.67,0,0,0,2.27-7,9.74,9.74,0,0,0-6.43,3.3A9.22,9.22,0,0,0,57,28.31,8.07,8.07,0,0,0,63.48,25.22Z" transform="translate(-17 -3.88)"/><path class="cls-5" d="M69,41.47a9.17,9.17,0,0,1,1-4.4,10.62,10.62,0,0,1,3.66-3.93,10.21,10.21,0,0,0-8-4.33c-3.4-.35-6.63,2-8.35,2s-4.39-1.95-7.2-1.9a10.68,10.68,0,0,0-9,5.49,12.88,12.88,0,0,0-1.32,3.29c-1.62,6.35.91,14.15,4.09,18.74,1.83,2.66,4,5.65,6.88,5.54s3.81-1.79,7.15-1.79,4.29,1.79,7.21,1.73,4.86-2.7,6.67-5.37a24.07,24.07,0,0,0,3-6.22A9.65,9.65,0,0,1,69,41.47Z" transform="translate(-17 -3.88)"/><path class="cls-6" d="M63.29,25.22a9.67,9.67,0,0,0,2.27-7,9.78,9.78,0,0,0-6.43,3.3,9.22,9.22,0,0,0-2.31,6.77A8,8,0,0,0,63.29,25.22Z" transform="translate(-17 -3.88)"/><path class="cls-6" d="M68.78,41.47a9.28,9.28,0,0,1,1-4.4,10.6,10.6,0,0,1,3.67-3.93,10.22,10.22,0,0,0-8-4.33c-3.4-.35-6.63,2-8.35,2s-4.38-1.95-7.2-1.9a10.69,10.69,0,0,0-9,5.49,13.25,13.25,0,0,0-1.32,3.29C38,44,40.53,51.84,43.7,56.43c1.83,2.66,4,5.65,6.88,5.54s3.81-1.79,7.15-1.79S62,62,64.94,61.91s4.86-2.7,6.68-5.37a24.24,24.24,0,0,0,3-6.22A9.65,9.65,0,0,1,68.78,41.47Z" transform="translate(-17 -3.88)"/></g></g></svg>