<svg xmlns="http://www.w3.org/2000/svg" xmlns:xlink="http://www.w3.org/1999/xlink" viewBox="0 0 130.48 158.67"><defs><style>.cls-1{fill:url(#Degradado_sin_nombre_10);}.cls-2{fill:url(#Degradado_sin_nombre_5);}.cls-3{fill:url(#Degradado_sin_nombre_7);}.cls-4{fill:url(#Degradado_sin_nombre_9);}.cls-45,.cls-5{fill:none;}.cls-6{isolation:isolate;}.cls-19,.cls-35,.cls-7{mix-blend-mode:multiply;}.cls-8{clip-path:url(#clip-path);}.cls-9{clip-path:url(#clip-path-2);}.cls-10{mask:url(#mask);}.cls-11{fill:url(#Degradado_sin_nombre_2);}.cls-12{clip-path:url(#clip-path-3);}.cls-13{fill:url(#Degradado_sin_nombre_3);}.cls-14{opacity:0.21;mix-blend-mode:lighten;}.cls-15{clip-path:url(#clip-path-4);}.cls-16{clip-path:url(#clip-path-5);}.cls-17{mask:url(#mask-2);}.cls-18{fill:url(#Degradado_sin_nombre_4);}.cls-19{opacity:0.17;}.cls-20{clip-path:url(#clip-path-6);}.cls-21{opacity:0.11;}.cls-22{clip-path:url(#clip-path-7);}.cls-23{fill:#ab7719;}.cls-24{clip-path:url(#clip-path-8);}.cls-25{clip-path:url(#clip-path-9);}.cls-26{clip-path:url(#clip-path-10);}.cls-27{clip-path:url(#clip-path-11);}.cls-28{clip-path:url(#clip-path-12);}.cls-29{clip-path:url(#clip-path-13);}.cls-30{clip-path:url(#clip-path-14);}.cls-31{clip-path:url(#clip-path-15);}.cls-32{clip-path:url(#clip-path-16);}.cls-33{clip-path:url(#clip-path-17);}.cls-34{clip-path:url(#clip-path-18);}.cls-35{opacity:0.44;}.cls-36{clip-path:url(#clip-path-19);}.cls-37{clip-path:url(#clip-path-20);}.cls-38{mask:url(#mask-3);}.cls-39{fill:url(#Degradado_sin_nombre_6);}.cls-40{opacity:0.96;}.cls-41{clip-path:url(#clip-path-21);}.cls-42{clip-path:url(#clip-path-22);}.cls-43{mask:url(#mask-4);}.cls-44{fill:url(#Degradado_sin_nombre_8);}.cls-45{stroke:#f3c213;stroke-linecap:round;stroke-miterlimit:10;stroke-width:0.55px;}.cls-46{fill:#1d1d1b;}</style><radialGradient id="Degradado_sin_nombre_10" cx="-6252.73" cy="1510.27" r="1.88" gradientTransform="matrix(24.39, 0, 0, -24.39, 152568.19, 36903.91)" gradientUnits="userSpaceOnUse"><stop offset="0" stop-color="#fff"/><stop offset="0.1" stop-color="#fafafa"/><stop offset="0.23" stop-color="#ececec"/><stop offset="0.36" stop-color="#d4d4d4"/><stop offset="0.5" stop-color="#b3b3b3"/><stop offset="0.64" stop-color="#888"/><stop offset="0.79" stop-color="#535353"/><stop offset="0.94" stop-color="#171717"/><stop offset="0.99"/><stop offset="1"/></radialGradient><linearGradient id="Degradado_sin_nombre_5" x1="-6319.34" y1="1734.76" x2="-6317.46" y2="1734.76" gradientTransform="matrix(0, 18.82, 18.82, 0, -32611.94, 118988.38)" gradientUnits="userSpaceOnUse"><stop offset="0" stop-color="#fff"/><stop offset="1" stop-color="#1a1a1a"/></linearGradient><linearGradient id="Degradado_sin_nombre_7" x1="-6299.02" y1="1758.81" x2="-6297.14" y2="1758.81" gradientTransform="matrix(0, 17.24, 17.24, 0, -30249.69, 108654.42)" gradientUnits="userSpaceOnUse"><stop offset="0" stop-color="#4d4d4d"/><stop offset="0.1" stop-color="#4d4d4d"/><stop offset="0.2" stop-color="#535353"/><stop offset="0.35" stop-color="#656565"/><stop offset="0.51" stop-color="#818181"/><stop offset="0.69" stop-color="#a9a9a9"/><stop offset="0.88" stop-color="#dcdcdc"/><stop offset="1" stop-color="#fff"/></linearGradient><linearGradient id="Degradado_sin_nombre_9" x1="-6386.12" y1="1665.34" x2="-6384.23" y2="1665.34" gradientTransform="matrix(0, 26.44, 26.44, 0, -43973.98, 168934.52)" gradientUnits="userSpaceOnUse"><stop offset="0"/><stop offset="0.02"/><stop offset="0.03" stop-color="#030303"/><stop offset="0.29" stop-color="#404040"/><stop offset="0.48" stop-color="#666"/><stop offset="0.58" stop-color="#757575"/><stop offset="0.9" stop-color="#f1f1f1"/><stop offset="1" stop-color="#f1f1f1"/></linearGradient><clipPath id="clip-path"><rect class="cls-5" x="28.32" y="25.44" width="92.53" height="90.98"/></clipPath><clipPath id="clip-path-2"><path class="cls-5" d="M120.85,70.93c0,25.12-20.72,45.49-46.27,45.49S28.32,96.05,28.32,70.93,49,25.44,74.58,25.44s46.27,20.36,46.27,45.49"/></clipPath><mask id="mask" x="28.32" y="25.44" width="92.53" height="90.98" maskUnits="userSpaceOnUse"><rect class="cls-1" x="28.32" y="25.44" width="92.53" height="90.98"/></mask><radialGradient id="Degradado_sin_nombre_2" cx="-6252.73" cy="1510.27" r="1.88" gradientTransform="matrix(24.39, 0, 0, -24.39, 152568.2, 36903.91)" gradientUnits="userSpaceOnUse"><stop offset="0" stop-color="#fff"/><stop offset="0.11" stop-color="#fafafa"/><stop offset="0.24" stop-color="#ececec"/><stop offset="0.38" stop-color="#d4d4d4"/><stop offset="0.53" stop-color="#b3b3b3"/><stop offset="0.68" stop-color="#898988"/><stop offset="0.84" stop-color="#565654"/><stop offset="0.99" stop-color="#1d1d1b"/><stop offset="1" stop-color="#1d1d1b"/></radialGradient><clipPath id="clip-path-3"><path class="cls-5" d="M20,62.2c.13,25.2,21.38,45.77,45.57,45.57A45.58,45.58,0,1,0,20,62.2"/></clipPath><linearGradient id="Degradado_sin_nombre_3" x1="-6377.35" y1="1486.3" x2="-6375.47" y2="1486.3" gradientTransform="matrix(48.45, 0, 0, -48.45, 309021.96, 72078.17)" gradientUnits="userSpaceOnUse"><stop offset="0" stop-color="#f4d265"/><stop offset="0.06" stop-color="#f4d15f"/><stop offset="0.14" stop-color="#f4cd4d"/><stop offset="0.24" stop-color="#f3c831"/><stop offset="0.32" stop-color="#f3c213"/><stop offset="0.73" stop-color="#f2b509"/><stop offset="1" stop-color="#f1aa00"/><stop offset="1" stop-color="#f1aa00"/></linearGradient><clipPath id="clip-path-4"><rect class="cls-5" x="25.22" y="22.25" width="34.85" height="61.83"/></clipPath><clipPath id="clip-path-5"><path class="cls-5" d="M38.47,83.58a1.82,1.82,0,0,0,.22-.56c.3-1.17-1.53-3.16-2.13-4-6.09-8.84-4.34-19.92.6-28.83A40.48,40.48,0,0,1,47.55,37.83c3.76-2.92,10.69-5.22,12.32-10.06,0,0,0,0,0-.05a3.54,3.54,0,0,0,.18-1c.18-3-3.07-4.91-5.75-4.42a12.32,12.32,0,0,0-4.39,2.08C36.74,33.15,24.14,46.3,25.29,63.33,25.83,71.18,29.65,78.9,36,83.47c.9.65,1.93.92,2.44.11"/></clipPath><mask id="mask-2" x="-7.14" y="3.79" width="98.65" height="98.65" maskUnits="userSpaceOnUse"><rect class="cls-2" x="7.31" y="18.24" width="69.76" height="69.76" transform="translate(-25.2 45.39) rotate(-45)"/></mask><linearGradient id="Degradado_sin_nombre_4" x1="-6319.34" y1="1734.76" x2="-6317.46" y2="1734.76" gradientTransform="matrix(0, 18.82, 18.82, 0, -32611.94, 118988.39)" gradientUnits="userSpaceOnUse"><stop offset="0" stop-color="#fff"/><stop offset="1" stop-color="#fff"/></linearGradient><clipPath id="clip-path-6"><rect class="cls-5" x="105.69" y="59.16" width="3.46" height="2.68"/></clipPath><clipPath id="clip-path-7"><rect class="cls-5" x="107.11" y="61.54" width="1.44" height="0.2"/></clipPath><clipPath id="clip-path-8"><rect class="cls-5" x="105.93" y="60.83" width="1.28" height="0.49"/></clipPath><clipPath id="clip-path-9"><rect class="cls-5" x="106.27" y="59.38" width="1.42" height="0.22"/></clipPath><clipPath id="clip-path-10"><rect class="cls-5" x="107.63" y="60.43" width="1.52" height="0.51"/></clipPath><clipPath id="clip-path-11"><rect class="cls-5" x="107.07" y="59.3" width="1.44" height="0.18"/></clipPath><clipPath id="clip-path-12"><rect class="cls-5" x="105.69" y="60.17" width="1.09" height="0.49"/></clipPath><clipPath id="clip-path-13"><rect class="cls-5" x="106.43" y="61.68" width="1.45" height="0.15"/></clipPath><clipPath id="clip-path-14"><rect class="cls-5" x="107.86" y="60.19" width="1.17" height="0.49"/></clipPath><clipPath id="clip-path-15"><rect class="cls-5" x="105.95" y="59.72" width="1.29" height="0.41"/></clipPath><clipPath id="clip-path-16"><rect class="cls-5" x="106.59" y="59.16" width="1.42" height="0.49"/></clipPath><clipPath id="clip-path-17"><rect class="cls-5" x="107.65" y="60.9" width="1.29" height="0.43"/></clipPath><clipPath id="clip-path-18"><rect class="cls-5" x="105.75" y="60.72" width="1.16" height="0.47"/></clipPath><clipPath id="clip-path-19"><rect class="cls-5" x="28.32" y="21.84" width="82.77" height="85.93"/></clipPath><clipPath id="clip-path-20"><path class="cls-5" d="M86.71,21.84a45.59,45.59,0,0,1-58.39,66.7,45.58,45.58,0,1,0,58.39-66.7"/></clipPath><mask id="mask-3" x="-14.64" y="-19.54" width="168.69" height="168.69" maskUnits="userSpaceOnUse"><rect class="cls-3" x="10.05" y="5.17" width="119.3" height="119.27" transform="translate(-25.38 68.96) rotate(-45.42)"/></mask><linearGradient id="Degradado_sin_nombre_6" x1="-6299.02" y1="1758.81" x2="-6297.14" y2="1758.81" gradientTransform="matrix(0, 17.24, 17.24, 0, -30249.69, 108654.42)" gradientUnits="userSpaceOnUse"><stop offset="0" stop-color="#fff"/><stop offset="0.1" stop-color="#fff"/><stop offset="0.19" stop-color="#f9f9f9"/><stop offset="0.31" stop-color="#e8e8e7"/><stop offset="0.45" stop-color="#cbcbcb"/><stop offset="0.6" stop-color="#a3a3a3"/><stop offset="0.77" stop-color="#70706f"/><stop offset="0.94" stop-color="#333331"/><stop offset="1" stop-color="#1d1d1b"/></linearGradient><clipPath id="clip-path-21"><rect class="cls-5" x="26.85" y="21.91" width="84.25" height="85.93"/></clipPath><clipPath id="clip-path-22"><path class="cls-5" d="M86.71,21.91C51,26,17.62,65.58,29.18,88.61c2.75,5.48,10.33,12.14,18.23,15.42a51.58,51.58,0,0,0,18.1,3.81c11.5,0,17.95-3,24.84-7.36,14.38-9,21-25.54,20.74-38.21A46.16,46.16,0,0,0,86.71,21.91"/></clipPath><mask id="mask-4" x="-24.89" y="-24.43" width="178.7" height="178.62" maskUnits="userSpaceOnUse"><rect class="cls-4" x="0.93" y="1.74" width="127.07" height="126.27" transform="translate(-26.73 57.88) rotate(-40.8)"/></mask><linearGradient id="Degradado_sin_nombre_8" x1="-6386.12" y1="1665.34" x2="-6384.23" y2="1665.34" gradientTransform="matrix(0, 26.44, 26.44, 0, -43973.96, 168934.53)" gradientUnits="userSpaceOnUse"><stop offset="0" stop-color="#c38714"/><stop offset="0.02" stop-color="#c38714"/><stop offset="0.19" stop-color="#ca8f13"/><stop offset="0.58" stop-color="#d59e11"/><stop offset="0.9" stop-color="#f1c012"/><stop offset="1" stop-color="#f1c012"/></linearGradient></defs><title>iconos</title><g class="cls-6"><g id="Capa_1" data-name="Capa 1"><g class="cls-7"><g class="cls-8"><g class="cls-9"><g class="cls-10"><rect class="cls-11" x="28.32" y="25.44" width="92.53" height="90.98"/></g></g></g></g><g class="cls-12"><rect class="cls-13" x="19.83" y="16.62" width="91.28" height="91.35"/></g><g class="cls-14"><g class="cls-15"><g class="cls-16"><g class="cls-17"><rect class="cls-18" x="7.31" y="18.23" width="69.76" height="69.76" transform="translate(-25.2 45.39) rotate(-45)"/></g></g></g></g><g class="cls-19"><g class="cls-20"><g class="cls-21"><g class="cls-22"><path class="cls-23" d="M107.15,61.75h1c.13,0,.39-.18.44-.18h-1.06c-.07,0-.52.2-.34.2"/></g></g><g class="cls-21"><g class="cls-24"><path class="cls-23" d="M106.19,61.31h.91c.24,0,0-.47-.09-.47h-.94c-.29,0-.07.48.12.47"/></g></g><g class="cls-21"><g class="cls-25"><path class="cls-23" d="M106.27,59.6h1c.12,0,.37-.2.42-.2h-1a1.32,1.32,0,0,0-.42.22"/></g></g><g class="cls-21"><g class="cls-26"><path class="cls-23" d="M108.21,60.94H109c.26,0,.2-.49-.12-.49h-1c-.54,0-.06.5.34.5"/></g></g><g class="cls-21"><g class="cls-27"><path class="cls-23" d="M107.46,59.48l1.05,0c-.05,0-.32-.14-.44-.15h-1c-.17,0,.28.18.36.18"/></g></g><g class="cls-21"><g class="cls-28"><path class="cls-23" d="M105.72,60.66h1a2.07,2.07,0,0,0,.07-.49h-1c-.09,0-.12.49-.06.49"/></g></g><g class="cls-21"><g class="cls-29"><path class="cls-23" d="M106.83,61.84h1a4.22,4.22,0,0,0-.46-.12l-1,0c-.16,0,.28.16.36.16"/></g></g><g class="cls-21"><g class="cls-30"><path class="cls-23" d="M108,60.68h1c.07,0,0-.49-.07-.49h-1c-.15,0-.1.49.06.49"/></g></g><g class="cls-21"><g class="cls-31"><path class="cls-23" d="M106,60.13l1,0c.13,0,.25-.39.3-.39h-1c-.09,0-.34.4-.24.4"/></g></g><g class="cls-21"><g class="cls-32"><path class="cls-23" d="M106.86,59.65l.82-.06c.11,0,.52-.28.23-.32l-1-.11c-.42,0-.46.51-.07.49"/></g></g><g class="cls-21"><g class="cls-33"><path class="cls-23" d="M107.7,61.33h1c.12,0,.25-.42.26-.42h-1c-.1,0-.35.43-.2.43"/></g></g><g class="cls-21"><g class="cls-34"><path class="cls-23" d="M105.92,61.19h1s-.09-.46-.17-.46h-1s0,.46.16.46"/></g></g></g></g><g class="cls-35"><g class="cls-36"><g class="cls-37"><g class="cls-38"><rect class="cls-39" x="10.05" y="5.17" width="119.3" height="119.27" transform="translate(-25.38 68.96) rotate(-45.42)"/></g></g></g></g><g class="cls-40"><g class="cls-41"><g class="cls-42"><g class="cls-43"><rect class="cls-44" x="0.93" y="1.74" width="127.07" height="126.27" transform="translate(-26.73 57.88) rotate(-40.8)"/></g></g></g></g><path class="cls-45" d="M13.78,83.22a54.06,54.06,0,0,1-2-5.91,55.55,55.55,0,0,1,104.94-36"/><rect class="cls-46" x="40.99" y="12.17" width="1.38" height="15.89" transform="translate(-4.6 20.65) rotate(-26.43)"/><path class="cls-46" d="M81.16,58.5a15.34,15.34,0,0,1-2-1.65,5.32,5.32,0,0,0,1.54.65A10.22,10.22,0,0,1,77.46,55a15,15,0,0,1-1.1-1.67c-.68-1.22-1.19-2.54-1.92-3.73a6.19,6.19,0,0,0-3.06-2.75,3.25,3.25,0,0,0-3.74,1.07,3.45,3.45,0,0,0-3-.62c-1.27.26-2.6.55-3.23.62s-.78,1-.55,1.79l-.4.78a12.89,12.89,0,0,0-1-2.63c-.71-1.34-3.06-4.66-3.93-6.25s-1.81-2.93-2.21-3.92a12.84,12.84,0,0,0-.89-1.79,3.86,3.86,0,0,0-1.06-.86,10.53,10.53,0,0,0-1-3.38c-1.52-3.05-4.05-4.88-5.66-4.09a1.91,1.91,0,0,0-.6.5,2.28,2.28,0,0,0-.63.09,1.34,1.34,0,0,0-.3.12l.76-.38c-1.83-3.69-3.69-9.48-6.68-11.46.83,4.1,3.42,8.22,5.52,11.91a7.23,7.23,0,0,0-.36,8c1.94,3.12,6.08,3.42,8.42,6.19s3.08,7.7,5,10.86a36.08,36.08,0,0,0,4,5.19,7.31,7.31,0,0,1,1.16,2.15,9.44,9.44,0,0,1-.59,1.48c-.66,1.32-2.43,1.58-2.62,3.61a3.83,3.83,0,0,0,1,3.12c.06,0-.15.61-.16.68-.22.74-.56,1.4-.78,2.15a15.42,15.42,0,0,1-.89,2.34,15.79,15.79,0,0,1-1.44,2.44,14.23,14.23,0,0,1-.9,1.15,1.23,1.23,0,0,1-1,.48,20.54,20.54,0,0,0-5,1.47c-2.74,1.2-5.84,3.35-7.16,3.76a9.64,9.64,0,0,0-3,2.06,98.17,98.17,0,0,1-8.89,4.49,19.15,19.15,0,0,1-3.77,1.3A2.8,2.8,0,0,1,23.47,91c-.83-.42-2-.8-2.46-1s-2.73-2.19-3.43-2.17-1.38.11-1,1.38a8.23,8.23,0,0,0,.53,1.24l.63.78a12.42,12.42,0,0,0,1.51,1.2,6.58,6.58,0,0,0,1.76.75c.62.2,1.25.36,1.89.59s1.15.51,1.73.78c1.25-.29,2.5-.6,3.72-1s2.43-1,3.64-1.47,2.41-1.07,3.58-1.65a10.61,10.61,0,0,0,1.68-1,13.33,13.33,0,0,0,1.43-1.3c.46-.46.92-.94,1.42-1.4a8.16,8.16,0,0,1,1.68-1.14c1.15-.65,2.32-1.26,3.51-1.85s2.38-1.16,3.6-1.66a29.08,29.08,0,0,1,3.73-1.34A29.88,29.88,0,0,0,49,82.23c-1.18.58-2.36,1.18-3.52,1.8S43.18,85.29,42.05,86a8.87,8.87,0,0,0-1.57,1.11c-.47.44-.92.92-1.38,1.39a15.12,15.12,0,0,1-1.49,1.38,13.39,13.39,0,0,1-1.74,1c-1.19.59-2.39,1.15-3.61,1.67s-2.43,1-3.71,1.46-2.56.7-3.86,1l-.08,0-.08,0c-.59-.27-1.19-.59-1.76-.84s-1.23-.42-1.85-.64c-.31-.11-.62-.22-.94-.35a5.06,5.06,0,0,1-.88-.49,11.86,11.86,0,0,1-1.54-1.31l-.34-.46a.78.78,0,0,0-.95-.05c-3,2.48,2.31,7.83,4.71,8.21a14.92,14.92,0,0,0,6.48-.92l20-5.93c12.48-3.7,16.86-7.05,21.13-18.71a11.59,11.59,0,0,1,.72-2.21,10.5,10.5,0,0,0,.89-5.34c-.21-2.25-.06-3.1-.65-4.54a19.17,19.17,0,0,1-1.11-3.9c-.06-.62.45-.92.7-1.5s1.54-2.29.16-5.64a8.67,8.67,0,0,0-.64-1.26A1.57,1.57,0,0,1,70,48.77a3.21,3.21,0,0,1,1.34.63,4.52,4.52,0,0,1,.79,2.14c.29,2.2,0,4.4,1.77,6.1a2.67,2.67,0,0,1-.32-.91.66.66,0,0,1,0-.28,3.39,3.39,0,0,0,1.49,2.36,4.63,4.63,0,0,1-1.21-2.57h0a8.86,8.86,0,0,0,4,5,10.47,10.47,0,0,1-.78-.82,5.52,5.52,0,0,0,.69.34,3.43,3.43,0,0,0,3.52-.57A4.92,4.92,0,0,1,79.18,59a3.38,3.38,0,0,0,2.33.23,3.49,3.49,0,0,1-2.63-1.14,4.72,4.72,0,0,0,2.28.44M51.79,41c.65,1.4,1,2.44,1.85,4.76a20.63,20.63,0,0,0,2.42,5.47c1.46,2.44,3.2,5.54,4.36,7.34-1.49-2.15-4.64-6.75-5.16-7.68a21.21,21.21,0,0,1-2-4.58c-.6-2-2.26-6.17-2.26-6.17-.19-.08-.37-.21-.56-.28s-.35-.05-.43-.24a.34.34,0,0,1,.08-.37l.08-.05a2.81,2.81,0,0,0,.31.25c.75.49.62.14,1.28,1.55"/><path class="cls-46" d="M36.64,150.79a6.53,6.53,0,0,1-4-2.07,18,18,0,0,1-2.83-4.2,94.39,94.39,0,0,1-6.77-15c-.26-.78-.4-1.85.32-2.26a1.43,1.43,0,0,1,1.66.26c11.75,12.86,12.91,12.09,13.74,11.68s1.31-2.2,1.61-2.89c.83-2,1.35-4.07,2.19-6,1.11-2.55,2-6.36,4.31-8.14,1.16-.91,3-1.08,4,0s.51,3.14-.11,4.65l-4.53,11c-.68,1.65-1.49,3.29-2.11,4.95a22.81,22.81,0,0,1-2,5,6.43,6.43,0,0,1-5,3.11h-.43"/><path class="cls-46" d="M57.38,121.37a2.41,2.41,0,0,1,1.8.74,2.45,2.45,0,0,1,.76,1.82,2.49,2.49,0,0,1-.76,1.82,2.44,2.44,0,0,1-1.8.73,2.55,2.55,0,0,1-1.82-4.37,2.44,2.44,0,0,1,1.82-.74m0,30.77c2.11.05,2.72-4.92,2.7-6.61,0-2,1-21.51-4.51-16a2.49,2.49,0,0,0-.76,1.82v18a2.42,2.42,0,0,0,.76,1.82h0a2.8,2.8,0,0,0,1.81,1"/><path class="cls-46" d="M74.37,130.19a10.82,10.82,0,0,1,4.14,20.35,9,9,0,0,1-8.51.2,9.93,9.93,0,0,1-4.22-5.34,24.62,24.62,0,0,1-1.15-6.83,94.83,94.83,0,0,1,0-11.68c.77-12.75,8,2.69,4.91,3.85a10.34,10.34,0,0,1,4.83-.55M79,139.41a4.58,4.58,0,0,0-4.54-4.54h-.07a4.41,4.41,0,0,0-3.23,1.34,4.37,4.37,0,0,0-1.33,3.2v3A4.56,4.56,0,0,0,74.34,147h.07A4.58,4.58,0,0,0,79,142.43Z"/><path class="cls-46" d="M89.75,121.38a2.4,2.4,0,0,1,1.8.73,2.45,2.45,0,0,1,.76,1.82,2.56,2.56,0,1,1-2.56-2.55m0,30.79c2.15,0,2.45-5.55,2.55-7,.2-2.92,2-16.41-2.56-16.41a2.46,2.46,0,0,0-1.82.76,2.53,2.53,0,0,0-.76,1.83v17.95a2.46,2.46,0,0,0,.76,1.82,2.85,2.85,0,0,0,1.83,1.07"/></g></g></svg>