<svg xmlns="http://www.w3.org/2000/svg" xmlns:xlink="http://www.w3.org/1999/xlink" viewBox="0 0 128.48 178.67"><defs><style>.cls-1{fill:url(#Degradado_sin_nombre_10);}.cls-2{fill:url(#Degradado_sin_nombre_5);}.cls-3{fill:url(#Degradado_sin_nombre_7);}.cls-4{fill:url(#Degradado_sin_nombre_9);}.cls-5{fill:url(#Degradado_sin_nombre_7-2);}.cls-6{fill:url(#Degradado_sin_nombre_9-2);}.cls-7{fill:url(#Degradado_sin_nombre_5-2);}.cls-8{fill:url(#Degradado_sin_nombre_7-3);}.cls-9{fill:url(#Degradado_sin_nombre_9-3);}.cls-10,.cls-50{fill:none;}.cls-11{isolation:isolate;}.cls-12,.cls-24,.cls-40{mix-blend-mode:multiply;}.cls-13{clip-path:url(#clip-path);}.cls-14{clip-path:url(#clip-path-2);}.cls-15{mask:url(#mask);}.cls-16{fill:url(#Degradado_sin_nombre_2);}.cls-17{clip-path:url(#clip-path-3);}.cls-18{fill:url(#Degradado_sin_nombre_3);}.cls-19{opacity:0.21;mix-blend-mode:lighten;}.cls-20{clip-path:url(#clip-path-4);}.cls-21{clip-path:url(#clip-path-5);}.cls-22{mask:url(#mask-2);}.cls-23{fill:url(#Degradado_sin_nombre_4);}.cls-24{opacity:0.17;}.cls-25{clip-path:url(#clip-path-6);}.cls-26{opacity:0.11;}.cls-27{clip-path:url(#clip-path-7);}.cls-28{fill:#ab7719;}.cls-29{clip-path:url(#clip-path-8);}.cls-30{clip-path:url(#clip-path-9);}.cls-31{clip-path:url(#clip-path-10);}.cls-32{clip-path:url(#clip-path-11);}.cls-33{clip-path:url(#clip-path-12);}.cls-34{clip-path:url(#clip-path-13);}.cls-35{clip-path:url(#clip-path-14);}.cls-36{clip-path:url(#clip-path-15);}.cls-37{clip-path:url(#clip-path-16);}.cls-38{clip-path:url(#clip-path-17);}.cls-39{clip-path:url(#clip-path-18);}.cls-40{opacity:0.44;}.cls-41{clip-path:url(#clip-path-19);}.cls-42{clip-path:url(#clip-path-20);}.cls-43{mask:url(#mask-3);}.cls-44{fill:url(#Degradado_sin_nombre_6);}.cls-45{opacity:0.96;}.cls-46{clip-path:url(#clip-path-21);}.cls-47{clip-path:url(#clip-path-22);}.cls-48{mask:url(#mask-4);}.cls-49{fill:url(#Degradado_sin_nombre_8);}.cls-50{stroke:#f3c213;stroke-linecap:round;stroke-miterlimit:10;stroke-width:0.55px;}.cls-51{fill:#1d1d1b;}.cls-52{clip-path:url(#clip-path-23);}.cls-53{clip-path:url(#clip-path-24);}.cls-54{mask:url(#mask-5);}.cls-55{fill:url(#Degradado_sin_nombre_6-2);}.cls-56{clip-path:url(#clip-path-25);}.cls-57{clip-path:url(#clip-path-26);}.cls-58{mask:url(#mask-6);}.cls-59{fill:url(#Degradado_sin_nombre_8-2);}.cls-60{clip-path:url(#clip-path-27);}.cls-61{clip-path:url(#clip-path-28);}.cls-62{mask:url(#mask-7);}.cls-63{fill:url(#Degradado_sin_nombre_4-2);}.cls-64{clip-path:url(#clip-path-29);}.cls-65{clip-path:url(#clip-path-30);}.cls-66{mask:url(#mask-8);}.cls-67{fill:url(#Degradado_sin_nombre_6-3);}.cls-68{clip-path:url(#clip-path-31);}.cls-69{clip-path:url(#clip-path-32);}.cls-70{mask:url(#mask-9);}.cls-71{fill:url(#Degradado_sin_nombre_8-3);}</style><radialGradient id="Degradado_sin_nombre_10" cx="-5361.64" cy="1518.35" r="1.88" gradientTransform="matrix(24.39, 0, 0, -24.39, 130830.52, 37116.63)" gradientUnits="userSpaceOnUse"><stop offset="0" stop-color="#fff"/><stop offset="0.1" stop-color="#fafafa"/><stop offset="0.23" stop-color="#ececec"/><stop offset="0.36" stop-color="#d4d4d4"/><stop offset="0.5" stop-color="#b3b3b3"/><stop offset="0.64" stop-color="#888"/><stop offset="0.79" stop-color="#535353"/><stop offset="0.94" stop-color="#171717"/><stop offset="0.99"/><stop offset="1"/></radialGradient><linearGradient id="Degradado_sin_nombre_5" x1="-5420.58" y1="1718.78" x2="-5418.7" y2="1718.78" gradientTransform="matrix(0, 18.82, 18.82, 0, -32316.76, 102086.33)" gradientUnits="userSpaceOnUse"><stop offset="0" stop-color="#fff"/><stop offset="1" stop-color="#1a1a1a"/></linearGradient><linearGradient id="Degradado_sin_nombre_7" x1="-5402.26" y1="1740.23" x2="-5400.38" y2="1740.23" gradientTransform="matrix(0, 17.24, 17.24, 0, -29934.93, 93211.22)" gradientUnits="userSpaceOnUse"><stop offset="0" stop-color="#4d4d4d"/><stop offset="0.1" stop-color="#4d4d4d"/><stop offset="0.2" stop-color="#535353"/><stop offset="0.35" stop-color="#656565"/><stop offset="0.51" stop-color="#818181"/><stop offset="0.69" stop-color="#a9a9a9"/><stop offset="0.88" stop-color="#dcdcdc"/><stop offset="1" stop-color="#fff"/></linearGradient><linearGradient id="Degradado_sin_nombre_9" x1="-5480.24" y1="1657.06" x2="-5478.36" y2="1657.06" gradientTransform="matrix(0, 26.44, 26.44, 0, -43760.54, 144995.29)" gradientUnits="userSpaceOnUse"><stop offset="0"/><stop offset="0.02"/><stop offset="0.03" stop-color="#030303"/><stop offset="0.29" stop-color="#404040"/><stop offset="0.48" stop-color="#666"/><stop offset="0.58" stop-color="#757575"/><stop offset="0.9" stop-color="#f1f1f1"/><stop offset="1" stop-color="#f1f1f1"/></linearGradient><linearGradient id="Degradado_sin_nombre_7-2" x1="-5402.26" y1="1740.14" x2="-5400.38" y2="1740.14" gradientTransform="matrix(0, 17.24, 17.24, 0, -30066.84, 93212.29)" xlink:href="#Degradado_sin_nombre_7"/><linearGradient id="Degradado_sin_nombre_9-2" x1="-5480.24" y1="1657" x2="-5478.36" y2="1657" gradientTransform="matrix(0, 26.44, 26.44, 0, -43892.46, 144996.24)" xlink:href="#Degradado_sin_nombre_9"/><linearGradient id="Degradado_sin_nombre_5-2" x1="-5420.61" y1="1718.91" x2="-5418.73" y2="1718.91" gradientTransform="matrix(0, 18.82, 18.82, 0, -32183.72, 102084.73)" xlink:href="#Degradado_sin_nombre_5"/><linearGradient id="Degradado_sin_nombre_7-3" x1="-5402.29" y1="1740.37" x2="-5400.41" y2="1740.37" gradientTransform="matrix(0, 17.24, 17.24, 0, -29801.81, 93209.64)" xlink:href="#Degradado_sin_nombre_7"/><linearGradient id="Degradado_sin_nombre_9-3" x1="-5480.27" y1="1657.15" x2="-5478.39" y2="1657.15" gradientTransform="matrix(0, 26.44, 26.44, 0, -43627.36, 144993.91)" xlink:href="#Degradado_sin_nombre_9"/><clipPath id="clip-path"><rect class="cls-10" x="22.76" y="41.13" width="92.53" height="90.98"/></clipPath><clipPath id="clip-path-2"><path class="cls-10" d="M115.29,86.62c0,25.13-20.71,45.49-46.26,45.49S22.76,111.75,22.76,86.62,43.48,41.13,69,41.13s46.26,20.37,46.26,45.49"/></clipPath><mask id="mask" x="22.76" y="41.13" width="92.53" height="90.98" maskUnits="userSpaceOnUse"><rect class="cls-1" x="22.76" y="41.13" width="92.53" height="90.98"/></mask><radialGradient id="Degradado_sin_nombre_2" cx="-5361.64" cy="1518.35" r="1.88" gradientTransform="matrix(24.39, 0, 0, -24.39, 130830.53, 37116.64)" gradientUnits="userSpaceOnUse"><stop offset="0" stop-color="#fff"/><stop offset="0.11" stop-color="#fafafa"/><stop offset="0.24" stop-color="#ececec"/><stop offset="0.38" stop-color="#d4d4d4"/><stop offset="0.53" stop-color="#b3b3b3"/><stop offset="0.68" stop-color="#898988"/><stop offset="0.84" stop-color="#565654"/><stop offset="0.99" stop-color="#1d1d1b"/><stop offset="1" stop-color="#1d1d1b"/></radialGradient><clipPath id="clip-path-3"><path class="cls-10" d="M14.41,77.89c.13,25.2,21.38,45.78,45.57,45.58A45.58,45.58,0,1,0,14.41,77.89"/></clipPath><linearGradient id="Degradado_sin_nombre_3" x1="-5472.95" y1="1497.32" x2="-5471.07" y2="1497.32" gradientTransform="matrix(48.45, 0, 0, -48.45, 265195.53, 72627.8)" gradientUnits="userSpaceOnUse"><stop offset="0" stop-color="#f4d265"/><stop offset="0.06" stop-color="#f4d15f"/><stop offset="0.14" stop-color="#f4cd4d"/><stop offset="0.24" stop-color="#f3c831"/><stop offset="0.32" stop-color="#f3c213"/><stop offset="0.73" stop-color="#f2b509"/><stop offset="1" stop-color="#f1aa00"/><stop offset="1" stop-color="#f1aa00"/></linearGradient><clipPath id="clip-path-4"><rect class="cls-10" x="19.67" y="37.95" width="34.85" height="61.82"/></clipPath><clipPath id="clip-path-5"><path class="cls-10" d="M32.92,99.27a1.75,1.75,0,0,0,.22-.55c.29-1.17-1.53-3.16-2.13-4-6.1-8.85-4.35-19.92.6-28.83A40.35,40.35,0,0,1,42,53.52c3.76-2.91,10.68-5.22,12.31-10.05l0,0a4,4,0,0,0,.18-1c.18-3-3.07-4.92-5.75-4.42a12,12,0,0,0-4.4,2.08C31.18,48.85,18.59,62,19.74,79c.53,7.84,4.35,15.56,10.74,20.14.9.64,1.92.92,2.44.1"/></clipPath><mask id="mask-2" x="-12.69" y="19.48" width="98.65" height="98.65" maskUnits="userSpaceOnUse"><rect class="cls-2" x="1.76" y="33.93" width="69.76" height="69.76" transform="translate(-37.93 46.06) rotate(-45)"/></mask><linearGradient id="Degradado_sin_nombre_4" x1="-5420.58" y1="1718.78" x2="-5418.7" y2="1718.78" gradientTransform="matrix(0, 18.82, 18.82, 0, -32316.76, 102086.33)" gradientUnits="userSpaceOnUse"><stop offset="0" stop-color="#fff"/><stop offset="1" stop-color="#fff"/></linearGradient><clipPath id="clip-path-6"><rect class="cls-10" x="100.14" y="74.85" width="3.46" height="2.68"/></clipPath><clipPath id="clip-path-7"><rect class="cls-10" x="101.55" y="77.24" width="1.44" height="0.2"/></clipPath><clipPath id="clip-path-8"><rect class="cls-10" x="100.38" y="76.52" width="1.28" height="0.49"/></clipPath><clipPath id="clip-path-9"><rect class="cls-10" x="100.72" y="75.08" width="1.42" height="0.22"/></clipPath><clipPath id="clip-path-10"><rect class="cls-10" x="102.08" y="76.13" width="1.52" height="0.51"/></clipPath><clipPath id="clip-path-11"><rect class="cls-10" x="101.51" y="74.99" width="1.45" height="0.18"/></clipPath><clipPath id="clip-path-12"><rect class="cls-10" x="100.14" y="75.86" width="1.08" height="0.49"/></clipPath><clipPath id="clip-path-13"><rect class="cls-10" x="100.88" y="77.38" width="1.44" height="0.15"/></clipPath><clipPath id="clip-path-14"><rect class="cls-10" x="102.31" y="75.88" width="1.17" height="0.49"/></clipPath><clipPath id="clip-path-15"><rect class="cls-10" x="100.4" y="75.42" width="1.29" height="0.41"/></clipPath><clipPath id="clip-path-16"><rect class="cls-10" x="101.04" y="74.85" width="1.42" height="0.49"/></clipPath><clipPath id="clip-path-17"><rect class="cls-10" x="102.1" y="76.6" width="1.29" height="0.43"/></clipPath><clipPath id="clip-path-18"><rect class="cls-10" x="100.2" y="76.42" width="1.16" height="0.47"/></clipPath><clipPath id="clip-path-19"><rect class="cls-10" x="22.76" y="37.54" width="82.77" height="85.93"/></clipPath><clipPath id="clip-path-20"><path class="cls-10" d="M81.15,37.54a45.58,45.58,0,0,1-58.39,66.69A45.58,45.58,0,1,0,81.15,37.54"/></clipPath><mask id="mask-3" x="-20.2" y="-3.84" width="168.69" height="168.69" maskUnits="userSpaceOnUse"><rect class="cls-3" x="4.5" y="20.87" width="119.3" height="119.27" transform="translate(-38.22 69.69) rotate(-45.42)"/></mask><linearGradient id="Degradado_sin_nombre_6" x1="-5402.26" y1="1740.23" x2="-5400.38" y2="1740.23" gradientTransform="matrix(0, 17.24, 17.24, 0, -29934.93, 93211.22)" gradientUnits="userSpaceOnUse"><stop offset="0" stop-color="#fff"/><stop offset="0.1" stop-color="#fff"/><stop offset="0.19" stop-color="#f9f9f9"/><stop offset="0.31" stop-color="#e8e8e7"/><stop offset="0.45" stop-color="#cbcbcb"/><stop offset="0.6" stop-color="#a3a3a3"/><stop offset="0.77" stop-color="#70706f"/><stop offset="0.94" stop-color="#333331"/><stop offset="1" stop-color="#1d1d1b"/></linearGradient><clipPath id="clip-path-21"><rect class="cls-10" x="21.29" y="37.61" width="84.24" height="85.93"/></clipPath><clipPath id="clip-path-22"><path class="cls-10" d="M81.15,37.61c-35.69,4-69.08,43.66-57.53,66.69,2.75,5.49,10.34,12.14,18.23,15.43A51.9,51.9,0,0,0,60,123.54c11.49,0,17.94-3,24.84-7.36,14.38-9.06,21-25.54,20.73-38.22A46.13,46.13,0,0,0,81.15,37.61"/></clipPath><mask id="mask-4" x="-30.44" y="-8.73" width="178.7" height="178.61" maskUnits="userSpaceOnUse"><rect class="cls-4" x="-4.63" y="17.44" width="127.07" height="126.27" transform="translate(-38.33 58.07) rotate(-40.8)"/></mask><linearGradient id="Degradado_sin_nombre_8" x1="-5480.24" y1="1657.06" x2="-5478.36" y2="1657.06" gradientTransform="matrix(0, 26.44, 26.44, 0, -43760.52, 144995.3)" gradientUnits="userSpaceOnUse"><stop offset="0" stop-color="#c38714"/><stop offset="0.02" stop-color="#c38714"/><stop offset="0.19" stop-color="#ca8f13"/><stop offset="0.58" stop-color="#d59e11"/><stop offset="0.9" stop-color="#f1c012"/><stop offset="1" stop-color="#f1c012"/></linearGradient><clipPath id="clip-path-23"><rect class="cls-10" x="-110.67" y="38.62" width="82.77" height="85.93"/></clipPath><clipPath id="clip-path-24"><path class="cls-10" d="M-52.27,38.62A45.36,45.36,0,0,1-43.9,65a45.58,45.58,0,0,1-45.57,45.58,45.46,45.46,0,0,1-21.2-5.22,45.53,45.53,0,0,0,37.2,19.24A45.58,45.58,0,0,0-27.89,79,45.56,45.56,0,0,0-52.27,38.62"/></clipPath><mask id="mask-5" x="-153.63" y="-2.77" width="168.69" height="168.69" maskUnits="userSpaceOnUse"><rect class="cls-5" x="-128.93" y="21.95" width="119.3" height="119.27" transform="translate(-78.76 -25.03) rotate(-45.42)"/></mask><linearGradient id="Degradado_sin_nombre_6-2" x1="-5402.26" y1="1740.14" x2="-5400.38" y2="1740.14" gradientTransform="matrix(0, 17.24, 17.24, 0, -30066.84, 93212.29)" xlink:href="#Degradado_sin_nombre_6"/><clipPath id="clip-path-25"><rect class="cls-10" x="-112.13" y="38.68" width="84.25" height="85.93"/></clipPath><clipPath id="clip-path-26"><path class="cls-10" d="M-52.27,38.68c-35.7,4.06-69.09,43.67-57.54,66.7,2.76,5.48,10.34,12.14,18.24,15.43a51.74,51.74,0,0,0,18.1,3.8c11.49,0,17.94-3,24.84-7.35,14.38-9.06,21-25.54,20.74-38.22A46.19,46.19,0,0,0-52.27,38.68"/></clipPath><mask id="mask-6" x="-163.87" y="-7.66" width="178.7" height="178.62" maskUnits="userSpaceOnUse"><rect class="cls-6" x="-138.06" y="18.52" width="127.07" height="126.27" transform="translate(-71.46 -28.85) rotate(-40.8)"/></mask><linearGradient id="Degradado_sin_nombre_8-2" x1="-5480.24" y1="1657" x2="-5478.36" y2="1657" gradientTransform="matrix(0, 26.44, 26.44, 0, -43892.45, 144996.24)" xlink:href="#Degradado_sin_nombre_8"/><clipPath id="clip-path-27"><rect class="cls-10" x="155.2" y="35.86" width="34.85" height="61.82"/></clipPath><clipPath id="clip-path-28"><path class="cls-10" d="M168.45,97.18a1.75,1.75,0,0,0,.22-.55c.3-1.17-1.53-3.16-2.13-4-6.09-8.85-4.34-19.92.6-28.83a40.63,40.63,0,0,1,10.39-12.34c3.76-2.91,10.69-5.21,12.32-10,0,0,0,0,0-.05a3.54,3.54,0,0,0,.18-1c.18-3-3.07-4.92-5.75-4.42A12.15,12.15,0,0,0,179.9,38c-13.18,8.74-25.78,21.89-24.63,38.92.54,7.84,4.36,15.57,10.74,20.14.9.64,1.93.92,2.44.1"/></clipPath><mask id="mask-7" x="122.84" y="17.39" width="98.65" height="98.65" maskUnits="userSpaceOnUse"><rect class="cls-7" x="137.29" y="31.84" width="69.76" height="69.76" transform="translate(3.25 141.28) rotate(-45)"/></mask><linearGradient id="Degradado_sin_nombre_4-2" x1="-5420.61" y1="1718.91" x2="-5418.73" y2="1718.91" gradientTransform="matrix(0, 18.82, 18.82, 0, -32183.73, 102084.74)" xlink:href="#Degradado_sin_nombre_4"/><clipPath id="clip-path-29"><rect class="cls-10" x="158.3" y="35.45" width="82.77" height="85.93"/></clipPath><clipPath id="clip-path-30"><path class="cls-10" d="M216.69,35.45a45.58,45.58,0,0,1-58.39,66.69,45.58,45.58,0,1,0,58.39-66.69"/></clipPath><mask id="mask-8" x="115.34" y="-5.93" width="168.69" height="168.69" maskUnits="userSpaceOnUse"><rect class="cls-8" x="140.03" y="18.78" width="119.3" height="119.27" transform="translate(3.67 165.6) rotate(-45.42)"/></mask><linearGradient id="Degradado_sin_nombre_6-3" x1="-5402.29" y1="1740.37" x2="-5400.41" y2="1740.37" gradientTransform="matrix(0, 17.24, 17.24, 0, -29801.81, 93209.64)" xlink:href="#Degradado_sin_nombre_6"/><clipPath id="clip-path-31"><rect class="cls-10" x="156.83" y="35.52" width="84.24" height="85.93"/></clipPath><clipPath id="clip-path-32"><path class="cls-10" d="M216.69,35.52c-35.69,4-69.09,43.66-57.53,66.7,2.75,5.48,10.33,12.14,18.23,15.42a51.82,51.82,0,0,0,18.1,3.81c11.5,0,17.95-3,24.84-7.36,14.38-9.06,21-25.54,20.74-38.22a46.16,46.16,0,0,0-24.38-40.35"/></clipPath><mask id="mask-9" x="105.09" y="-10.82" width="178.7" height="178.61" maskUnits="userSpaceOnUse"><rect class="cls-9" x="130.91" y="15.35" width="127.07" height="126.27" transform="translate(-4.03 146.12) rotate(-40.8)"/></mask><linearGradient id="Degradado_sin_nombre_8-3" x1="-5480.27" y1="1657.15" x2="-5478.39" y2="1657.15" gradientTransform="matrix(0, 26.44, 26.44, 0, -43627.36, 144993.91)" xlink:href="#Degradado_sin_nombre_8"/></defs><title>iconos</title><g class="cls-11"><g id="Capa_1" data-name="Capa 1"><g class="cls-12"><g class="cls-13"><g class="cls-14"><g class="cls-15"><rect class="cls-16" x="22.76" y="41.13" width="92.53" height="90.98"/></g></g></g></g><g class="cls-17"><rect class="cls-18" x="14.28" y="32.32" width="91.28" height="91.35"/></g><g class="cls-19"><g class="cls-20"><g class="cls-21"><g class="cls-22"><rect class="cls-23" x="1.76" y="33.93" width="69.76" height="69.76" transform="translate(-37.93 46.06) rotate(-45)"/></g></g></g></g><g class="cls-24"><g class="cls-25"><g class="cls-26"><g class="cls-27"><path class="cls-28" d="M101.6,77.44h1a3.3,3.3,0,0,0,.43-.18l-1,0c-.08,0-.52.2-.34.2"/></g></g><g class="cls-26"><g class="cls-29"><path class="cls-28" d="M100.64,77h.91c.24,0,0-.48-.1-.47h-.94c-.28,0-.07.48.13.48"/></g></g><g class="cls-26"><g class="cls-30"><path class="cls-28" d="M100.72,75.3l1,0c.12,0,.37-.2.42-.2h-1a1.12,1.12,0,0,0-.42.22"/></g></g><g class="cls-26"><g class="cls-31"><path class="cls-28" d="M102.66,76.64h.78c.26,0,.2-.49-.12-.5h-1c-.54,0-.06.51.34.51"/></g></g><g class="cls-26"><g class="cls-32"><path class="cls-28" d="M101.91,75.17l1,0a3.36,3.36,0,0,0-.45-.15h-1c-.17,0,.28.18.36.18"/></g></g><g class="cls-26"><g class="cls-33"><path class="cls-28" d="M100.16,76.35h1a2.05,2.05,0,0,0,.06-.49h-1c-.09,0-.12.49-.07.49"/></g></g><g class="cls-26"><g class="cls-34"><path class="cls-28" d="M101.28,77.53h1c-.07,0-.32-.11-.45-.12l-1,0c-.16,0,.29.15.37.15"/></g></g><g class="cls-26"><g class="cls-35"><path class="cls-28" d="M102.46,76.38h1c.06,0,0-.5-.07-.5h-1c-.14,0-.09.5.07.5"/></g></g><g class="cls-26"><g class="cls-36"><path class="cls-28" d="M100.42,75.83l1,0c.12,0,.24-.39.3-.39h-1c-.09,0-.35.41-.25.41"/></g></g><g class="cls-26"><g class="cls-37"><path class="cls-28" d="M101.3,75.34l.83,0c.1,0,.52-.29.23-.32l-1-.11c-.42,0-.46.51-.08.48"/></g></g><g class="cls-26"><g class="cls-38"><path class="cls-28" d="M102.14,77h1c.13,0,.25-.42.27-.42h-1c-.09,0-.35.43-.2.43"/></g></g><g class="cls-26"><g class="cls-39"><path class="cls-28" d="M100.37,76.89h1s-.08-.47-.16-.47h-1s.06.47.17.47"/></g></g></g></g><g class="cls-40"><g class="cls-41"><g class="cls-42"><g class="cls-43"><rect class="cls-44" x="4.5" y="20.87" width="119.3" height="119.27" transform="translate(-38.22 69.69) rotate(-45.42)"/></g></g></g></g><g class="cls-45"><g class="cls-46"><g class="cls-47"><g class="cls-48"><rect class="cls-49" x="-4.63" y="17.44" width="127.07" height="126.27" transform="translate(-38.33 58.07) rotate(-40.8)"/></g></g></g></g><path class="cls-50" d="M8.22,98.92a58.67,58.67,0,0,1-2-5.91,55.55,55.55,0,0,1,105-36"/><path class="cls-51" d="M122.14,44.37c-2.5-1.57-8.06-2.3-10.82,0a15,15,0,0,0-2.62,3.4c-5.07,7.69-13.1,12.84-20.88,17.76l-7.33,4.63C73.59,74.55,59.87,77,57.8,85.51c.63-2.62-19.28.67-8.77,7.8a5.82,5.82,0,0,0,2.43.77,2.08,2.08,0,0,1,.73-.18c.35,0,.3-.1.89.42s1,.94,1.37.8.35-.8.52-.91a3.25,3.25,0,0,1,.74-.17c.38,0,.48-.14.48-.14.45.38.45.07.91,0a4.48,4.48,0,0,0,1.66-.66c.39-.28.46-1.33.73-1.64A8.9,8.9,0,0,1,62.31,90a4.87,4.87,0,0,1,2.75,0A6.57,6.57,0,0,0,68,89.52,6.83,6.83,0,0,0,73.05,88c.87-.49.39-.45,1.39-.66a3.85,3.85,0,0,0,1.78-1c.34.66,1.14.94,1.53,1.8a6.07,6.07,0,0,1,.55,2.51c-.1.28-.66.21-1.18.52s-.83.24-1.08,1a3.13,3.13,0,0,0-.08.4H70.81c-5.2,0-8.82,10.6-3.91,10.41-2-3.51.81-8.62,4.81-8.93a6.26,6.26,0,0,0-2.09,9,7,7,0,0,1,11.06-6.83,17,17,0,0,0,.68-2.2.06.06,0,0,1,0,0c0,.05,0,.12.07.19a1.79,1.79,0,0,1,0,1.13h5.4A3.73,3.73,0,0,1,90.54,99v3.86H92V99a5.16,5.16,0,0,0-3.4-4.84h0a4.27,4.27,0,0,1,4.27,4.27v4.43h1.66V98.46a5.94,5.94,0,0,0-5.93-5.93H82.78a1.85,1.85,0,0,1-.59.66c-.51.35-.7.46-.78.54a17.66,17.66,0,0,0-.72-10.12A36.69,36.69,0,0,0,99.91,71.72a31.19,31.19,0,0,1,22-23.2,14.08,14.08,0,0,0-4.06.66c.76-.29,1.52-.56,2.3-.79,4.05-1.19,3.91-2.84,2-4m-42.91,35A16.76,16.76,0,0,1,85,73a27.32,27.32,0,0,0-5.8,6.31"/><path class="cls-51" d="M82.6,71.34a.29.29,0,0,0,.18.19l.22-.15a3.64,3.64,0,0,0,.35-.28,1.66,1.66,0,0,0,.29-.46,1,1,0,0,0,0-.61,6.35,6.35,0,0,0-.83.11.75.75,0,0,0-.42.37,1.2,1.2,0,0,0,0,.56.74.74,0,0,1,.12.27"/><path class="cls-51" d="M38.29,163.09a6.61,6.61,0,0,1-4-2.06,18.18,18.18,0,0,1-2.82-4.2,94.39,94.39,0,0,1-6.77-15c-.26-.79-.41-1.86.32-2.26a1.44,1.44,0,0,1,1.66.25c11.74,12.86,12.91,12.1,13.74,11.69s1.31-2.21,1.6-2.9c.84-2,1.35-4.06,2.2-6,1.1-2.56,2-6.36,4.3-8.14,1.17-.91,3.05-1.09,4,0s.52,3.13-.1,4.65l-4.54,11c-.68,1.65-1.49,3.29-2.11,4.94a22.29,22.29,0,0,1-2,5,6.41,6.41,0,0,1-5,3.11,3.12,3.12,0,0,1-.43,0"/><path class="cls-51" d="M59,133.67a2.48,2.48,0,0,1,1.8.74,2.53,2.53,0,0,1,.76,1.82A2.56,2.56,0,0,1,59,138.79a2.56,2.56,0,1,1,0-5.12m0,30.77c2.11.06,2.73-4.92,2.71-6.61,0-2,1-21.51-4.51-16a2.47,2.47,0,0,0-.76,1.82v18a2.41,2.41,0,0,0,.76,1.82h0a2.8,2.8,0,0,0,1.8,1"/><path class="cls-51" d="M76,142.5a10.82,10.82,0,0,1,4.13,20.35,9.07,9.07,0,0,1-8.51.19,9.84,9.84,0,0,1-4.21-5.34,24.27,24.27,0,0,1-1.16-6.83,98.77,98.77,0,0,1,0-11.67c.78-12.76,8,2.68,4.91,3.85A10.36,10.36,0,0,1,76,142.5m4.57,9.22a4.56,4.56,0,0,0-4.53-4.54H76a4.41,4.41,0,0,0-3.23,1.34,4.36,4.36,0,0,0-1.34,3.2v3A4.58,4.58,0,0,0,76,159.3h.07a4.56,4.56,0,0,0,4.53-4.56Z"/><path class="cls-51" d="M91.41,133.68a2.4,2.4,0,0,1,1.8.73,2.51,2.51,0,0,1,.76,1.82,2.57,2.57,0,1,1-2.56-2.55m0,30.79c2.14,0,2.45-5.54,2.55-7,.19-2.92,2-16.41-2.56-16.41a2.42,2.42,0,0,0-1.82.76,2.47,2.47,0,0,0-.76,1.82v18a2.42,2.42,0,0,0,.76,1.82,2.79,2.79,0,0,0,1.83,1.07"/><g class="cls-40"><g class="cls-52"><g class="cls-53"><g class="cls-54"><rect class="cls-55" x="-128.93" y="21.95" width="119.3" height="119.27" transform="translate(-78.76 -25.03) rotate(-45.42)"/></g></g></g></g><g class="cls-45"><g class="cls-56"><g class="cls-57"><g class="cls-58"><rect class="cls-59" x="-138.06" y="18.52" width="127.07" height="126.27" transform="translate(-71.46 -28.85) rotate(-40.8)"/></g></g></g></g><g class="cls-19"><g class="cls-60"><g class="cls-61"><g class="cls-62"><rect class="cls-63" x="137.29" y="31.84" width="69.76" height="69.76" transform="translate(3.25 141.28) rotate(-45)"/></g></g></g></g><g class="cls-40"><g class="cls-64"><g class="cls-65"><g class="cls-66"><rect class="cls-67" x="140.03" y="18.78" width="119.3" height="119.27" transform="translate(3.67 165.6) rotate(-45.42)"/></g></g></g></g><g class="cls-45"><g class="cls-68"><g class="cls-69"><g class="cls-70"><rect class="cls-71" x="130.91" y="15.35" width="127.07" height="126.27" transform="translate(-4.03 146.12) rotate(-40.8)"/></g></g></g></g></g></g></svg>