<svg xmlns="http://www.w3.org/2000/svg" xmlns:xlink="http://www.w3.org/1999/xlink" viewBox="0 0 123.48 161.67"><defs><style>.cls-1{fill:url(#Degradado_sin_nombre_5);}.cls-2{fill:url(#Degradado_sin_nombre_7);}.cls-3{fill:url(#Degradado_sin_nombre_9);}.cls-4{fill:url(#Degradado_sin_nombre_10);}.cls-5{fill:url(#Degradado_sin_nombre_5-2);}.cls-6{fill:url(#Degradado_sin_nombre_7-2);}.cls-7{fill:url(#Degradado_sin_nombre_9-2);}.cls-60,.cls-8{fill:none;}.cls-9{isolation:isolate;}.cls-10{opacity:0.21;mix-blend-mode:lighten;}.cls-11{clip-path:url(#clip-path);}.cls-12{clip-path:url(#clip-path-2);}.cls-13{mask:url(#mask);}.cls-14{fill:url(#Degradado_sin_nombre_4);}.cls-15{opacity:0.44;}.cls-15,.cls-25,.cls-36{mix-blend-mode:multiply;}.cls-16{clip-path:url(#clip-path-3);}.cls-17{clip-path:url(#clip-path-4);}.cls-18{mask:url(#mask-2);}.cls-19{fill:url(#Degradado_sin_nombre_6);}.cls-20{opacity:0.96;}.cls-21{clip-path:url(#clip-path-5);}.cls-22{clip-path:url(#clip-path-6);}.cls-23{mask:url(#mask-3);}.cls-24{fill:url(#Degradado_sin_nombre_8);}.cls-26{clip-path:url(#clip-path-7);}.cls-27{clip-path:url(#clip-path-8);}.cls-28{mask:url(#mask-4);}.cls-29{fill:url(#Degradado_sin_nombre_2);}.cls-30{clip-path:url(#clip-path-9);}.cls-31{fill:url(#Degradado_sin_nombre_3);}.cls-32{clip-path:url(#clip-path-10);}.cls-33{clip-path:url(#clip-path-11);}.cls-34{mask:url(#mask-5);}.cls-35{fill:url(#Degradado_sin_nombre_4-2);}.cls-36{opacity:0.17;}.cls-37{clip-path:url(#clip-path-12);}.cls-38{opacity:0.11;}.cls-39{clip-path:url(#clip-path-13);}.cls-40{fill:#ab7719;}.cls-41{clip-path:url(#clip-path-14);}.cls-42{clip-path:url(#clip-path-15);}.cls-43{clip-path:url(#clip-path-16);}.cls-44{clip-path:url(#clip-path-17);}.cls-45{clip-path:url(#clip-path-18);}.cls-46{clip-path:url(#clip-path-19);}.cls-47{clip-path:url(#clip-path-20);}.cls-48{clip-path:url(#clip-path-21);}.cls-49{clip-path:url(#clip-path-22);}.cls-50{clip-path:url(#clip-path-23);}.cls-51{clip-path:url(#clip-path-24);}.cls-52{clip-path:url(#clip-path-25);}.cls-53{clip-path:url(#clip-path-26);}.cls-54{mask:url(#mask-6);}.cls-55{fill:url(#Degradado_sin_nombre_6-2);}.cls-56{clip-path:url(#clip-path-27);}.cls-57{clip-path:url(#clip-path-28);}.cls-58{mask:url(#mask-7);}.cls-59{fill:url(#Degradado_sin_nombre_8-2);}.cls-60{stroke:#f3c213;stroke-linecap:round;stroke-miterlimit:10;stroke-width:0.55px;}.cls-61{fill:#1d1d1b;}</style><linearGradient id="Degradado_sin_nombre_5" x1="-5285.1" y1="1704.78" x2="-5283.22" y2="1704.78" gradientTransform="matrix(0, 18.82, 18.82, 0, -31917.75, 99522.09)" gradientUnits="userSpaceOnUse"><stop offset="0" stop-color="#fff"/><stop offset="1" stop-color="#1a1a1a"/></linearGradient><linearGradient id="Degradado_sin_nombre_7" x1="-5266.78" y1="1726.23" x2="-5264.9" y2="1726.23" gradientTransform="matrix(0, 17.24, 17.24, 0, -29558.11, 90861.72)" gradientUnits="userSpaceOnUse"><stop offset="0" stop-color="#4d4d4d"/><stop offset="0.1" stop-color="#4d4d4d"/><stop offset="0.2" stop-color="#535353"/><stop offset="0.35" stop-color="#656565"/><stop offset="0.51" stop-color="#818181"/><stop offset="0.69" stop-color="#a9a9a9"/><stop offset="0.88" stop-color="#dcdcdc"/><stop offset="1" stop-color="#fff"/></linearGradient><linearGradient id="Degradado_sin_nombre_9" x1="-5344.76" y1="1643.06" x2="-5342.88" y2="1643.06" gradientTransform="matrix(0, 26.44, 26.44, 0, -43254.84, 141398.61)" gradientUnits="userSpaceOnUse"><stop offset="0"/><stop offset="0.02"/><stop offset="0.03" stop-color="#030303"/><stop offset="0.29" stop-color="#404040"/><stop offset="0.48" stop-color="#666"/><stop offset="0.58" stop-color="#757575"/><stop offset="0.9" stop-color="#f1f1f1"/><stop offset="1" stop-color="#f1f1f1"/></linearGradient><radialGradient id="Degradado_sin_nombre_10" cx="-5226.21" cy="1504.31" r="1.88" gradientTransform="matrix(24.39, 0, 0, -24.39, 127529.44, 36761.2)" gradientUnits="userSpaceOnUse"><stop offset="0" stop-color="#fff"/><stop offset="0.1" stop-color="#fafafa"/><stop offset="0.23" stop-color="#ececec"/><stop offset="0.36" stop-color="#d4d4d4"/><stop offset="0.5" stop-color="#b3b3b3"/><stop offset="0.64" stop-color="#888"/><stop offset="0.79" stop-color="#535353"/><stop offset="0.94" stop-color="#171717"/><stop offset="0.99"/><stop offset="1"/></radialGradient><linearGradient id="Degradado_sin_nombre_5-2" x1="-5285.1" y1="1704.7" x2="-5283.22" y2="1704.7" gradientTransform="matrix(0, 18.82, 18.82, 0, -32049.66, 99523.15)" xlink:href="#Degradado_sin_nombre_5"/><linearGradient id="Degradado_sin_nombre_7-2" x1="-5266.78" y1="1726.14" x2="-5264.9" y2="1726.14" gradientTransform="matrix(0, 17.24, 17.24, 0, -29690.02, 90862.78)" xlink:href="#Degradado_sin_nombre_7"/><linearGradient id="Degradado_sin_nombre_9-2" x1="-5344.76" y1="1643" x2="-5342.88" y2="1643" gradientTransform="matrix(0, 26.44, 26.44, 0, -43386.76, 141399.56)" xlink:href="#Degradado_sin_nombre_9"/><clipPath id="clip-path"><rect class="cls-8" x="155.15" y="23.95" width="34.85" height="61.82"/></clipPath><clipPath id="clip-path-2"><path class="cls-8" d="M168.4,85.27a1.75,1.75,0,0,0,.22-.55c.3-1.17-1.53-3.16-2.13-4-6.09-8.85-4.35-19.92.6-28.83a40.63,40.63,0,0,1,10.39-12.34c3.76-2.91,10.69-5.22,12.32-10.05,0,0,0,0,0,0a4,4,0,0,0,.18-1c.18-3-3.07-4.92-5.75-4.42a12,12,0,0,0-4.4,2.08C166.67,34.85,154.07,48,155.22,65c.53,7.84,4.36,15.56,10.74,20.14.9.64,1.92.92,2.44.1"/></clipPath><mask id="mask" x="122.79" y="5.48" width="98.65" height="98.65" maskUnits="userSpaceOnUse"><rect class="cls-1" x="137.24" y="19.93" width="69.76" height="69.76" transform="translate(11.66 137.76) rotate(-45)"/></mask><linearGradient id="Degradado_sin_nombre_4" x1="-5285.1" y1="1704.78" x2="-5283.22" y2="1704.78" gradientTransform="matrix(0, 18.82, 18.82, 0, -31917.75, 99522.1)" gradientUnits="userSpaceOnUse"><stop offset="0" stop-color="#fff"/><stop offset="1" stop-color="#fff"/></linearGradient><clipPath id="clip-path-3"><rect class="cls-8" x="158.25" y="23.54" width="82.77" height="85.93"/></clipPath><clipPath id="clip-path-4"><path class="cls-8" d="M216.64,23.54a45.58,45.58,0,0,1-58.39,66.69,45.58,45.58,0,1,0,58.39-66.69"/></clipPath><mask id="mask-2" x="115.28" y="-17.84" width="168.69" height="168.69" maskUnits="userSpaceOnUse"><rect class="cls-2" x="139.98" y="6.87" width="119.3" height="119.27" transform="translate(12.14 162.01) rotate(-45.42)"/></mask><linearGradient id="Degradado_sin_nombre_6" x1="-5266.78" y1="1726.23" x2="-5264.9" y2="1726.23" gradientTransform="matrix(0, 17.24, 17.24, 0, -29558.11, 90861.72)" gradientUnits="userSpaceOnUse"><stop offset="0" stop-color="#fff"/><stop offset="0.1" stop-color="#fff"/><stop offset="0.19" stop-color="#f9f9f9"/><stop offset="0.31" stop-color="#e8e8e7"/><stop offset="0.45" stop-color="#cbcbcb"/><stop offset="0.6" stop-color="#a3a3a3"/><stop offset="0.77" stop-color="#70706f"/><stop offset="0.94" stop-color="#333331"/><stop offset="1" stop-color="#1d1d1b"/></linearGradient><clipPath id="clip-path-5"><rect class="cls-8" x="156.78" y="23.61" width="84.24" height="85.93"/></clipPath><clipPath id="clip-path-6"><path class="cls-8" d="M216.64,23.61c-35.7,4.05-69.09,43.66-57.54,66.69,2.76,5.49,10.34,12.14,18.24,15.43a51.82,51.82,0,0,0,18.1,3.81c11.5,0,17.94-3,24.84-7.36C234.66,93.12,241.23,76.64,241,64a46.17,46.17,0,0,0-24.38-40.35"/></clipPath><mask id="mask-3" x="105.04" y="-22.73" width="178.7" height="178.61" maskUnits="userSpaceOnUse"><rect class="cls-3" x="130.86" y="3.44" width="127.07" height="126.27" transform="translate(3.74 143.19) rotate(-40.8)"/></mask><linearGradient id="Degradado_sin_nombre_8" x1="-5344.76" y1="1643.06" x2="-5342.88" y2="1643.06" gradientTransform="matrix(0, 26.44, 26.44, 0, -43254.82, 141398.62)" gradientUnits="userSpaceOnUse"><stop offset="0" stop-color="#c38714"/><stop offset="0.02" stop-color="#c38714"/><stop offset="0.19" stop-color="#ca8f13"/><stop offset="0.58" stop-color="#d59e11"/><stop offset="0.9" stop-color="#f1c012"/><stop offset="1" stop-color="#f1c012"/></linearGradient><clipPath id="clip-path-7"><rect class="cls-8" x="24.82" y="28.21" width="92.53" height="90.98"/></clipPath><clipPath id="clip-path-8"><path class="cls-8" d="M117.35,73.7c0,25.12-20.72,45.49-46.27,45.49S24.82,98.82,24.82,73.7,45.53,28.21,71.08,28.21s46.27,20.37,46.27,45.49"/></clipPath><mask id="mask-4" x="24.82" y="28.21" width="92.53" height="90.98" maskUnits="userSpaceOnUse"><rect class="cls-4" x="24.82" y="28.21" width="92.53" height="90.98"/></mask><radialGradient id="Degradado_sin_nombre_2" cx="-5226.21" cy="1504.31" r="1.88" gradientTransform="matrix(24.39, 0, 0, -24.39, 127529.45, 36761.2)" gradientUnits="userSpaceOnUse"><stop offset="0" stop-color="#fff"/><stop offset="0.11" stop-color="#fafafa"/><stop offset="0.24" stop-color="#ececec"/><stop offset="0.38" stop-color="#d4d4d4"/><stop offset="0.53" stop-color="#b3b3b3"/><stop offset="0.68" stop-color="#898988"/><stop offset="0.84" stop-color="#565654"/><stop offset="0.99" stop-color="#1d1d1b"/><stop offset="1" stop-color="#1d1d1b"/></radialGradient><clipPath id="clip-path-9"><path class="cls-8" d="M16.46,65c.13,25.2,21.38,45.77,45.57,45.58A45.58,45.58,0,1,0,16.46,65"/></clipPath><linearGradient id="Degradado_sin_nombre_3" x1="-5337.49" y1="1483.3" x2="-5335.61" y2="1483.3" gradientTransform="matrix(48.45, 0, 0, -48.45, 258634.12, 71935.45)" gradientUnits="userSpaceOnUse"><stop offset="0" stop-color="#f4d265"/><stop offset="0.06" stop-color="#f4d15f"/><stop offset="0.14" stop-color="#f4cd4d"/><stop offset="0.24" stop-color="#f3c831"/><stop offset="0.32" stop-color="#f3c213"/><stop offset="0.73" stop-color="#f2b509"/><stop offset="1" stop-color="#f1aa00"/><stop offset="1" stop-color="#f1aa00"/></linearGradient><clipPath id="clip-path-10"><rect class="cls-8" x="21.72" y="25.03" width="34.85" height="61.82"/></clipPath><clipPath id="clip-path-11"><path class="cls-8" d="M35,86.35a1.86,1.86,0,0,0,.22-.55c.3-1.17-1.53-3.17-2.13-4-6.09-8.84-4.34-19.91.6-28.82A40.4,40.4,0,0,1,44.05,40.6c3.76-2.92,10.69-5.22,12.32-10.06,0,0,0,0,0,0a3.61,3.61,0,0,0,.18-1c.18-3-3.07-4.92-5.75-4.42a12.13,12.13,0,0,0-4.39,2.07C33.24,35.93,20.64,49.07,21.79,66.1c.54,7.85,4.36,15.57,10.74,20.14.9.65,1.93.93,2.44.11"/></clipPath><mask id="mask-5" x="-10.64" y="6.56" width="98.65" height="98.65" maskUnits="userSpaceOnUse"><rect class="cls-5" x="3.81" y="21.01" width="69.76" height="69.76" transform="translate(-28.19 43.73) rotate(-45)"/></mask><linearGradient id="Degradado_sin_nombre_4-2" x1="-5285.1" y1="1704.7" x2="-5283.22" y2="1704.7" gradientTransform="matrix(0, 18.82, 18.82, 0, -32049.67, 99523.16)" xlink:href="#Degradado_sin_nombre_4"/><clipPath id="clip-path-12"><rect class="cls-8" x="102.19" y="61.93" width="3.46" height="2.68"/></clipPath><clipPath id="clip-path-13"><rect class="cls-8" x="103.61" y="64.32" width="1.44" height="0.2"/></clipPath><clipPath id="clip-path-14"><rect class="cls-8" x="102.43" y="63.6" width="1.28" height="0.49"/></clipPath><clipPath id="clip-path-15"><rect class="cls-8" x="102.77" y="62.16" width="1.42" height="0.22"/></clipPath><clipPath id="clip-path-16"><rect class="cls-8" x="104.13" y="63.21" width="1.52" height="0.51"/></clipPath><clipPath id="clip-path-17"><rect class="cls-8" x="103.57" y="62.07" width="1.45" height="0.18"/></clipPath><clipPath id="clip-path-18"><rect class="cls-8" x="102.19" y="62.94" width="1.08" height="0.49"/></clipPath><clipPath id="clip-path-19"><rect class="cls-8" x="102.93" y="64.46" width="1.45" height="0.15"/></clipPath><clipPath id="clip-path-20"><rect class="cls-8" x="104.36" y="62.96" width="1.17" height="0.49"/></clipPath><clipPath id="clip-path-21"><rect class="cls-8" x="102.45" y="62.49" width="1.29" height="0.41"/></clipPath><clipPath id="clip-path-22"><rect class="cls-8" x="103.09" y="61.93" width="1.42" height="0.49"/></clipPath><clipPath id="clip-path-23"><rect class="cls-8" x="104.15" y="63.68" width="1.29" height="0.43"/></clipPath><clipPath id="clip-path-24"><rect class="cls-8" x="102.25" y="63.5" width="1.16" height="0.47"/></clipPath><clipPath id="clip-path-25"><rect class="cls-8" x="24.82" y="24.62" width="82.77" height="85.93"/></clipPath><clipPath id="clip-path-26"><path class="cls-8" d="M83.21,24.62A45.58,45.58,0,0,1,24.82,91.31,45.58,45.58,0,1,0,83.21,24.62"/></clipPath><mask id="mask-6" x="-18.15" y="-16.77" width="168.69" height="168.69" maskUnits="userSpaceOnUse"><rect class="cls-6" x="6.55" y="7.95" width="119.3" height="119.27" transform="translate(-28.4 67.3) rotate(-45.42)"/></mask><linearGradient id="Degradado_sin_nombre_6-2" x1="-5266.78" y1="1726.14" x2="-5264.9" y2="1726.14" gradientTransform="matrix(0, 17.24, 17.24, 0, -29690.02, 90862.78)" xlink:href="#Degradado_sin_nombre_6"/><clipPath id="clip-path-27"><rect class="cls-8" x="23.35" y="24.68" width="84.25" height="85.93"/></clipPath><clipPath id="clip-path-28"><path class="cls-8" d="M83.21,24.68c-35.69,4.06-69.09,43.67-57.53,66.7,2.75,5.48,10.33,12.14,18.23,15.43a51.74,51.74,0,0,0,18.1,3.8c11.5,0,17.94-3,24.84-7.35,14.38-9.06,21-25.54,20.74-38.22A46.17,46.17,0,0,0,83.21,24.68"/></clipPath><mask id="mask-7" x="-28.39" y="-21.66" width="178.7" height="178.62" maskUnits="userSpaceOnUse"><rect class="cls-7" x="-2.57" y="4.52" width="127.07" height="126.27" transform="translate(-29.39 56.27) rotate(-40.8)"/></mask><linearGradient id="Degradado_sin_nombre_8-2" x1="-5344.76" y1="1643" x2="-5342.88" y2="1643" gradientTransform="matrix(0, 26.44, 26.44, 0, -43386.75, 141399.56)" xlink:href="#Degradado_sin_nombre_8"/></defs><title>iconos</title><g class="cls-9"><g id="Capa_1" data-name="Capa 1"><g class="cls-10"><g class="cls-11"><g class="cls-12"><g class="cls-13"><rect class="cls-14" x="137.24" y="19.93" width="69.76" height="69.76" transform="translate(11.66 137.76) rotate(-45)"/></g></g></g></g><g class="cls-15"><g class="cls-16"><g class="cls-17"><g class="cls-18"><rect class="cls-19" x="139.98" y="6.87" width="119.3" height="119.27" transform="translate(12.14 162.01) rotate(-45.42)"/></g></g></g></g><g class="cls-20"><g class="cls-21"><g class="cls-22"><g class="cls-23"><rect class="cls-24" x="130.86" y="3.44" width="127.07" height="126.27" transform="translate(3.74 143.19) rotate(-40.8)"/></g></g></g></g><g class="cls-25"><g class="cls-26"><g class="cls-27"><g class="cls-28"><rect class="cls-29" x="24.82" y="28.21" width="92.53" height="90.98"/></g></g></g></g><g class="cls-30"><rect class="cls-31" x="16.33" y="19.4" width="91.28" height="91.35"/></g><g class="cls-10"><g class="cls-32"><g class="cls-33"><g class="cls-34"><rect class="cls-35" x="3.81" y="21.01" width="69.76" height="69.76" transform="translate(-28.19 43.73) rotate(-45)"/></g></g></g></g><g class="cls-36"><g class="cls-37"><g class="cls-38"><g class="cls-39"><path class="cls-40" d="M103.65,64.52h1c.12,0,.39-.17.44-.17l-1.06,0c-.08,0-.52.2-.34.2"/></g></g><g class="cls-38"><g class="cls-41"><path class="cls-40" d="M102.69,64.09l.91,0c.24,0,0-.47-.09-.47h-.94c-.29,0-.07.48.12.48"/></g></g><g class="cls-38"><g class="cls-42"><path class="cls-40" d="M102.77,62.38l1,0c.12,0,.37-.2.42-.2h-1a1.21,1.21,0,0,0-.42.22"/></g></g><g class="cls-38"><g class="cls-43"><path class="cls-40" d="M104.71,63.72h.78c.26,0,.2-.49-.12-.5h-1c-.54,0-.06.51.34.51"/></g></g><g class="cls-38"><g class="cls-44"><path class="cls-40" d="M104,62.25l1.05,0c-.05,0-.32-.14-.44-.14h-1c-.18,0,.27.18.35.18"/></g></g><g class="cls-38"><g class="cls-45"><path class="cls-40" d="M102.22,63.43h1a1.65,1.65,0,0,0,.06-.49h-1c-.08,0-.12.49-.06.49"/></g></g><g class="cls-38"><g class="cls-46"><path class="cls-40" d="M103.33,64.61h1c-.07,0-.32-.11-.46-.12l-1,0c-.16,0,.28.15.36.15"/></g></g><g class="cls-38"><g class="cls-47"><path class="cls-40" d="M104.51,63.45h1c.07,0,0-.49-.07-.49h-1c-.15,0-.1.49.06.49"/></g></g><g class="cls-38"><g class="cls-48"><path class="cls-40" d="M102.48,62.9h1c.13,0,.25-.4.3-.4h-1c-.09,0-.34.4-.24.4"/></g></g><g class="cls-38"><g class="cls-49"><path class="cls-40" d="M103.36,62.42l.82-.05c.11,0,.52-.29.23-.32l-1-.12c-.42,0-.46.52-.07.49"/></g></g><g class="cls-38"><g class="cls-50"><path class="cls-40" d="M104.2,64.11h1c.12,0,.25-.42.26-.42h-1c-.1,0-.35.43-.2.43"/></g></g><g class="cls-38"><g class="cls-51"><path class="cls-40" d="M102.42,64h1s-.09-.47-.17-.47h-1s0,.47.16.47"/></g></g></g></g><g class="cls-15"><g class="cls-52"><g class="cls-53"><g class="cls-54"><rect class="cls-55" x="6.55" y="7.95" width="119.3" height="119.27" transform="translate(-28.4 67.3) rotate(-45.42)"/></g></g></g></g><g class="cls-20"><g class="cls-56"><g class="cls-57"><g class="cls-58"><rect class="cls-59" x="-2.57" y="4.52" width="127.07" height="126.27" transform="translate(-29.39 56.27) rotate(-40.8)"/></g></g></g></g><path class="cls-60" d="M10.28,86a54.79,54.79,0,0,1-2-5.91,55.55,55.55,0,0,1,104.94-36"/><path class="cls-61" d="M45,77.61c.28-1,.55-2,.82-3a19.16,19.16,0,0,0,2.85-1.29l.75.53c.27.19.6.38.88.24a1.1,1.1,0,0,0,.41-.51,26.27,26.27,0,0,1,2.22-3.47,1.22,1.22,0,0,1,.5-.46,1,1,0,0,1,.54,0c2.69.57,4.87,2.79,7,4.82a1.61,1.61,0,0,0,.78.5,1.22,1.22,0,0,0,.53-.06,6.55,6.55,0,0,0,.83-.25l.31.5a34.57,34.57,0,0,0,4,5.15,10.76,10.76,0,0,0,2,1.69,20,20,0,0,0,4.38,1.6A13.74,13.74,0,0,1,79.11,87a7.71,7.71,0,0,0,1,3.19,24,24,0,0,1,2,3.31A18.44,18.44,0,0,1,82.83,96c.18.71.54,1.54,1.17,1.53a1.2,1.2,0,0,0,.6-.23c3.08-1.9,2.62-5.92.91-9.59-1.59-3.39-4.25-6.47-6.18-7.31s-12.9-6.84-11-10.84a11.68,11.68,0,0,0,.88-2.49.93.93,0,0,1-1.06-.34,3.63,3.63,0,0,1-.54-1.18l-1.32-4.08A7.75,7.75,0,0,0,65.77,60a6.17,6.17,0,0,0-.93-1.21c-.54-.58-1.09-1.14-1.65-1.69a10.07,10.07,0,0,0,0-2.63,10.42,10.42,0,0,1-4.84-3.31,10.44,10.44,0,0,0-1.5-1.67,7.75,7.75,0,0,0-1.61-.85A16.15,16.15,0,0,1,49,43.47a6.71,6.71,0,0,0-2.71-2.08,6.57,6.57,0,0,0-.58-5.51c-.12-.19-.26-.37-.37-.57l-.07-.11a6.06,6.06,0,0,0,2.94,1.87,7.71,7.71,0,0,0,2.39-.16,3.68,3.68,0,0,1,2.36.27,2.11,2.11,0,0,1,1,2.28,3.73,3.73,0,0,0,1-3.29,3.25,3.25,0,0,0-2-2.54,3.83,3.83,0,0,1,3-.37,2.24,2.24,0,0,0-3.1-.94c-.43.27-.78.69-1.19,1a1.18,1.18,0,0,1-1.38.13,3.4,3.4,0,0,0,1.86-1.88,2.87,2.87,0,0,0-.33-2.76,1.53,1.53,0,0,0-2.29-.13.78.78,0,0,1,1.17.17,1.9,1.9,0,0,1,.26,1.43c-.15.87-.91,1.68-1.62,1.37a2.42,2.42,0,0,1-.7-.59c-1.25-1.25-5.73-1.88-5.5,1.2a2,2,0,0,0,.08.42A4.5,4.5,0,0,0,41.22,32a4.63,4.63,0,0,0-4,1.84,4.66,4.66,0,0,1-.94,1.07.85.85,0,0,1-1.2-.18,1,1,0,0,0,.66.92,2.15,2.15,0,0,1-1,.42,2.43,2.43,0,0,0,1.41.9,8.08,8.08,0,0,0-.08,3,1.25,1.25,0,0,0,.19.54c.1.13.24.2.34.33.26.34.11.87.08,1.32a4.1,4.1,0,0,0,.25,1.43,24.45,24.45,0,0,0,1.53,3.65.67.67,0,0,0,.19.25.5.5,0,0,0,.38.06,5.79,5.79,0,0,0,.82-.12c0,.12,0,.24,0,.36-.22.14-.43.29-.64.4a12.85,12.85,0,0,0-2.12,1.23,10.56,10.56,0,0,1-1.57,1.37,4.93,4.93,0,0,0-1.13.55,1.94,1.94,0,0,0-.58,1.37A6.79,6.79,0,0,0,34,54.3a1.1,1.1,0,0,0,.16.45.64.64,0,0,0,.31.21,1.65,1.65,0,0,0,1.89-.64.58.58,0,0,0,.42.74.79.79,0,0,0,.73-.49,3,3,0,0,0,.25-1,2.88,2.88,0,0,1,.24-1,2.29,2.29,0,0,1,2-1l.93-.12.13.28a10.66,10.66,0,0,0,1.48,2.32,8.85,8.85,0,0,0,.74.76c.67.62-.42,5.5-.57,6.4a26.47,26.47,0,0,1,.41,3.54,2.67,2.67,0,0,1-1.82,2.75,3.19,3.19,0,0,0-.07,2c.47.45-.08.54-.23,1.19L29.33,66.12a6.12,6.12,0,0,0-9.09-7.48,8.36,8.36,0,0,0-3.17,5.26,7.33,7.33,0,0,0,.81,5.66,5.9,5.9,0,0,0,6.46,2,8,8,0,0,0,4.93-5c2.09.86,4.17,1.73,6.26,2.61l3.12,1.33c.66.28,2,.52,2.1,1.34a6.49,6.49,0,0,1-.67,2.56c-.37,1.06-.8,2.11-1.25,3.15-2.07,4.85-4.49,9.53-6.77,14.28-.28.59-.54,1.2-.79,1.8-1.07,2.47-4.05,4-5.89,2.27a9.17,9.17,0,0,0-1.29-1.28c-1.51-.9-3.25,1.34-3,3.28s1.68,3.36,3,4.59c1.9,1.79,3,5.68,5.75,5.74a2,2,0,0,0,1.81-1,3.91,3.91,0,0,0,.46-1.61,16.11,16.11,0,0,0,0-4.44c.36-1,.38-2,.65-3A15.1,15.1,0,0,1,34,95.41C35.24,93,41.9,84.86,42.29,82.13M20.61,71.35c-3.83-1.46-3.81-6.27-2-9.51,1.33-2.45,2.77-4,7.13-3.23,2.84.51,4.67,5.4,3.67,9s-4.93,5.24-8.76,3.79M43,76.78a2,2,0,0,0-.23.27,3.16,3.16,0,0,1,.36-.93c0,.22-.08.44-.13.66M49.2,61.1l.36.41a4,4,0,0,1-.47.33.13.13,0,0,0,0-.06l.1-.68"/><path class="cls-61" d="M35.4,148.29a6.55,6.55,0,0,1-4-2.07,17.66,17.66,0,0,1-2.82-4.2,93.55,93.55,0,0,1-6.78-15c-.26-.79-.4-1.86.32-2.26a1.43,1.43,0,0,1,1.66.26c11.75,12.86,12.91,12.09,13.75,11.68s1.31-2.2,1.6-2.89c.83-2,1.35-4.07,2.2-6,1.1-2.55,2-6.36,4.3-8.14,1.16-.91,3-1.08,4,0s.52,3.14-.11,4.65l-4.53,11c-.68,1.65-1.49,3.29-2.11,4.95a23.28,23.28,0,0,1-2,5,6.44,6.44,0,0,1-5,3.11H35.4"/><path class="cls-61" d="M56.14,118.87a2.44,2.44,0,0,1,1.8.73,2.57,2.57,0,0,1,0,3.65,2.44,2.44,0,0,1-1.8.73,2.47,2.47,0,0,1-1.82-.73,2.57,2.57,0,0,1,0-3.65,2.47,2.47,0,0,1,1.82-.73m0,30.77c2.11.05,2.72-4.93,2.7-6.61,0-2,1-21.51-4.51-16a2.53,2.53,0,0,0-.76,1.82v18a2.46,2.46,0,0,0,.76,1.82h0a2.8,2.8,0,0,0,1.8,1"/><path class="cls-61" d="M73.14,127.69A10.82,10.82,0,0,1,77.27,148a9,9,0,0,1-8.51.19,9.81,9.81,0,0,1-4.21-5.33,24.27,24.27,0,0,1-1.16-6.83,94.83,94.83,0,0,1,0-11.68c.78-12.75,8,2.69,4.91,3.85a10.36,10.36,0,0,1,4.84-.55m4.57,9.22a4.58,4.58,0,0,0-4.54-4.54H73.1a4.39,4.39,0,0,0-3.22,1.34,4.34,4.34,0,0,0-1.34,3.2v3a4.58,4.58,0,0,0,4.56,4.57h.07a4.58,4.58,0,0,0,4.54-4.57Z"/><path class="cls-61" d="M88.52,118.88a2.39,2.39,0,0,1,1.79.73,2.45,2.45,0,0,1,.76,1.82,2.56,2.56,0,1,1-2.55-2.55m0,30.79c2.14,0,2.44-5.55,2.54-7,.2-2.92,2-16.41-2.55-16.41a2.44,2.44,0,0,0-1.82.76,2.49,2.49,0,0,0-.76,1.82v18a2.42,2.42,0,0,0,.76,1.82,2.83,2.83,0,0,0,1.83,1.07"/></g></g></svg>