<svg xmlns="http://www.w3.org/2000/svg" xmlns:xlink="http://www.w3.org/1999/xlink" viewBox="0 0 117.48 154.67"><defs><style>.cls-1{fill:url(#Degradado_sin_nombre_10);}.cls-2{fill:url(#Degradado_sin_nombre_5);}.cls-3{fill:url(#Degradado_sin_nombre_7);}.cls-4{fill:url(#Degradado_sin_nombre_9);}.cls-5{fill:url(#Degradado_sin_nombre_7-2);}.cls-6{fill:url(#Degradado_sin_nombre_9-2);}.cls-47,.cls-7{fill:none;}.cls-8{isolation:isolate;}.cls-21,.cls-37,.cls-9{mix-blend-mode:multiply;}.cls-10{clip-path:url(#clip-path);}.cls-11{clip-path:url(#clip-path-2);}.cls-12{mask:url(#mask);}.cls-13{fill:url(#Degradado_sin_nombre_2);}.cls-14{clip-path:url(#clip-path-3);}.cls-15{fill:url(#Degradado_sin_nombre_3);}.cls-16{opacity:0.21;mix-blend-mode:lighten;}.cls-17{clip-path:url(#clip-path-4);}.cls-18{clip-path:url(#clip-path-5);}.cls-19{mask:url(#mask-2);}.cls-20{fill:url(#Degradado_sin_nombre_4);}.cls-21{opacity:0.17;}.cls-22{clip-path:url(#clip-path-6);}.cls-23{opacity:0.11;}.cls-24{clip-path:url(#clip-path-7);}.cls-25{fill:#ab7719;}.cls-26{clip-path:url(#clip-path-8);}.cls-27{clip-path:url(#clip-path-9);}.cls-28{clip-path:url(#clip-path-10);}.cls-29{clip-path:url(#clip-path-11);}.cls-30{clip-path:url(#clip-path-12);}.cls-31{clip-path:url(#clip-path-13);}.cls-32{clip-path:url(#clip-path-14);}.cls-33{clip-path:url(#clip-path-15);}.cls-34{clip-path:url(#clip-path-16);}.cls-35{clip-path:url(#clip-path-17);}.cls-36{clip-path:url(#clip-path-18);}.cls-37{opacity:0.44;}.cls-38{clip-path:url(#clip-path-19);}.cls-39{clip-path:url(#clip-path-20);}.cls-40{mask:url(#mask-3);}.cls-41{fill:url(#Degradado_sin_nombre_6);}.cls-42{opacity:0.96;}.cls-43{clip-path:url(#clip-path-21);}.cls-44{clip-path:url(#clip-path-22);}.cls-45{mask:url(#mask-4);}.cls-46{fill:url(#Degradado_sin_nombre_8);}.cls-47{stroke:#f3c213;stroke-linecap:round;stroke-miterlimit:10;stroke-width:0.55px;}.cls-48{fill:#1d1d1b;}.cls-49{clip-path:url(#clip-path-23);}.cls-50{clip-path:url(#clip-path-24);}.cls-51{mask:url(#mask-5);}.cls-52{fill:url(#Degradado_sin_nombre_6-2);}.cls-53{clip-path:url(#clip-path-25);}.cls-54{clip-path:url(#clip-path-26);}.cls-55{mask:url(#mask-6);}.cls-56{fill:url(#Degradado_sin_nombre_8-2);}</style><radialGradient id="Degradado_sin_nombre_10" cx="-5736.44" cy="1515.48" r="1.88" gradientTransform="matrix(24.39, 0, 0, -24.39, 139970.31, 37029.43)" gradientUnits="userSpaceOnUse"><stop offset="0" stop-color="#fff"/><stop offset="0.1" stop-color="#fafafa"/><stop offset="0.23" stop-color="#ececec"/><stop offset="0.36" stop-color="#d4d4d4"/><stop offset="0.5" stop-color="#b3b3b3"/><stop offset="0.64" stop-color="#888"/><stop offset="0.79" stop-color="#535353"/><stop offset="0.94" stop-color="#171717"/><stop offset="0.99"/><stop offset="1"/></radialGradient><linearGradient id="Degradado_sin_nombre_5" x1="-5802.81" y1="1735.23" x2="-5800.93" y2="1735.23" gradientTransform="matrix(0, 18.82, 18.82, 0, -32627.29, 109264)" gradientUnits="userSpaceOnUse"><stop offset="0" stop-color="#fff"/><stop offset="1" stop-color="#1a1a1a"/></linearGradient><linearGradient id="Degradado_sin_nombre_7" x1="-5782.99" y1="1758.9" x2="-5781.1" y2="1758.9" gradientTransform="matrix(0, 17.24, 17.24, 0, -30257.77, 99757.09)" gradientUnits="userSpaceOnUse"><stop offset="0" stop-color="#4d4d4d"/><stop offset="0.1" stop-color="#4d4d4d"/><stop offset="0.2" stop-color="#535353"/><stop offset="0.35" stop-color="#656565"/><stop offset="0.51" stop-color="#818181"/><stop offset="0.69" stop-color="#a9a9a9"/><stop offset="0.88" stop-color="#dcdcdc"/><stop offset="1" stop-color="#fff"/></linearGradient><linearGradient id="Degradado_sin_nombre_9" x1="-5867.93" y1="1666.87" x2="-5866.04" y2="1666.87" gradientTransform="matrix(0, 26.44, 26.44, 0, -44020.78, 155229.94)" gradientUnits="userSpaceOnUse"><stop offset="0"/><stop offset="0.02"/><stop offset="0.03" stop-color="#030303"/><stop offset="0.29" stop-color="#404040"/><stop offset="0.48" stop-color="#666"/><stop offset="0.58" stop-color="#757575"/><stop offset="0.9" stop-color="#f1f1f1"/><stop offset="1" stop-color="#f1f1f1"/></linearGradient><linearGradient id="Degradado_sin_nombre_7-2" x1="-5799" y1="1730.94" x2="-5797.12" y2="1730.94" gradientTransform="matrix(0, 17.24, 17.24, 0, -29910, 100041.49)" xlink:href="#Degradado_sin_nombre_7"/><linearGradient id="Degradado_sin_nombre_9-2" x1="-5876.87" y1="1647.86" x2="-5874.98" y2="1647.86" gradientTransform="matrix(0, 26.44, 26.44, 0, -43652.34, 155474.62)" xlink:href="#Degradado_sin_nombre_9"/><clipPath id="clip-path"><rect class="cls-7" x="21.82" y="23.89" width="92.53" height="90.98"/></clipPath><clipPath id="clip-path-2"><path class="cls-7" d="M114.35,69.38c0,25.12-20.72,45.49-46.27,45.49S21.82,94.5,21.82,69.38,42.53,23.89,68.08,23.89s46.27,20.36,46.27,45.49"/></clipPath><mask id="mask" x="21.82" y="23.89" width="92.53" height="90.98" maskUnits="userSpaceOnUse"><rect class="cls-1" x="21.82" y="23.89" width="92.53" height="90.98"/></mask><radialGradient id="Degradado_sin_nombre_2" cx="-5736.44" cy="1515.48" r="1.88" gradientTransform="matrix(24.39, 0, 0, -24.39, 139970.32, 37029.43)" gradientUnits="userSpaceOnUse"><stop offset="0" stop-color="#fff"/><stop offset="0.11" stop-color="#fafafa"/><stop offset="0.24" stop-color="#ececec"/><stop offset="0.38" stop-color="#d4d4d4"/><stop offset="0.53" stop-color="#b3b3b3"/><stop offset="0.68" stop-color="#898988"/><stop offset="0.84" stop-color="#565654"/><stop offset="0.99" stop-color="#1d1d1b"/><stop offset="1" stop-color="#1d1d1b"/></radialGradient><clipPath id="clip-path-3"><path class="cls-7" d="M13.46,60.65c.13,25.2,21.38,45.77,45.57,45.57A45.57,45.57,0,1,0,13.46,60.65"/></clipPath><linearGradient id="Degradado_sin_nombre_3" x1="-5858.5" y1="1491.41" x2="-5856.62" y2="1491.41" gradientTransform="matrix(48.45, 0, 0, -48.45, 283875.66, 72324.01)" gradientUnits="userSpaceOnUse"><stop offset="0" stop-color="#f4d265"/><stop offset="0.06" stop-color="#f4d15f"/><stop offset="0.14" stop-color="#f4cd4d"/><stop offset="0.24" stop-color="#f3c831"/><stop offset="0.32" stop-color="#f3c213"/><stop offset="0.73" stop-color="#f2b509"/><stop offset="1" stop-color="#f1aa00"/><stop offset="1" stop-color="#f1aa00"/></linearGradient><clipPath id="clip-path-4"><rect class="cls-7" x="18.72" y="20.7" width="34.85" height="61.83"/></clipPath><clipPath id="clip-path-5"><path class="cls-7" d="M32,82a1.86,1.86,0,0,0,.22-.55c.3-1.18-1.53-3.17-2.13-4-6.09-8.84-4.34-19.91.6-28.83A40.48,40.48,0,0,1,41.05,36.28c3.76-2.92,10.69-5.22,12.32-10.06a.43.43,0,0,0,0,0,3.54,3.54,0,0,0,.18-1c.18-3-3.07-4.91-5.75-4.42a12.32,12.32,0,0,0-4.39,2.08C30.24,31.6,17.64,44.75,18.79,61.78c.54,7.85,4.36,15.57,10.74,20.14.9.65,1.93.92,2.44.11"/></clipPath><mask id="mask-2" x="-13.64" y="2.24" width="98.65" height="98.65" maskUnits="userSpaceOnUse"><rect class="cls-2" x="0.81" y="16.69" width="69.76" height="69.76" transform="translate(-26.01 40.34) rotate(-45)"/></mask><linearGradient id="Degradado_sin_nombre_4" x1="-5802.81" y1="1735.23" x2="-5800.93" y2="1735.23" gradientTransform="matrix(0, 18.82, 18.82, 0, -32627.29, 109264.01)" gradientUnits="userSpaceOnUse"><stop offset="0" stop-color="#fff"/><stop offset="1" stop-color="#fff"/></linearGradient><clipPath id="clip-path-6"><rect class="cls-7" x="99.19" y="57.61" width="3.46" height="2.68"/></clipPath><clipPath id="clip-path-7"><rect class="cls-7" x="100.61" y="60" width="1.44" height="0.2"/></clipPath><clipPath id="clip-path-8"><rect class="cls-7" x="99.43" y="59.28" width="1.28" height="0.49"/></clipPath><clipPath id="clip-path-9"><rect class="cls-7" x="99.77" y="57.83" width="1.42" height="0.22"/></clipPath><clipPath id="clip-path-10"><rect class="cls-7" x="101.13" y="58.89" width="1.52" height="0.51"/></clipPath><clipPath id="clip-path-11"><rect class="cls-7" x="100.57" y="57.75" width="1.45" height="0.18"/></clipPath><clipPath id="clip-path-12"><rect class="cls-7" x="99.19" y="58.62" width="1.09" height="0.49"/></clipPath><clipPath id="clip-path-13"><rect class="cls-7" x="99.93" y="60.13" width="1.45" height="0.15"/></clipPath><clipPath id="clip-path-14"><rect class="cls-7" x="101.36" y="58.64" width="1.17" height="0.49"/></clipPath><clipPath id="clip-path-15"><rect class="cls-7" x="99.45" y="58.17" width="1.29" height="0.41"/></clipPath><clipPath id="clip-path-16"><rect class="cls-7" x="100.09" y="57.61" width="1.42" height="0.49"/></clipPath><clipPath id="clip-path-17"><rect class="cls-7" x="101.15" y="59.35" width="1.29" height="0.43"/></clipPath><clipPath id="clip-path-18"><rect class="cls-7" x="99.25" y="59.18" width="1.16" height="0.47"/></clipPath><clipPath id="clip-path-19"><rect class="cls-7" x="21.82" y="20.29" width="82.77" height="85.93"/></clipPath><clipPath id="clip-path-20"><path class="cls-7" d="M80.21,20.29A45.59,45.59,0,0,1,21.82,87a45.58,45.58,0,1,0,58.39-66.7"/></clipPath><mask id="mask-3" x="-21.14" y="-21.09" width="168.69" height="168.69" maskUnits="userSpaceOnUse"><rect class="cls-3" x="3.55" y="3.62" width="119.3" height="119.27" transform="translate(-26.22 63.87) rotate(-45.42)"/></mask><linearGradient id="Degradado_sin_nombre_6" x1="-5782.99" y1="1758.9" x2="-5781.1" y2="1758.9" gradientTransform="matrix(0, 17.24, 17.24, 0, -30257.77, 99757.09)" gradientUnits="userSpaceOnUse"><stop offset="0" stop-color="#fff"/><stop offset="0.1" stop-color="#fff"/><stop offset="0.19" stop-color="#f9f9f9"/><stop offset="0.31" stop-color="#e8e8e7"/><stop offset="0.45" stop-color="#cbcbcb"/><stop offset="0.6" stop-color="#a3a3a3"/><stop offset="0.77" stop-color="#70706f"/><stop offset="0.94" stop-color="#333331"/><stop offset="1" stop-color="#1d1d1b"/></linearGradient><clipPath id="clip-path-21"><rect class="cls-7" x="20.35" y="20.36" width="84.25" height="85.93"/></clipPath><clipPath id="clip-path-22"><path class="cls-7" d="M80.21,20.36C44.52,24.42,11.12,64,22.68,87.06,25.43,92.54,33,99.2,40.91,102.48A51.58,51.58,0,0,0,59,106.29c11.5,0,17.94-3,24.84-7.36,14.38-9.05,21-25.54,20.74-38.21A46.16,46.16,0,0,0,80.21,20.36"/></clipPath><mask id="mask-4" x="-31.39" y="-25.98" width="178.7" height="178.62" maskUnits="userSpaceOnUse"><rect class="cls-4" x="-5.57" y="0.19" width="127.07" height="126.27" transform="translate(-27.29 53.26) rotate(-40.8)"/></mask><linearGradient id="Degradado_sin_nombre_8" x1="-5867.93" y1="1666.87" x2="-5866.04" y2="1666.87" gradientTransform="matrix(0, 26.44, 26.44, 0, -44020.78, 155229.94)" gradientUnits="userSpaceOnUse"><stop offset="0" stop-color="#c38714"/><stop offset="0.02" stop-color="#c38714"/><stop offset="0.19" stop-color="#ca8f13"/><stop offset="0.58" stop-color="#d59e11"/><stop offset="0.9" stop-color="#f1c012"/><stop offset="1" stop-color="#f1c012"/></linearGradient><clipPath id="clip-path-23"><rect class="cls-7" x="-112.53" y="28.54" width="82.77" height="85.93"/></clipPath><clipPath id="clip-path-24"><path class="cls-7" d="M-54.14,28.54a45.36,45.36,0,0,1,8.37,26.33,45.58,45.58,0,0,1-45.57,45.58,45.38,45.38,0,0,1-21.19-5.22,45.51,45.51,0,0,0,37.19,19.24A45.58,45.58,0,0,0-29.76,68.89,45.58,45.58,0,0,0-54.14,28.54"/></clipPath><mask id="mask-5" x="-155.49" y="-12.84" width="168.69" height="168.69" maskUnits="userSpaceOnUse"><rect class="cls-5" x="-130.8" y="11.87" width="119.3" height="119.27" transform="translate(-72.14 -29.36) rotate(-45.42)"/></mask><linearGradient id="Degradado_sin_nombre_6-2" x1="-5799" y1="1730.94" x2="-5797.12" y2="1730.94" gradientTransform="matrix(0, 17.24, 17.24, 0, -29910, 100041.49)" xlink:href="#Degradado_sin_nombre_6"/><clipPath id="clip-path-25"><rect class="cls-7" x="-114" y="28.61" width="84.24" height="85.93"/></clipPath><clipPath id="clip-path-26"><path class="cls-7" d="M-54.14,28.61c-35.69,4-69.09,43.66-57.53,66.69,2.75,5.49,10.33,12.14,18.23,15.43a51.82,51.82,0,0,0,18.1,3.81c11.5,0,18-3,24.84-7.36,14.38-9.06,21-25.54,20.74-38.22A46.15,46.15,0,0,0-54.14,28.61"/></clipPath><mask id="mask-6" x="-165.74" y="-17.73" width="178.7" height="178.61" maskUnits="userSpaceOnUse"><rect class="cls-6" x="-139.92" y="8.44" width="127.07" height="126.27" transform="translate(-65.33 -32.52) rotate(-40.8)"/></mask><linearGradient id="Degradado_sin_nombre_8-2" x1="-5876.87" y1="1647.86" x2="-5874.98" y2="1647.86" gradientTransform="matrix(0, 26.44, 26.44, 0, -43652.29, 155474.64)" xlink:href="#Degradado_sin_nombre_8"/></defs><title>iconos</title><g class="cls-8"><g id="Capa_1" data-name="Capa 1"><g class="cls-9"><g class="cls-10"><g class="cls-11"><g class="cls-12"><rect class="cls-13" x="21.82" y="23.89" width="92.53" height="90.98"/></g></g></g></g><g class="cls-14"><rect class="cls-15" x="13.33" y="15.08" width="91.28" height="91.34"/></g><g class="cls-16"><g class="cls-17"><g class="cls-18"><g class="cls-19"><rect class="cls-20" x="0.81" y="16.69" width="69.76" height="69.76" transform="translate(-26.01 40.34) rotate(-45)"/></g></g></g></g><g class="cls-21"><g class="cls-22"><g class="cls-23"><g class="cls-24"><path class="cls-25" d="M100.65,60.2h1c.13,0,.39-.18.44-.18H101c-.08,0-.52.2-.34.2"/></g></g><g class="cls-23"><g class="cls-26"><path class="cls-25" d="M99.69,59.77l.91,0c.24,0,0-.47-.09-.47h-.94c-.29,0-.07.48.12.48"/></g></g><g class="cls-23"><g class="cls-27"><path class="cls-25" d="M99.77,58.05h1c.12,0,.37-.2.42-.2h-1a1.21,1.21,0,0,0-.42.22"/></g></g><g class="cls-23"><g class="cls-28"><path class="cls-25" d="M101.71,59.39h.78c.26,0,.2-.48-.12-.49h-1c-.54,0-.06.5.34.5"/></g></g><g class="cls-23"><g class="cls-29"><path class="cls-25" d="M101,57.93l1.05,0c-.05,0-.32-.14-.44-.14h-1c-.18,0,.27.18.35.18"/></g></g><g class="cls-23"><g class="cls-30"><path class="cls-25" d="M99.22,59.11h1a2.07,2.07,0,0,0,.07-.49h-1c-.08,0-.12.49-.06.49"/></g></g><g class="cls-23"><g class="cls-31"><path class="cls-25" d="M100.33,60.29h1c-.08,0-.32-.12-.46-.12l-1,0c-.16,0,.28.16.36.16"/></g></g><g class="cls-23"><g class="cls-32"><path class="cls-25" d="M101.51,59.13h1c.07,0,0-.49-.07-.49h-1c-.15,0-.1.49.06.49"/></g></g><g class="cls-23"><g class="cls-33"><path class="cls-25" d="M99.48,58.58l1,0c.13,0,.25-.39.3-.39h-1c-.09,0-.34.4-.24.4"/></g></g><g class="cls-23"><g class="cls-34"><path class="cls-25" d="M100.36,58.1l.82-.06c.11,0,.52-.28.23-.32l-1-.11c-.42,0-.46.51-.07.49"/></g></g><g class="cls-23"><g class="cls-35"><path class="cls-25" d="M101.2,59.78h1c.12,0,.25-.41.26-.41l-1,0c-.1,0-.35.43-.2.43"/></g></g><g class="cls-23"><g class="cls-36"><path class="cls-25" d="M99.42,59.64h1s-.09-.46-.17-.46h-1s0,.46.16.46"/></g></g></g></g><g class="cls-37"><g class="cls-38"><g class="cls-39"><g class="cls-40"><rect class="cls-41" x="3.55" y="3.62" width="119.3" height="119.27" transform="translate(-26.22 63.87) rotate(-45.42)"/></g></g></g></g><g class="cls-42"><g class="cls-43"><g class="cls-44"><g class="cls-45"><rect class="cls-46" x="-5.57" y="0.19" width="127.07" height="126.27" transform="translate(-27.29 53.26) rotate(-40.8)"/></g></g></g></g><path class="cls-47" d="M7.28,81.67a54.06,54.06,0,0,1-2-5.91,55.55,55.55,0,0,1,104.94-36"/><path class="cls-48" d="M9.24,83.3C3.83,85,6,89,8.1,93.84a3.33,3.33,0,0,0,2.77,2.29c1.89.2,2.94-.32,3-1.06s-2.43-2.92-1.93-4.23c.28-.74,2.7-1.57,2.59-1.91a.74.74,0,0,0-.55-.41,22.64,22.64,0,0,1,5.86.5c2.51.91,10.74,4.78,14.22,3.67S49.31,79.28,50.23,73c0,0,5.32.51,7.83-.2a61.48,61.48,0,0,1,8.34-1.1s-3,3.08-3.08,9.76c0,.4,0,.78,0,1.15a43.5,43.5,0,0,1-.71,7.09H61.5a4.55,4.55,0,0,1-1.16,2.93c-1.16,1.14-.49,3.53-.49,3.53,4.65.06,11.67,1.31,15.66-.55-.88-1.26-8.45-5.06-8.45-6.09,1-3.59,8.31-19.59,5.11-22.7-1.5-1.46-8.36-3.21-10.81-3.41s-9-.86-9-.86V58.61s2.51,2,3.28.67,2.55-9.45,3.12-10.86,1.63-5.57.7-6.58-4.58-.55-4.78.4a2.07,2.07,0,0,0,.73,2.11c.41.16.33,5.11-2.29,6.45a7.05,7.05,0,0,0-.64-4.2,20.76,20.76,0,0,0-3.26-4.79c-.72-.7-2-1.16-1.12-2.37s.87-2.22,2-1.66a1.33,1.33,0,0,0,2-1.11c.1-1,.06-1.71.87-1.66s.21-.8.23-1.46.44-4.3,0-5.14c-2.6-5.32-9.86-3.86-12.77.34-1.88,2.72-2.38,6.12-2.54,9.41A29.27,29.27,0,0,0,40.4,51.63C41.87,55.37,43.71,59,41.89,63c-3.27,7.13-8.44,14.62-10.17,23-5.29-1.32-14.46-4-20.58-3.09a11.79,11.79,0,0,0-1.9.41"/><path class="cls-48" d="M32.4,148.34a6.55,6.55,0,0,1-4-2.07,17.66,17.66,0,0,1-2.82-4.2,93.55,93.55,0,0,1-6.78-15c-.26-.79-.4-1.86.32-2.26a1.43,1.43,0,0,1,1.66.26c11.75,12.86,12.91,12.09,13.75,11.68s1.31-2.2,1.6-2.89c.83-2,1.35-4.07,2.2-6,1.1-2.55,2-6.36,4.3-8.14,1.16-.91,3-1.08,4,0s.52,3.14-.11,4.65l-4.53,11c-.68,1.65-1.49,3.29-2.11,5a23.28,23.28,0,0,1-2,5,6.44,6.44,0,0,1-5,3.11H32.4"/><path class="cls-48" d="M53.14,118.92a2.44,2.44,0,0,1,1.8.73,2.57,2.57,0,0,1,0,3.65,2.44,2.44,0,0,1-1.8.73,2.47,2.47,0,0,1-1.82-.73,2.57,2.57,0,0,1,0-3.65,2.47,2.47,0,0,1,1.82-.73m0,30.77c2.11.05,2.72-4.93,2.7-6.61,0-2,1-21.51-4.51-16a2.53,2.53,0,0,0-.76,1.82v18a2.46,2.46,0,0,0,.76,1.82h0a2.8,2.8,0,0,0,1.8,1"/><path class="cls-48" d="M70.14,127.74a10.82,10.82,0,0,1,4.13,20.35,9,9,0,0,1-8.51.19A9.81,9.81,0,0,1,61.55,143a24.27,24.27,0,0,1-1.16-6.83,94.83,94.83,0,0,1,0-11.68c.78-12.75,8,2.69,4.91,3.85a10.36,10.36,0,0,1,4.84-.55M74.71,137a4.58,4.58,0,0,0-4.54-4.54H70.1a4.39,4.39,0,0,0-3.22,1.34,4.34,4.34,0,0,0-1.34,3.2v3a4.58,4.58,0,0,0,4.56,4.57h.07A4.58,4.58,0,0,0,74.71,140Z"/><path class="cls-48" d="M85.52,118.93a2.39,2.39,0,0,1,1.79.73,2.45,2.45,0,0,1,.76,1.82,2.56,2.56,0,1,1-2.55-2.55m0,30.79c2.14,0,2.44-5.55,2.54-7,.2-2.92,2-16.41-2.55-16.41a2.44,2.44,0,0,0-1.82.76,2.49,2.49,0,0,0-.76,1.82v18a2.42,2.42,0,0,0,.76,1.82,2.83,2.83,0,0,0,1.83,1.07"/><g class="cls-37"><g class="cls-49"><g class="cls-50"><g class="cls-51"><rect class="cls-52" x="-130.8" y="11.87" width="119.3" height="119.27" transform="translate(-72.14 -29.36) rotate(-45.42)"/></g></g></g></g><g class="cls-42"><g class="cls-53"><g class="cls-54"><g class="cls-55"><rect class="cls-56" x="-139.92" y="8.44" width="127.07" height="126.27" transform="translate(-65.33 -32.52) rotate(-40.8)"/></g></g></g></g></g></g></svg>