<svg xmlns="http://www.w3.org/2000/svg" xmlns:xlink="http://www.w3.org/1999/xlink" viewBox="0 0 146.48 171.67"><defs><style>.cls-1{fill:url(#Degradado_sin_nombre_7);}.cls-2{fill:url(#Degradado_sin_nombre_9);}.cls-3{fill:url(#Degradado_sin_nombre_10);}.cls-4{fill:url(#Degradado_sin_nombre_5);}.cls-5{fill:url(#Degradado_sin_nombre_7-2);}.cls-6{fill:url(#Degradado_sin_nombre_9-2);}.cls-55,.cls-7{fill:none;}.cls-8{isolation:isolate;}.cls-9{opacity:0.44;}.cls-19,.cls-31,.cls-9{mix-blend-mode:multiply;}.cls-10{clip-path:url(#clip-path);}.cls-11{clip-path:url(#clip-path-2);}.cls-12{mask:url(#mask);}.cls-13{fill:url(#Degradado_sin_nombre_6);}.cls-14{opacity:0.96;}.cls-15{clip-path:url(#clip-path-3);}.cls-16{clip-path:url(#clip-path-4);}.cls-17{mask:url(#mask-2);}.cls-18{fill:url(#Degradado_sin_nombre_8);}.cls-20{clip-path:url(#clip-path-5);}.cls-21{clip-path:url(#clip-path-6);}.cls-22{mask:url(#mask-3);}.cls-23{fill:url(#Degradado_sin_nombre_2);}.cls-24{clip-path:url(#clip-path-7);}.cls-25{fill:url(#Degradado_sin_nombre_3);}.cls-26{opacity:0.21;mix-blend-mode:lighten;}.cls-27{clip-path:url(#clip-path-8);}.cls-28{clip-path:url(#clip-path-9);}.cls-29{mask:url(#mask-4);}.cls-30{fill:url(#Degradado_sin_nombre_4);}.cls-31{opacity:0.17;}.cls-32{clip-path:url(#clip-path-10);}.cls-33{opacity:0.11;}.cls-34{clip-path:url(#clip-path-11);}.cls-35{fill:#ab7719;}.cls-36{clip-path:url(#clip-path-12);}.cls-37{clip-path:url(#clip-path-13);}.cls-38{clip-path:url(#clip-path-14);}.cls-39{clip-path:url(#clip-path-15);}.cls-40{clip-path:url(#clip-path-16);}.cls-41{clip-path:url(#clip-path-17);}.cls-42{clip-path:url(#clip-path-18);}.cls-43{clip-path:url(#clip-path-19);}.cls-44{clip-path:url(#clip-path-20);}.cls-45{clip-path:url(#clip-path-21);}.cls-46{clip-path:url(#clip-path-22);}.cls-47{clip-path:url(#clip-path-23);}.cls-48{clip-path:url(#clip-path-24);}.cls-49{mask:url(#mask-5);}.cls-50{fill:url(#Degradado_sin_nombre_6-2);}.cls-51{clip-path:url(#clip-path-25);}.cls-52{clip-path:url(#clip-path-26);}.cls-53{mask:url(#mask-6);}.cls-54{fill:url(#Degradado_sin_nombre_8-2);}.cls-55{stroke:#f3c213;stroke-linecap:round;stroke-miterlimit:10;stroke-width:0.55px;}.cls-56{fill:#1d1d1b;}</style><linearGradient id="Degradado_sin_nombre_7" x1="-5920.47" y1="1758.9" x2="-5918.59" y2="1758.9" gradientTransform="matrix(0, 17.24, 17.24, 0, -30395.25, 102127.08)" gradientUnits="userSpaceOnUse"><stop offset="0" stop-color="#4d4d4d"/><stop offset="0.1" stop-color="#4d4d4d"/><stop offset="0.2" stop-color="#535353"/><stop offset="0.35" stop-color="#656565"/><stop offset="0.51" stop-color="#818181"/><stop offset="0.69" stop-color="#a9a9a9"/><stop offset="0.88" stop-color="#dcdcdc"/><stop offset="1" stop-color="#fff"/></linearGradient><linearGradient id="Degradado_sin_nombre_9" x1="-6005.41" y1="1666.87" x2="-6003.53" y2="1666.87" gradientTransform="matrix(0, 26.44, 26.44, 0, -44158.26, 158865.51)" gradientUnits="userSpaceOnUse"><stop offset="0"/><stop offset="0.02"/><stop offset="0.03" stop-color="#030303"/><stop offset="0.29" stop-color="#404040"/><stop offset="0.48" stop-color="#666"/><stop offset="0.58" stop-color="#757575"/><stop offset="0.9" stop-color="#f1f1f1"/><stop offset="1" stop-color="#f1f1f1"/></linearGradient><radialGradient id="Degradado_sin_nombre_10" cx="-5873.12" cy="1515.06" r="1.88" gradientTransform="matrix(24.39, 0, 0, -24.39, 143318.17, 37029.43)" gradientUnits="userSpaceOnUse"><stop offset="0" stop-color="#fff"/><stop offset="0.1" stop-color="#fafafa"/><stop offset="0.23" stop-color="#ececec"/><stop offset="0.36" stop-color="#d4d4d4"/><stop offset="0.5" stop-color="#b3b3b3"/><stop offset="0.64" stop-color="#888"/><stop offset="0.79" stop-color="#535353"/><stop offset="0.94" stop-color="#171717"/><stop offset="0.99"/><stop offset="1"/></radialGradient><linearGradient id="Degradado_sin_nombre_5" x1="-5939.17" y1="1735.58" x2="-5937.29" y2="1735.58" gradientTransform="matrix(0, 18.82, 18.82, 0, -32619.4, 111841.03)" gradientUnits="userSpaceOnUse"><stop offset="0" stop-color="#fff"/><stop offset="1" stop-color="#1a1a1a"/></linearGradient><linearGradient id="Degradado_sin_nombre_7-2" x1="-5919.24" y1="1759.28" x2="-5917.36" y2="1759.28" gradientTransform="matrix(0, 17.24, 17.24, 0, -30249.7, 102116.19)" xlink:href="#Degradado_sin_nombre_7"/><linearGradient id="Degradado_sin_nombre_9-2" x1="-6004.63" y1="1667.17" x2="-6002.75" y2="1667.17" gradientTransform="matrix(0, 26.44, 26.44, 0, -44014.47, 158855.19)" xlink:href="#Degradado_sin_nombre_9"/><clipPath id="clip-path"><rect class="cls-7" x="-115.67" y="20.29" width="82.77" height="85.93"/></clipPath><clipPath id="clip-path-2"><path class="cls-7" d="M-57.27,20.29A45.42,45.42,0,0,1-48.9,46.63,45.57,45.57,0,0,1-94.47,92.2,45.45,45.45,0,0,1-115.67,87a45.52,45.52,0,0,0,37.2,19.23A45.58,45.58,0,0,0-32.89,60.65,45.58,45.58,0,0,0-57.27,20.29"/></clipPath><mask id="mask" x="-158.63" y="-21.09" width="168.69" height="168.69" maskUnits="userSpaceOnUse"><rect class="cls-1" x="-133.93" y="3.62" width="119.3" height="119.27" transform="translate(-67.2 -34.05) rotate(-45.42)"/></mask><linearGradient id="Degradado_sin_nombre_6" x1="-5920.47" y1="1758.9" x2="-5918.59" y2="1758.9" gradientTransform="matrix(0, 17.24, 17.24, 0, -30395.25, 102127.08)" gradientUnits="userSpaceOnUse"><stop offset="0" stop-color="#fff"/><stop offset="0.1" stop-color="#fff"/><stop offset="0.19" stop-color="#f9f9f9"/><stop offset="0.31" stop-color="#e8e8e7"/><stop offset="0.45" stop-color="#cbcbcb"/><stop offset="0.6" stop-color="#a3a3a3"/><stop offset="0.77" stop-color="#70706f"/><stop offset="0.94" stop-color="#333331"/><stop offset="1" stop-color="#1d1d1b"/></linearGradient><clipPath id="clip-path-3"><rect class="cls-7" x="-117.13" y="20.36" width="84.25" height="85.93"/></clipPath><clipPath id="clip-path-4"><path class="cls-7" d="M-57.27,20.36C-93,24.42-126.36,64-114.81,87.06c2.76,5.48,10.34,12.14,18.24,15.42a51.58,51.58,0,0,0,18.1,3.81c11.49,0,17.94-3,24.84-7.36,14.38-9.05,21-25.54,20.74-38.21A46.18,46.18,0,0,0-57.27,20.36"/></clipPath><mask id="mask-2" x="-168.87" y="-25.98" width="178.7" height="178.62" maskUnits="userSpaceOnUse"><rect class="cls-2" x="-143.06" y="0.19" width="127.07" height="126.27" transform="translate(-60.7 -36.57) rotate(-40.8)"/></mask><linearGradient id="Degradado_sin_nombre_8" x1="-6005.41" y1="1666.87" x2="-6003.53" y2="1666.87" gradientTransform="matrix(0, 26.44, 26.44, 0, -44158.26, 158865.51)" gradientUnits="userSpaceOnUse"><stop offset="0" stop-color="#c38714"/><stop offset="0.02" stop-color="#c38714"/><stop offset="0.19" stop-color="#ca8f13"/><stop offset="0.58" stop-color="#d59e11"/><stop offset="0.9" stop-color="#f1c012"/><stop offset="1" stop-color="#f1c012"/></linearGradient><clipPath id="clip-path-5"><rect class="cls-7" x="36.32" y="34.15" width="92.53" height="90.98"/></clipPath><clipPath id="clip-path-6"><path class="cls-7" d="M128.85,79.64c0,25.12-20.72,45.49-46.27,45.49S36.32,104.76,36.32,79.64,57,34.15,82.58,34.15s46.27,20.37,46.27,45.49"/></clipPath><mask id="mask-3" x="36.32" y="34.15" width="92.53" height="90.98" maskUnits="userSpaceOnUse"><rect class="cls-3" x="36.32" y="34.15" width="92.53" height="90.98"/></mask><radialGradient id="Degradado_sin_nombre_2" cx="-5873.12" cy="1515.06" r="1.88" gradientTransform="matrix(24.39, 0, 0, -24.39, 143318.18, 37029.43)" gradientUnits="userSpaceOnUse"><stop offset="0" stop-color="#fff"/><stop offset="0.11" stop-color="#fafafa"/><stop offset="0.24" stop-color="#ececec"/><stop offset="0.38" stop-color="#d4d4d4"/><stop offset="0.53" stop-color="#b3b3b3"/><stop offset="0.68" stop-color="#898988"/><stop offset="0.84" stop-color="#565654"/><stop offset="0.99" stop-color="#1d1d1b"/><stop offset="1" stop-color="#1d1d1b"/></radialGradient><clipPath id="clip-path-7"><path class="cls-7" d="M28,70.92c.13,25.19,21.38,45.76,45.57,45.57A45.58,45.58,0,1,0,28,70.92"/></clipPath><linearGradient id="Degradado_sin_nombre_3" x1="-5995.58" y1="1491.2" x2="-5993.7" y2="1491.2" gradientTransform="matrix(48.45, 0, 0, -48.45, 290531.97, 72324.01)" gradientUnits="userSpaceOnUse"><stop offset="0" stop-color="#f4d265"/><stop offset="0.06" stop-color="#f4d15f"/><stop offset="0.14" stop-color="#f4cd4d"/><stop offset="0.24" stop-color="#f3c831"/><stop offset="0.32" stop-color="#f3c213"/><stop offset="0.73" stop-color="#f2b509"/><stop offset="1" stop-color="#f1aa00"/><stop offset="1" stop-color="#f1aa00"/></linearGradient><clipPath id="clip-path-8"><rect class="cls-7" x="33.22" y="30.97" width="34.85" height="61.83"/></clipPath><clipPath id="clip-path-9"><path class="cls-7" d="M46.47,92.29a1.86,1.86,0,0,0,.22-.55c.3-1.17-1.53-3.17-2.13-4-6.09-8.85-4.34-19.92.6-28.83A40.63,40.63,0,0,1,55.55,46.54c3.76-2.91,10.69-5.22,12.32-10v-.05a4,4,0,0,0,.18-1c.18-3-3.07-4.92-5.75-4.42a12.13,12.13,0,0,0-4.39,2.07C44.74,41.87,32.14,55,33.29,72c.54,7.85,4.36,15.57,10.74,20.14.9.65,1.93.93,2.44.11"/></clipPath><mask id="mask-4" x="0.86" y="12.5" width="98.65" height="98.65" maskUnits="userSpaceOnUse"><rect class="cls-4" x="15.31" y="26.95" width="69.76" height="69.76" transform="translate(-29.02 53.6) rotate(-45)"/></mask><linearGradient id="Degradado_sin_nombre_4" x1="-5939.17" y1="1735.58" x2="-5937.29" y2="1735.58" gradientTransform="matrix(0, 18.82, 18.82, 0, -32619.4, 111841.04)" gradientUnits="userSpaceOnUse"><stop offset="0" stop-color="#fff"/><stop offset="1" stop-color="#fff"/></linearGradient><clipPath id="clip-path-10"><rect class="cls-7" x="113.69" y="67.87" width="3.46" height="2.68"/></clipPath><clipPath id="clip-path-11"><rect class="cls-7" x="115.11" y="70.26" width="1.44" height="0.2"/></clipPath><clipPath id="clip-path-12"><rect class="cls-7" x="113.93" y="69.54" width="1.28" height="0.49"/></clipPath><clipPath id="clip-path-13"><rect class="cls-7" x="114.27" y="68.1" width="1.42" height="0.22"/></clipPath><clipPath id="clip-path-14"><rect class="cls-7" x="115.63" y="69.15" width="1.52" height="0.51"/></clipPath><clipPath id="clip-path-15"><rect class="cls-7" x="115.06" y="68.01" width="1.45" height="0.17"/></clipPath><clipPath id="clip-path-16"><rect class="cls-7" x="113.69" y="68.88" width="1.09" height="0.49"/></clipPath><clipPath id="clip-path-17"><rect class="cls-7" x="114.43" y="70.4" width="1.44" height="0.15"/></clipPath><clipPath id="clip-path-18"><rect class="cls-7" x="115.86" y="68.9" width="1.17" height="0.49"/></clipPath><clipPath id="clip-path-19"><rect class="cls-7" x="113.95" y="68.44" width="1.29" height="0.41"/></clipPath><clipPath id="clip-path-20"><rect class="cls-7" x="114.59" y="67.87" width="1.42" height="0.49"/></clipPath><clipPath id="clip-path-21"><rect class="cls-7" x="115.65" y="69.62" width="1.29" height="0.43"/></clipPath><clipPath id="clip-path-22"><rect class="cls-7" x="113.75" y="69.44" width="1.16" height="0.47"/></clipPath><clipPath id="clip-path-23"><rect class="cls-7" x="36.32" y="30.56" width="82.77" height="85.93"/></clipPath><clipPath id="clip-path-24"><path class="cls-7" d="M94.71,30.56A45.58,45.58,0,0,1,36.32,97.25,45.58,45.58,0,1,0,94.71,30.56"/></clipPath><mask id="mask-5" x="-6.64" y="-10.82" width="168.69" height="168.69" maskUnits="userSpaceOnUse"><rect class="cls-5" x="18.05" y="13.89" width="119.3" height="119.27" transform="translate(-29.2 77.26) rotate(-45.42)"/></mask><linearGradient id="Degradado_sin_nombre_6-2" x1="-5919.24" y1="1759.28" x2="-5917.36" y2="1759.28" gradientTransform="matrix(0, 17.24, 17.24, 0, -30249.7, 102116.19)" xlink:href="#Degradado_sin_nombre_6"/><clipPath id="clip-path-25"><rect class="cls-7" x="34.85" y="30.63" width="84.24" height="85.93"/></clipPath><clipPath id="clip-path-26"><path class="cls-7" d="M94.71,30.63C59,34.68,25.62,74.29,37.18,97.32c2.75,5.49,10.33,12.14,18.23,15.43a51.82,51.82,0,0,0,18.1,3.81c11.5,0,17.94-3,24.84-7.36,14.38-9.06,21-25.54,20.74-38.22A46.15,46.15,0,0,0,94.71,30.63"/></clipPath><mask id="mask-6" x="-16.89" y="-15.71" width="178.7" height="178.61" maskUnits="userSpaceOnUse"><rect class="cls-6" x="8.93" y="10.46" width="127.07" height="126.27" transform="translate(-30.48 65.23) rotate(-40.8)"/></mask><linearGradient id="Degradado_sin_nombre_8-2" x1="-6004.63" y1="1667.17" x2="-6002.75" y2="1667.17" gradientTransform="matrix(0, 26.44, 26.44, 0, -44014.42, 158855.2)" xlink:href="#Degradado_sin_nombre_8"/></defs><title>iconos</title><g class="cls-8"><g id="Capa_1" data-name="Capa 1"><g class="cls-9"><g class="cls-10"><g class="cls-11"><g class="cls-12"><rect class="cls-13" x="-133.93" y="3.62" width="119.3" height="119.27" transform="translate(-67.2 -34.05) rotate(-45.42)"/></g></g></g></g><g class="cls-14"><g class="cls-15"><g class="cls-16"><g class="cls-17"><rect class="cls-18" x="-143.06" y="0.19" width="127.07" height="126.27" transform="translate(-60.7 -36.57) rotate(-40.8)"/></g></g></g></g><g class="cls-19"><g class="cls-20"><g class="cls-21"><g class="cls-22"><rect class="cls-23" x="36.32" y="34.15" width="92.53" height="90.98"/></g></g></g></g><g class="cls-24"><rect class="cls-25" x="27.83" y="25.34" width="91.28" height="91.34"/></g><g class="cls-26"><g class="cls-27"><g class="cls-28"><g class="cls-29"><rect class="cls-30" x="15.31" y="26.95" width="69.76" height="69.76" transform="translate(-29.02 53.6) rotate(-45)"/></g></g></g></g><g class="cls-31"><g class="cls-32"><g class="cls-33"><g class="cls-34"><path class="cls-35" d="M115.15,70.46h1c.13,0,.39-.18.44-.18l-1.06,0c-.07,0-.52.2-.34.2"/></g></g><g class="cls-33"><g class="cls-36"><path class="cls-35" d="M114.19,70l.91,0c.24,0,0-.47-.09-.47h-.94c-.29,0-.07.48.12.48"/></g></g><g class="cls-33"><g class="cls-37"><path class="cls-35" d="M114.27,68.32l1,0c.12,0,.37-.2.42-.2h-1a1.21,1.21,0,0,0-.42.22"/></g></g><g class="cls-33"><g class="cls-38"><path class="cls-35" d="M116.21,69.66H117c.26,0,.2-.49-.12-.5h-1c-.54,0-.06.51.34.51"/></g></g><g class="cls-33"><g class="cls-39"><path class="cls-35" d="M115.46,68.19l1.05,0a3.16,3.16,0,0,0-.44-.15h-1c-.17,0,.28.18.36.18"/></g></g><g class="cls-33"><g class="cls-40"><path class="cls-35" d="M113.72,69.37h1a1.65,1.65,0,0,0,.06-.49h-1c-.09,0-.12.49-.06.49"/></g></g><g class="cls-33"><g class="cls-41"><path class="cls-35" d="M114.83,70.55h1c-.08,0-.32-.11-.46-.12l-1,0c-.17,0,.28.15.36.15"/></g></g><g class="cls-33"><g class="cls-42"><path class="cls-35" d="M116,69.39h1c.07,0,0-.48-.07-.48h-1c-.15,0-.1.49.06.49"/></g></g><g class="cls-33"><g class="cls-43"><path class="cls-35" d="M114,68.84h1c.12,0,.25-.39.3-.39h-1c-.09,0-.34.41-.25.4"/></g></g><g class="cls-33"><g class="cls-44"><path class="cls-35" d="M114.86,68.36l.82,0c.1,0,.52-.29.23-.32l-1-.11c-.42,0-.46.51-.07.48"/></g></g><g class="cls-33"><g class="cls-45"><path class="cls-35" d="M115.7,70.05h1c.12,0,.25-.42.26-.42h-1c-.1,0-.35.43-.2.43"/></g></g><g class="cls-33"><g class="cls-46"><path class="cls-35" d="M113.92,69.91h1s-.09-.47-.16-.47h-1s0,.47.16.47"/></g></g></g></g><g class="cls-9"><g class="cls-47"><g class="cls-48"><g class="cls-49"><rect class="cls-50" x="18.05" y="13.89" width="119.3" height="119.27" transform="translate(-29.2 77.26) rotate(-45.42)"/></g></g></g></g><g class="cls-14"><g class="cls-51"><g class="cls-52"><g class="cls-53"><rect class="cls-54" x="8.93" y="10.46" width="127.07" height="126.27" transform="translate(-30.48 65.23) rotate(-40.8)"/></g></g></g></g><path class="cls-55" d="M21.78,91.94a54.79,54.79,0,0,1-2-5.91A55.55,55.55,0,0,1,124.71,50"/><path class="cls-56" d="M92.79,103.14c-1.17-2.81-3.68-7-4.14-8.31A79.54,79.54,0,0,1,84.91,76c-.34-3.83.49-9.74-1.91-13.09a11.87,11.87,0,0,1-2.4-5.68c-.39-2.33.31-4.07,1-6.34a32.31,32.31,0,0,0,1-5.4s1-6.18,0-8.72-.94-4.92-1.64-6.26a22.78,22.78,0,0,1-1.63-6.47c0-1.27-4.49-10.41-4.1-12s2.16-3.61,1.54-4.41-2.39-2.47-3.09-2.54-1.78.34-.85,1.21l0,0a3.28,3.28,0,0,0-.63-.06,3.69,3.69,0,0,0-1.25.22l.21-.18c.93-.87-.16-1.27-.85-1.21s-2.48,1.74-3.1,2.54,1.16,2.8,1.55,4.41-4.1,10.74-4.1,12-1.76,5.28-2.46,6.61-.26,3.37-.81,6.12c-1.27,6.33,1.26,13.34.83,19.86-.54,8.1-2.43,16.1-4.3,24-1.55,6.55-3.19,13.09-4.64,19.65-.42,1.85-2.49,5.57.69,6.23,1.15.24,4.5-2,4.43-3a13.68,13.68,0,0,1,1.85-8.89C62.79,89.91,62,86.11,62.94,85s2.63-4,2.71-5.27C65.93,75.34,70.73,72.93,72,69A84.11,84.11,0,0,1,84.91,99.49c.43,2.13.83,4.39,2.41,6.07h0c1.77,1.88,5.1,2.22,6,0a4.27,4.27,0,0,0-.54-2.43M77.14,30.81c-.67.74-.62-2.35-2-3.26A6.14,6.14,0,0,0,72,26.72a6.07,6.07,0,0,0-3.22.83c-1.33.91-1.29,4-1.95,3.26s3.27-14.14,4.12-17.08a12.33,12.33,0,0,0,.47-2.11,3.44,3.44,0,0,0,.8.09l.38,0a12,12,0,0,0,.46,2c.85,2.94,4.66,16.47,4.12,17.08"/><path class="cls-56" d="M49.24,162.18a6.61,6.61,0,0,1-4.06-2.06,18.18,18.18,0,0,1-2.82-4.2,94.49,94.49,0,0,1-6.77-15c-.26-.78-.41-1.85.32-2.25a1.43,1.43,0,0,1,1.66.25c11.74,12.86,12.91,12.1,13.74,11.69s1.31-2.21,1.6-2.9c.84-2,1.36-4.07,2.2-6,1.1-2.56,2-6.36,4.3-8.15,1.17-.9,3.05-1.08,4,0s.51,3.13-.11,4.64l-4.53,11c-.69,1.66-1.49,3.3-2.11,5a22.81,22.81,0,0,1-2,5,6.43,6.43,0,0,1-5,3.11h-.43"/><path class="cls-56" d="M70,132.76a2.45,2.45,0,0,1,1.8.74,2.56,2.56,0,0,1,0,3.64,2.45,2.45,0,0,1-1.8.74,2.56,2.56,0,1,1,0-5.12m0,30.77c2.11.05,2.72-4.92,2.7-6.61,0-2,1-21.51-4.51-16a2.45,2.45,0,0,0-.76,1.82v17.95a2.42,2.42,0,0,0,.76,1.82h0a2.8,2.8,0,0,0,1.81,1"/><path class="cls-56" d="M87,141.59a10.81,10.81,0,0,1,4.14,20.34,9,9,0,0,1-8.51.2,9.81,9.81,0,0,1-4.22-5.34A24.27,24.27,0,0,1,77.22,150a96.84,96.84,0,0,1,0-11.68c.77-12.75,8,2.69,4.91,3.86a10.18,10.18,0,0,1,4.83-.55m4.58,9.22A4.56,4.56,0,0,0,87,146.27h-.07a4.56,4.56,0,0,0-4.57,4.54v3a4.58,4.58,0,0,0,4.57,4.56H87a4.58,4.58,0,0,0,4.54-4.56Z"/><path class="cls-56" d="M102.35,132.77a2.4,2.4,0,0,1,1.8.73,2.47,2.47,0,0,1,.76,1.82,2.56,2.56,0,1,1-2.56-2.55m0,30.79c2.15,0,2.45-5.55,2.55-7,.19-2.92,2-16.41-2.56-16.41a2.42,2.42,0,0,0-1.82.76,2.45,2.45,0,0,0-.76,1.82v17.95a2.42,2.42,0,0,0,.76,1.82,2.85,2.85,0,0,0,1.83,1.07"/></g></g></svg>