<svg id="Capa_1" data-name="Capa 1" xmlns="http://www.w3.org/2000/svg" viewBox="0 0 77 76.84"><defs><style>.cls-1{fill:#518df7;}.cls-2{fill:#28b346;}.cls-3{fill:#faba00;}.cls-4{fill:#78a7f9;}.cls-5{fill:#3dbb58;}.cls-6{fill:#fac017;}.cls-7{fill:#fac015;}.cls-8{fill:#3fbb5a;}.cls-9{fill:#88d598;}.cls-10{fill:#98daa6;}.cls-11{fill:#fcd870;}.cls-12{fill:#fcd971;}.cls-13{fill:#fce08e;}.cls-14{fill:#f04336;}</style></defs><title>iconoGmail</title><path class="cls-1" d="M69.07,63.33a23.46,23.46,0,0,0,8.1-8.08,27.36,27.36,0,0,0,1.52-3c.24-.54.12-.67-.46-.67-3.51,0-7,0-10.52,0-2.86,0-5.71,0-8.57,0-.54,0-.79-.08-.79-.72q0-6.9,0-13.8c0-.51.12-.69.66-.69q17.85,0,35.7,0c.47,0,.64.14.71.61.17,1.09.32,2.18.42,3.27,0,.12,0,.25.15.31v.9a2.58,2.58,0,0,0,0,1.35v3.9c-.17,1.41-.22,2.83-.5,4.22A38.53,38.53,0,0,1,86.58,69a36.23,36.23,0,0,1-4.3,4.19,1,1,0,0,1-.65.34,7.72,7.72,0,0,1-2.45-1.78c-3.21-2.62-6.43-5.22-9.62-7.85C69.35,63.77,69.07,63.66,69.07,63.33Z" transform="translate(-19 -5.16)"/><path class="cls-2" d="M69.07,63.33,81.58,73.5c0,.38-.3.55-.55.75a39.17,39.17,0,0,1-14.1,6.8,39.09,39.09,0,0,1-6.27,1h-.6a.33.33,0,0,0-.45,0H58.7a1.09,1.09,0,0,0-.9,0h-.6A1.89,1.89,0,0,0,56,82h-.46a.33.33,0,0,0-.45,0h-.75a38.89,38.89,0,0,1-5.68-.83,38.35,38.35,0,0,1-15.9-7.93A37.82,37.82,0,0,1,24,62.83a1.68,1.68,0,0,1-.39-1,8.3,8.3,0,0,1,2.25-2q4.77-3.93,9.58-7.81c.19-.15.35-.38.65-.3a24.07,24.07,0,0,0,4.15,6.89,22.9,22.9,0,0,0,28.47,5Z" transform="translate(-19 -5.16)"/><path class="cls-3" d="M36.05,51.64,23.62,61.77c-.43-.15-.57-.55-.74-.89A37.72,37.72,0,0,1,19.19,49,19.32,19.32,0,0,0,19,46.88v-.6c.09-.08.07-.19.08-.3s0-.21-.08-.3v-.6a1.58,1.58,0,0,0,0-1v-.9a1.58,1.58,0,0,0,0-1.05v-.6a.2.2,0,0,0,0-.3v-.9a9.38,9.38,0,0,0,.43-2.53A36.41,36.41,0,0,1,23.33,26c.67,0,1,.57,1.48.93l10.55,8.63a1.07,1.07,0,0,1,.47.56,26.22,26.22,0,0,0-1.2,6.75A24.4,24.4,0,0,0,36.05,51.64Z" transform="translate(-19 -5.16)"/><path class="cls-4" d="M96,42.83a1.36,1.36,0,0,1,0-1.35Z" transform="translate(-19 -5.16)"/><path class="cls-5" d="M56,82a1.11,1.11,0,0,1,1.2,0Z" transform="translate(-19 -5.16)"/><path class="cls-6" d="M19,42.08a.87.87,0,0,1,0,1.05Z" transform="translate(-19 -5.16)"/><path class="cls-7" d="M19,44a.87.87,0,0,1,0,1Z" transform="translate(-19 -5.16)"/><path class="cls-8" d="M57.8,82a.66.66,0,0,1,.9,0Z" transform="translate(-19 -5.16)"/><path class="cls-9" d="M55.09,82c.15-.23.3-.19.45,0Z" transform="translate(-19 -5.16)"/><path class="cls-10" d="M59.61,82c.15-.19.3-.23.45,0Z" transform="translate(-19 -5.16)"/><path class="cls-11" d="M19,41.18c.18.1.16.2,0,.3Z" transform="translate(-19 -5.16)"/><path class="cls-12" d="M19,45.68a.25.25,0,0,1,.13.31c-.05.06-.09.06-.13,0Z" transform="translate(-19 -5.16)"/><path class="cls-13" d="M19,46h.13c0,.12,0,.24-.13.29Z" transform="translate(-19 -5.16)"/><path class="cls-14" d="M35.83,36.09l-9.18-7.45c-1.1-.9-2.21-1.78-3.32-2.67a34.29,34.29,0,0,1,6.05-8.62A37.57,37.57,0,0,1,52.32,5.52a37.92,37.92,0,0,1,29.27,8.09c.41.32.43.46,0,.8q-5.77,4.66-11.51,9.4a.76.76,0,0,1-1,.08,22.89,22.89,0,0,0-33,11.66C36,35.74,35.91,35.91,35.83,36.09Z" transform="translate(-19 -5.16)"/></svg>