<svg xmlns="http://www.w3.org/2000/svg" xmlns:xlink="http://www.w3.org/1999/xlink" viewBox="0 0 126.48 159.67"><defs><style>.cls-1{fill:url(#Degradado_sin_nombre_10);}.cls-2{fill:url(#Degradado_sin_nombre_5);}.cls-3{fill:url(#Degradado_sin_nombre_7);}.cls-4{fill:url(#Degradado_sin_nombre_9);}.cls-45,.cls-5{fill:none;}.cls-6{isolation:isolate;}.cls-19,.cls-35,.cls-7{mix-blend-mode:multiply;}.cls-8{clip-path:url(#clip-path);}.cls-9{clip-path:url(#clip-path-2);}.cls-10{mask:url(#mask);}.cls-11{fill:url(#Degradado_sin_nombre_2);}.cls-12{clip-path:url(#clip-path-3);}.cls-13{fill:url(#Degradado_sin_nombre_3);}.cls-14{opacity:0.21;mix-blend-mode:lighten;}.cls-15{clip-path:url(#clip-path-4);}.cls-16{clip-path:url(#clip-path-5);}.cls-17{mask:url(#mask-2);}.cls-18{fill:url(#Degradado_sin_nombre_4);}.cls-19{opacity:0.17;}.cls-20{clip-path:url(#clip-path-6);}.cls-21{opacity:0.11;}.cls-22{clip-path:url(#clip-path-7);}.cls-23{fill:#ab7719;}.cls-24{clip-path:url(#clip-path-8);}.cls-25{clip-path:url(#clip-path-9);}.cls-26{clip-path:url(#clip-path-10);}.cls-27{clip-path:url(#clip-path-11);}.cls-28{clip-path:url(#clip-path-12);}.cls-29{clip-path:url(#clip-path-13);}.cls-30{clip-path:url(#clip-path-14);}.cls-31{clip-path:url(#clip-path-15);}.cls-32{clip-path:url(#clip-path-16);}.cls-33{clip-path:url(#clip-path-17);}.cls-34{clip-path:url(#clip-path-18);}.cls-35{opacity:0.44;}.cls-36{clip-path:url(#clip-path-19);}.cls-37{clip-path:url(#clip-path-20);}.cls-38{mask:url(#mask-3);}.cls-39{fill:url(#Degradado_sin_nombre_6);}.cls-40{opacity:0.96;}.cls-41{clip-path:url(#clip-path-21);}.cls-42{clip-path:url(#clip-path-22);}.cls-43{mask:url(#mask-4);}.cls-44{fill:url(#Degradado_sin_nombre_8);}.cls-45{stroke:#f3c213;stroke-linecap:round;stroke-miterlimit:10;stroke-width:0.55px;}.cls-46,.cls-47{fill:#1d1d1b;}.cls-46{fill-rule:evenodd;}</style><radialGradient id="Degradado_sin_nombre_10" cx="-6055.99" cy="1509.2" r="1.88" gradientTransform="matrix(24.39, 0, 0, -24.39, 147767.05, 36878.52)" gradientUnits="userSpaceOnUse"><stop offset="0" stop-color="#fff"/><stop offset="0.1" stop-color="#fafafa"/><stop offset="0.23" stop-color="#ececec"/><stop offset="0.36" stop-color="#d4d4d4"/><stop offset="0.5" stop-color="#b3b3b3"/><stop offset="0.64" stop-color="#888"/><stop offset="0.79" stop-color="#535353"/><stop offset="0.94" stop-color="#171717"/><stop offset="0.99"/><stop offset="1"/></radialGradient><linearGradient id="Degradado_sin_nombre_5" x1="-6122.3" y1="1731.18" x2="-6120.42" y2="1731.18" gradientTransform="matrix(0, 18.82, 18.82, 0, -32547.62, 115280.24)" gradientUnits="userSpaceOnUse"><stop offset="0" stop-color="#fff"/><stop offset="1" stop-color="#1a1a1a"/></linearGradient><linearGradient id="Degradado_sin_nombre_7" x1="-6102.23" y1="1755.02" x2="-6100.35" y2="1755.02" gradientTransform="matrix(0, 17.24, 17.24, 0, -30187.24, 105262.8)" gradientUnits="userSpaceOnUse"><stop offset="0" stop-color="#4d4d4d"/><stop offset="0.1" stop-color="#4d4d4d"/><stop offset="0.2" stop-color="#535353"/><stop offset="0.35" stop-color="#656565"/><stop offset="0.51" stop-color="#818181"/><stop offset="0.69" stop-color="#a9a9a9"/><stop offset="0.88" stop-color="#dcdcdc"/><stop offset="1" stop-color="#fff"/></linearGradient><linearGradient id="Degradado_sin_nombre_9" x1="-6188.23" y1="1662.38" x2="-6186.35" y2="1662.38" gradientTransform="matrix(0, 26.44, 26.44, 0, -43898.72, 163702.55)" gradientUnits="userSpaceOnUse"><stop offset="0"/><stop offset="0.02"/><stop offset="0.03" stop-color="#030303"/><stop offset="0.29" stop-color="#404040"/><stop offset="0.48" stop-color="#666"/><stop offset="0.58" stop-color="#757575"/><stop offset="0.9" stop-color="#f1f1f1"/><stop offset="1" stop-color="#f1f1f1"/></linearGradient><clipPath id="clip-path"><rect class="cls-5" x="25.33" y="26.23" width="92.53" height="90.98"/></clipPath><clipPath id="clip-path-2"><path class="cls-5" d="M117.86,71.72c0,25.12-20.71,45.49-46.26,45.49S25.33,96.84,25.33,71.72,46.05,26.23,71.6,26.23s46.26,20.36,46.26,45.49"/></clipPath><mask id="mask" x="25.33" y="26.23" width="92.53" height="90.98" maskUnits="userSpaceOnUse"><rect class="cls-1" x="25.33" y="26.23" width="92.53" height="90.98"/></mask><radialGradient id="Degradado_sin_nombre_2" cx="-6055.99" cy="1509.2" r="1.88" gradientTransform="matrix(24.39, 0, 0, -24.39, 147767.06, 36878.52)" gradientUnits="userSpaceOnUse"><stop offset="0" stop-color="#fff"/><stop offset="0.11" stop-color="#fafafa"/><stop offset="0.24" stop-color="#ececec"/><stop offset="0.38" stop-color="#d4d4d4"/><stop offset="0.53" stop-color="#b3b3b3"/><stop offset="0.68" stop-color="#898988"/><stop offset="0.84" stop-color="#565654"/><stop offset="0.99" stop-color="#1d1d1b"/><stop offset="1" stop-color="#1d1d1b"/></radialGradient><clipPath id="clip-path-3"><path class="cls-5" d="M17,63c.13,25.2,21.38,45.77,45.57,45.57A45.58,45.58,0,1,0,17,63"/></clipPath><linearGradient id="Degradado_sin_nombre_3" x1="-6179.25" y1="1485.27" x2="-6177.37" y2="1485.27" gradientTransform="matrix(48.45, 0, 0, -48.45, 299420.36, 72028.71)" gradientUnits="userSpaceOnUse"><stop offset="0" stop-color="#f4d265"/><stop offset="0.06" stop-color="#f4d15f"/><stop offset="0.14" stop-color="#f4cd4d"/><stop offset="0.24" stop-color="#f3c831"/><stop offset="0.32" stop-color="#f3c213"/><stop offset="0.73" stop-color="#f2b509"/><stop offset="1" stop-color="#f1aa00"/><stop offset="1" stop-color="#f1aa00"/></linearGradient><clipPath id="clip-path-4"><rect class="cls-5" x="22.24" y="23.04" width="34.85" height="61.83"/></clipPath><clipPath id="clip-path-5"><path class="cls-5" d="M35.49,84.37a1.82,1.82,0,0,0,.22-.56c.3-1.17-1.53-3.16-2.13-4-6.09-8.84-4.35-19.92.6-28.83A40.48,40.48,0,0,1,44.57,38.62c3.76-2.92,10.69-5.22,12.32-10.06v0a4,4,0,0,0,.18-1c.18-3-3.07-4.91-5.75-4.42a12.36,12.36,0,0,0-4.4,2.08C33.76,33.94,21.16,47.09,22.31,64.12c.53,7.85,4.35,15.57,10.74,20.14.9.65,1.92.92,2.44.11"/></clipPath><mask id="mask-2" x="-10.12" y="4.58" width="98.65" height="98.65" maskUnits="userSpaceOnUse"><rect class="cls-2" x="4.33" y="19.02" width="69.76" height="69.76" transform="translate(-26.63 43.51) rotate(-45)"/></mask><linearGradient id="Degradado_sin_nombre_4" x1="-6122.3" y1="1731.18" x2="-6120.42" y2="1731.18" gradientTransform="matrix(0, 18.82, 18.82, 0, -32547.62, 115280.25)" gradientUnits="userSpaceOnUse"><stop offset="0" stop-color="#fff"/><stop offset="1" stop-color="#fff"/></linearGradient><clipPath id="clip-path-6"><rect class="cls-5" x="102.71" y="59.95" width="3.46" height="2.68"/></clipPath><clipPath id="clip-path-7"><rect class="cls-5" x="104.13" y="62.33" width="1.44" height="0.2"/></clipPath><clipPath id="clip-path-8"><rect class="cls-5" x="102.94" y="61.62" width="1.28" height="0.49"/></clipPath><clipPath id="clip-path-9"><rect class="cls-5" x="103.29" y="60.17" width="1.42" height="0.22"/></clipPath><clipPath id="clip-path-10"><rect class="cls-5" x="104.65" y="61.22" width="1.52" height="0.51"/></clipPath><clipPath id="clip-path-11"><rect class="cls-5" x="104.08" y="60.09" width="1.45" height="0.18"/></clipPath><clipPath id="clip-path-12"><rect class="cls-5" x="102.71" y="60.96" width="1.09" height="0.49"/></clipPath><clipPath id="clip-path-13"><rect class="cls-5" x="103.45" y="62.47" width="1.44" height="0.15"/></clipPath><clipPath id="clip-path-14"><rect class="cls-5" x="104.88" y="60.98" width="1.17" height="0.49"/></clipPath><clipPath id="clip-path-15"><rect class="cls-5" x="102.97" y="60.51" width="1.29" height="0.41"/></clipPath><clipPath id="clip-path-16"><rect class="cls-5" x="103.61" y="59.95" width="1.42" height="0.49"/></clipPath><clipPath id="clip-path-17"><rect class="cls-5" x="104.67" y="61.69" width="1.29" height="0.43"/></clipPath><clipPath id="clip-path-18"><rect class="cls-5" x="102.77" y="61.51" width="1.17" height="0.47"/></clipPath><clipPath id="clip-path-19"><rect class="cls-5" x="25.33" y="22.63" width="82.77" height="85.93"/></clipPath><clipPath id="clip-path-20"><path class="cls-5" d="M83.72,22.63a45.59,45.59,0,0,1-58.39,66.7,45.58,45.58,0,1,0,58.39-66.7"/></clipPath><mask id="mask-3" x="-17.63" y="-18.75" width="168.69" height="168.69" maskUnits="userSpaceOnUse"><rect class="cls-3" x="7.07" y="5.96" width="119.3" height="119.27" transform="translate(-26.83 67.07) rotate(-45.42)"/></mask><linearGradient id="Degradado_sin_nombre_6" x1="-6102.23" y1="1755.02" x2="-6100.35" y2="1755.02" gradientTransform="matrix(0, 17.24, 17.24, 0, -30187.24, 105262.8)" gradientUnits="userSpaceOnUse"><stop offset="0" stop-color="#fff"/><stop offset="0.1" stop-color="#fff"/><stop offset="0.19" stop-color="#f9f9f9"/><stop offset="0.31" stop-color="#e8e8e7"/><stop offset="0.45" stop-color="#cbcbcb"/><stop offset="0.6" stop-color="#a3a3a3"/><stop offset="0.77" stop-color="#70706f"/><stop offset="0.94" stop-color="#333331"/><stop offset="1" stop-color="#1d1d1b"/></linearGradient><clipPath id="clip-path-21"><rect class="cls-5" x="23.87" y="22.7" width="84.24" height="85.93"/></clipPath><clipPath id="clip-path-22"><path class="cls-5" d="M83.72,22.7C48,26.76,14.64,66.37,26.19,89.4c2.75,5.48,10.34,12.14,18.24,15.42a51.58,51.58,0,0,0,18.1,3.81c11.5,0,17.94-3,24.84-7.36,14.38-9,20.95-25.54,20.73-38.21A46.14,46.14,0,0,0,83.72,22.7"/></clipPath><mask id="mask-4" x="-27.87" y="-23.64" width="178.7" height="178.61" maskUnits="userSpaceOnUse"><rect class="cls-4" x="-2.06" y="2.53" width="127.07" height="126.27" transform="translate(-27.97 56.13) rotate(-40.8)"/></mask><linearGradient id="Degradado_sin_nombre_8" x1="-6188.23" y1="1662.38" x2="-6186.35" y2="1662.38" gradientTransform="matrix(0, 26.44, 26.44, 0, -43898.69, 163702.56)" gradientUnits="userSpaceOnUse"><stop offset="0" stop-color="#c38714"/><stop offset="0.02" stop-color="#c38714"/><stop offset="0.19" stop-color="#ca8f13"/><stop offset="0.58" stop-color="#d59e11"/><stop offset="0.9" stop-color="#f1c012"/><stop offset="1" stop-color="#f1c012"/></linearGradient></defs><title>iconos</title><g class="cls-6"><g id="Capa_1" data-name="Capa 1"><g class="cls-7"><g class="cls-8"><g class="cls-9"><g class="cls-10"><rect class="cls-11" x="25.33" y="26.23" width="92.53" height="90.98"/></g></g></g></g><g class="cls-12"><rect class="cls-13" x="16.85" y="17.41" width="91.28" height="91.35"/></g><g class="cls-14"><g class="cls-15"><g class="cls-16"><g class="cls-17"><rect class="cls-18" x="4.33" y="19.02" width="69.76" height="69.76" transform="translate(-26.63 43.51) rotate(-45)"/></g></g></g></g><g class="cls-19"><g class="cls-20"><g class="cls-21"><g class="cls-22"><path class="cls-23" d="M104.17,62.54h1c.12,0,.39-.18.43-.18h-1c-.08,0-.52.2-.34.2"/></g></g><g class="cls-21"><g class="cls-24"><path class="cls-23" d="M103.21,62.1h.91c.24,0,0-.47-.1-.47h-.94c-.28,0-.07.48.13.47"/></g></g><g class="cls-21"><g class="cls-25"><path class="cls-23" d="M103.29,60.39l1,0c.12,0,.37-.19.42-.19h-1a1.12,1.12,0,0,0-.42.22"/></g></g><g class="cls-21"><g class="cls-26"><path class="cls-23" d="M105.23,61.73H106c.26,0,.19-.49-.12-.49h-1c-.54,0-.06.5.34.5"/></g></g><g class="cls-21"><g class="cls-27"><path class="cls-23" d="M104.48,60.27l1,0a3.52,3.52,0,0,0-.45-.14h-1c-.17,0,.28.18.36.18"/></g></g><g class="cls-21"><g class="cls-28"><path class="cls-23" d="M102.73,61.45h1a2,2,0,0,0,.07-.48h-1c-.09,0-.12.49-.07.49"/></g></g><g class="cls-21"><g class="cls-29"><path class="cls-23" d="M103.85,62.63h1.05c-.08,0-.33-.12-.46-.12l-1,0c-.16,0,.29.16.37.16"/></g></g><g class="cls-21"><g class="cls-30"><path class="cls-23" d="M105,61.47h1c.07,0,0-.49-.07-.49h-1c-.14,0-.09.49.07.49"/></g></g><g class="cls-21"><g class="cls-31"><path class="cls-23" d="M103,60.92l1,0c.12,0,.24-.39.3-.39h-1c-.09,0-.35.4-.25.4"/></g></g><g class="cls-21"><g class="cls-32"><path class="cls-23" d="M103.88,60.44l.82-.06c.1,0,.52-.28.23-.32L104,60c-.42-.05-.46.51-.07.49"/></g></g><g class="cls-21"><g class="cls-33"><path class="cls-23" d="M104.72,62.12h1c.13,0,.26-.42.27-.42h-1c-.09,0-.34.43-.19.43"/></g></g><g class="cls-21"><g class="cls-34"><path class="cls-23" d="M102.94,62h1s-.09-.46-.17-.46h-1s0,.46.16.46"/></g></g></g></g><g class="cls-35"><g class="cls-36"><g class="cls-37"><g class="cls-38"><rect class="cls-39" x="7.07" y="5.96" width="119.3" height="119.27" transform="translate(-26.83 67.07) rotate(-45.42)"/></g></g></g></g><g class="cls-40"><g class="cls-41"><g class="cls-42"><g class="cls-43"><rect class="cls-44" x="-2.06" y="2.53" width="127.07" height="126.27" transform="translate(-27.97 56.13) rotate(-40.8)"/></g></g></g></g><path class="cls-45" d="M10.79,84a58.67,58.67,0,0,1-2-5.91,55.55,55.55,0,0,1,105-36"/><path class="cls-46" d="M113.19,71.64a23.46,23.46,0,0,0-15-2.1c-2.41-2.47-4.22-6.06-6.87-7.91,1.44-3.12,3.81-6,4.34-9.52,1.58-.59,3.38-1,3.79-2.6C99.13,49,99,48.27,98.33,48c-.85-.63-2.41.1-3.23-.12a3.38,3.38,0,0,1-2,1.24c.81-1,.11-3.48.56-4.45A8.51,8.51,0,0,1,93,43.2c-2.43-2.68-6.32-4.07-9.81-5.81-4.23-1.76-7.27-4.56-13.75-4.33-4.34.38-8.6.82-11.36,2.6a22.79,22.79,0,0,0-2.66,12.86c-.85.08-1.18.61-2,.74a18,18,0,0,0-10.1,2.47c.22.76,1.36.71,2.1,1,3.44-1,8.4-1.27,11.64-2.1,0-2.38-.42-5.86.14-8.41,1.11-1.66,1.38-4.06,3.37-4.94a4.92,4.92,0,0,1-1.55,2.22,25.43,25.43,0,0,0-.84,11.63c-.37,0-.25.52-.56.61a161.12,161.12,0,0,1-16.12,1.61c-.85,1.87-.66,4.82,1.4,5.44,1.49-.25,1.84-1.51,3.22-1.85,1.89.64,2.64,2.29,4.35,3.09.27,1.63.36,2.64,1.26,3.71-1,1.7-1.81,3.51-2.8,5.19a45.92,45.92,0,0,0-7.71-.61C32.75,69.52,26,74,26.67,83.14c.69,5.58,4,8.83,7.15,12.25,1.9,1.08,3.48,2.46,6.31,2.72h2.81c.77-.19,1.63-.29,2.38-.5,3.91.18,6.68-1.68,9.26-3.09,3.1-3.28,5.66-7,4.91-13.72-.76-4.12-3.2-6.75-5.75-9.28a10.65,10.65,0,0,1-1.83-.86c1-1.51,1.63-3.35,2.67-4.83,4.59,3.91,9.24,8.4,13.74,12.37,1.43,1.26,2.87,3.18,5.19,3.09-1.73-3.71-5.45-5.67-7.85-8.78-2.87-2.58-5.81-5.76-8.28-8.28A65.82,65.82,0,0,0,65,63.85c1.29-.09,3.37.07,3.23-1.36-.77-.92-2.25-.54-3.51-.49A56.35,56.35,0,0,1,54,61.13c.82-1.53.33-2.28.42-4.08-1.4-1.48-4.15.76-4.91-1.61,3.6-.26,7.82.48,10.38-.86.31.24.63.93,1.12.62,1.73-1.1,2.27-3.49,2.8-5.69s.48-5,1.69-6.8a12.39,12.39,0,0,0,.14,3c2.48,1.52,6,.13,8.69-.38a22.1,22.1,0,0,0,5.47,2.85C76,51.89,72,55.52,70.14,61c-1.26,1.15-1.43,2.52-1.26,4.45A96.35,96.35,0,0,0,76,80.05a24.84,24.84,0,0,0-5.61,3.71c-.18-.35-.88-.25-1.26-.12-.63,1.11-1.73,2.4-1.12,4.2,2.11.48,4.15-.11,4.91-1.23.2-.56-.33-1.1-.14-1.24,3.24,0,4.46-1.67,7-2.23a3.88,3.88,0,0,0,.28-1.6c5-5,6.72-12.79,10.66-18.67A41.34,41.34,0,0,1,96,70.28c-4.06,1.33-8,2.74-10.1,5.82-.14,1.48-1.57,3.71-.7,5.31-1.16.34-2.81.25-3.09,1.36.27,1,2.3.53,3.23,1a10.66,10.66,0,0,0,3.5,9.53,26.19,26.19,0,0,0,3.51,2.22c2.46,1.58,3.13,3,6.59,3.34,5.42.45,11-2.18,15.57-3.71,2.73-2.62,5-5.75,5.33-10.14.52-6.06-4-9.87-6.6-13.36M30.46,88.09c.16-.49.16.49,0,0M50.23,73.75c2.77.85,3.53,3.48,4.49,5.93a69.87,69.87,0,0,0-8,1.24c1.15-2.41,2.4-4.73,3.51-7.17m-6,6.43c-.42-2.52.19-5.19,0-7.92a14.23,14.23,0,0,1,3.23.13c-1.21,2.48-2.13,5.21-3.23,7.79m1.26,2.35h-.28v-.25h.28Zm2.67-11.87c-3.08-1.22-7.21.1-10.38.37,2.15-1.24,8-2,10.38-.37m-5.19,9.89c-1-2.56-1.73-5.4-2.67-8a12.24,12.24,0,0,1,3.09-.25,46.84,46.84,0,0,0-.42,8.29M37.61,71c0,.12-.17.09-.28.12,0-.12.17-.1.28-.12m2,1.73a86.63,86.63,0,0,0,2.53,9.77c-2.86-2-5.06-4.61-8-6.56a9.28,9.28,0,0,1,5.46-3.21m-6.31,3.95a67.62,67.62,0,0,1,6.87,6.06,64.85,64.85,0,0,0-8.69,1.61,10.89,10.89,0,0,1,1.82-7.67m-1.68,8.41a30.39,30.39,0,0,1,4.77-.74c.12,0,.13,0,.14-.12.61.06-.55.43-.84.49a6.59,6.59,0,0,1-1.27.5,13.23,13.23,0,0,1-2.66,1c.08-.48-.25-.61-.14-1.12M32.14,87c3.2-.9,6.18-2.63,9.4-3.09-.45,1.47-2.24,2.8-3.23,4.2s-2.21,2.84-3.08,4.45C33.44,91.35,33,89,32.14,87m4.07,6.55a32,32,0,0,1,2.94-4.45c-.16,1.1-1.34,3.43-1.68,5.2a2.11,2.11,0,0,1-1.26-.75m2.66,1.36A49.57,49.57,0,0,1,42,85.49c.44.19.68.56,1.26.62.3,3.2.79,6.23,1.26,9.28a14,14,0,0,1-5.61-.5m7,.13c-.69-2.77-1-5.85-1.82-8.54.15-.6,1-.56,1.12-1.23C46.51,88,47,91.58,48.69,94a12.38,12.38,0,0,1-2.81,1m3.65-1.61a74,74,0,0,1-4.07-10.64c.54,0,0-.1.14-.37,2.77-.81,6.5-.78,9.4-1.48a2.87,2.87,0,0,1,.42,1.48,39.67,39.67,0,0,0-9.4.37c.2.55,1.15.46,1.69.5,2,.15,4.38-.12,6.31-.13.51-.08,1.06-.13,1.54-.24-.43,4.9-2.27,8.55-6,10.51m8.83-12.24c.64,6.12-1.82,9.52-4.76,12.49a12.16,12.16,0,0,1-1.69.86c0-.1.06-.11.14-.12,1.05-.56,1.47-1.67,2.39-2.35.11-.35-.2-.32-.14-.62,1.8-2.56,3.55-6.78,2.38-10.76.07-.43.66-.41.84-.74-.1-.44-.9-.28-1.26-.5-.87-2.73-1.81-5.4-4.07-6.92-.73,0-.68.64-1.4.62-.2-.47.52-1.07.7-1.61,3.69,2,5.83,5.33,6.87,9.65m8.53-39.06c.23,0,0-1.31.31,0h0a1.23,1.23,0,0,1-.31,0m.59,1.34v-.74c.34-.05.3.22.7.12-.26.19-.21.64-.7.62m5.61-7.79c-.31-.12.12-.62.42-.62.06.39-.38.33-.42.62m3.5,9c.22-.34.61.19.85.24-.12.25-.58-.22-.85-.24M92.16,50.5c.47-.3-.34.41,0,0m-4.07,1c-.76.28-1.53,1.56-2.38,1a7.89,7.89,0,0,1,2.38-1m-4.48-6.8c0,.12-.18.09-.29.12,0-.12.18-.1.29-.12m-2.39,4.94c.19,0,.22.22.42.25-.15.28-.69.22-.84.49-.32-.16.35-.5.42-.74M80.1,80.55A80.18,80.18,0,0,0,78,71.89c-.91-2.68-2.32-5-3.09-7.66,4.33-.1,8-.77,12.62-.62-3.23,5-5,11.27-7.43,16.94m8.69-19a55.2,55.2,0,0,0-13.6,1c5.15-3.78,11.32-6.66,15.71-11.13a2.85,2.85,0,0,0,3.22.87c-1.43,2.9-3.8,6.05-5.33,9.27m12.35,23c.51-.08.24.53.56.62q-4,2.37-8.14,4.58c-.76-.23-1.06-.88-1.4-1.48,3-1.21,5.84-2.6,9-3.72m-9.68,2.85a6.94,6.94,0,0,1-1.4-3.59,76.39,76.39,0,0,1,11.36-.24,74.12,74.12,0,0,0-10,3.83m10.8-1.61c.27.22.78.22,1.12.37-2.24,2.23-4.91,4.08-7.15,6.31-.78-.35-1.19-1-1.83-1.48a90.61,90.61,0,0,0,7.86-5.2m.84-1.61c0-.22-.17-.26-.14-.49h.84c0,.35-.25.53-.7.49M100,72a18.2,18.2,0,0,1,4.49.24,54.13,54.13,0,0,0-.7,6.06c-1.39-2-2.42-4.29-3.79-6.3m-2.8.61c2,2.57,3.29,5.76,5.33,8.29-3.79,0-8.76-.33-12.9,0,.1-4.89,3.31-7,7.57-8.29m-4.35.13c-2,2-5.06,4.11-4.91,8.41-.29.07-.92-.16-1,.12a11.5,11.5,0,0,1,5.89-8.53m9,23.37c-1.9-.14-4-.08-5.47-.62-4.1-2.94-8.1-6-9.4-11.38v-.37h1.54c1.69,5.86,5,10.23,11.22,12.12a17.92,17.92,0,0,0,3.93-.25c-.38.37-1.17.38-1.82.5m-4.49-3c2.08-2,4.42-3.76,6.45-5.81.48,2.09.78,4.34,1.12,6.55-2.51.54-6.07.61-7.57-.74m9.39.37a32.45,32.45,0,0,1-1.68-7.29c0-.49.6-.38.56-.87a28.42,28.42,0,0,1,1.68,8.16Zm8.14-11.62c-2.78.6-6.19,1.3-8.7,1.73,2.06-1.57,5.57-1.85,8-3.09h.28c.55.09.15,1,.42,1.36m0,1.11c-.53,4.77-2.56,8.22-6.31,10.14-.55-3-1.54-5.57-2.11-8.53,2.69-.64,5.6-1.08,8.42-1.61m2.81,1.22a13,13,0,0,1-7.87,10.21c3.61-3.41,6.58-7.33,6.38-12.33a2.39,2.39,0,0,1,0-2.56l-2.7-3.91c1.16,1.48.17,3.66-1.52,4.67a13.16,13.16,0,0,1-5.89,1.27l3.34-7.47A20.19,20.19,0,0,0,105,80.28l.48-7.69L113,75a17.75,17.75,0,0,0-12.81-4.75c8.41-.62,17.14,4.47,17.57,12.34a9.75,9.75,0,0,1,0,1.62"/><path class="cls-46" d="M45.6,36.15c.61.08.79-.21,1.13-.37,2.23,1.83,3.36,4.62,7.15,5.07,2.58-1.68,3.41-4.9,4.2-8.16-.15-.24-.64-.17-.84-.37-.29-1.61-2.44-2.43-1.82-4.08-.5-.45-1.17.47-1.4.25.06-.65,1.07-.46,1.12-1.12-.27-.83-1.38-.92-2.24-1.23-6.58-.59-10.89,4.66-8.42,9.64.44.07.62.37,1.12.37m3.65-2c1.85-1.54,3.94-2.88,5.47-4.7.15,0,.09.24.28.24-1.93,1.56-2.75,4.09-5.61,4.83-.38.12-.68.31-.7.74a1.16,1.16,0,0,1-.7-.87c.46,0,.62-.36,1.26-.24m-.7-5.45c-.16.24-.17.6-.7.5.18-.21.29-.49.7-.5M46.3,30.84c.25.22,0,1-.42,1.11,0-.46.35-.69.42-1.11m-.56,2.47c.2,0,0,.37.28.37-.15.4-.4-.12-.28-.37"/><path class="cls-47" d="M36.91,148a6.58,6.58,0,0,1-4-2.07,18,18,0,0,1-2.82-4.2,94,94,0,0,1-6.77-15c-.26-.78-.41-1.85.32-2.26a1.43,1.43,0,0,1,1.66.26C37,137.55,38.16,136.78,39,136.37s1.31-2.2,1.6-2.89c.84-2,1.35-4.07,2.2-6,1.1-2.55,2-6.36,4.3-8.14,1.17-.91,3-1.08,4,0s.52,3.14-.1,4.65l-4.54,11c-.68,1.65-1.49,3.29-2.11,5a22.29,22.29,0,0,1-2,5,6.44,6.44,0,0,1-5,3.11h-.43"/><path class="cls-47" d="M57.66,118.58a2.41,2.41,0,0,1,1.79.74,2.46,2.46,0,0,1,.77,1.82,2.5,2.5,0,0,1-.77,1.82,2.6,2.6,0,0,1-3.61,0,2.49,2.49,0,0,1-.76-1.82,2.45,2.45,0,0,1,.76-1.82,2.43,2.43,0,0,1,1.82-.74m0,30.77c2.11.05,2.73-4.92,2.71-6.61,0-2,1-21.51-4.51-16a2.49,2.49,0,0,0-.76,1.83v18a2.42,2.42,0,0,0,.76,1.82h0a2.78,2.78,0,0,0,1.8,1"/><path class="cls-47" d="M74.65,127.4a10.82,10.82,0,0,1,4.13,20.35,9,9,0,0,1-8.51.2,9.91,9.91,0,0,1-4.21-5.34,24.27,24.27,0,0,1-1.16-6.83,98.94,98.94,0,0,1,0-11.68c.78-12.75,8,2.69,4.91,3.85a10.36,10.36,0,0,1,4.84-.55m4.57,9.22a4.54,4.54,0,0,0-4.53-4.53h-.07a4.56,4.56,0,0,0-4.57,4.53v3a4.58,4.58,0,0,0,4.57,4.57h.07a4.56,4.56,0,0,0,4.53-4.57Z"/><path class="cls-47" d="M90,118.59a2.4,2.4,0,0,1,1.8.73,2.49,2.49,0,0,1,.76,1.82A2.57,2.57,0,1,1,90,118.59m0,30.79c2.14,0,2.45-5.55,2.55-7,.19-2.92,2-16.41-2.56-16.41a2.46,2.46,0,0,0-1.82.76,2.49,2.49,0,0,0-.76,1.83v18a2.42,2.42,0,0,0,.76,1.82A2.83,2.83,0,0,0,90,149.38"/></g></g></svg>