<?xml version="1.0" encoding="utf-8"?>
<!-- Generator: Adobe Illustrator 24.0.0, SVG Export Plug-In . SVG Version: 6.00 Build 0)  -->
<svg version="1.1" id="Capa_1" xmlns="http://www.w3.org/2000/svg" xmlns:xlink="http://www.w3.org/1999/xlink" x="0px" y="0px"
	 viewBox="0 0 566.93 566.93" style="enable-background:new 0 0 566.93 566.93;" xml:space="preserve">
<style type="text/css">
	.st0{fill:#FFFFFF;}
	.st1{clip-path:url(#SVGID_2_);}
	.st2{filter:url(#Adobe_OpacityMaskFilter);}
	.st3{clip-path:url(#SVGID_4_);fill:url(#SVGID_6_);}
	.st4{clip-path:url(#SVGID_4_);mask:url(#SVGID_5_);fill:url(#SVGID_7_);}
	.st5{clip-path:url(#SVGID_9_);fill:url(#SVGID_10_);}
	.st6{opacity:0.21;}
	.st7{clip-path:url(#SVGID_12_);}
	.st8{filter:url(#Adobe_OpacityMaskFilter_1_);}
	.st9{clip-path:url(#SVGID_14_);fill:url(#SVGID_16_);}
	.st10{clip-path:url(#SVGID_14_);mask:url(#SVGID_15_);fill:url(#SVGID_17_);}
	.st11{opacity:0.44;}
	.st12{clip-path:url(#SVGID_19_);}
	.st13{filter:url(#Adobe_OpacityMaskFilter_2_);}
	.st14{clip-path:url(#SVGID_21_);fill:url(#SVGID_23_);}
	.st15{clip-path:url(#SVGID_21_);mask:url(#SVGID_22_);fill:url(#SVGID_24_);}
	.st16{opacity:0.96;}
	.st17{clip-path:url(#SVGID_26_);}
	.st18{filter:url(#Adobe_OpacityMaskFilter_3_);}
	.st19{clip-path:url(#SVGID_28_);fill:url(#SVGID_30_);}
	.st20{clip-path:url(#SVGID_28_);mask:url(#SVGID_29_);fill:url(#SVGID_31_);}
	.st21{fill:#13110C;}
	.st22{fill:none;stroke:#F4C413;stroke-width:2.0279;stroke-linecap:round;stroke-miterlimit:10;}
	.st23{clip-path:url(#SVGID_33_);}
	.st24{filter:url(#Adobe_OpacityMaskFilter_4_);}
	.st25{clip-path:url(#SVGID_35_);fill:url(#SVGID_37_);}
	.st26{clip-path:url(#SVGID_35_);mask:url(#SVGID_36_);fill:url(#SVGID_38_);}
	.st27{clip-path:url(#SVGID_40_);fill:url(#SVGID_41_);}
	.st28{clip-path:url(#SVGID_43_);}
	.st29{filter:url(#Adobe_OpacityMaskFilter_5_);}
	.st30{clip-path:url(#SVGID_45_);fill:url(#SVGID_47_);}
	.st31{clip-path:url(#SVGID_45_);mask:url(#SVGID_46_);fill:url(#SVGID_48_);}
	.st32{clip-path:url(#SVGID_50_);}
	.st33{filter:url(#Adobe_OpacityMaskFilter_6_);}
	.st34{clip-path:url(#SVGID_52_);fill:url(#SVGID_54_);}
	.st35{clip-path:url(#SVGID_52_);mask:url(#SVGID_53_);fill:url(#SVGID_55_);}
	.st36{clip-path:url(#SVGID_57_);}
	.st37{filter:url(#Adobe_OpacityMaskFilter_7_);}
	.st38{clip-path:url(#SVGID_59_);fill:url(#SVGID_61_);}
	.st39{clip-path:url(#SVGID_59_);mask:url(#SVGID_60_);fill:url(#SVGID_62_);}
	.st40{fill:none;stroke:#F4C413;stroke-width:1.678;stroke-linecap:round;stroke-miterlimit:10;}
</style>
<g>
	<path class="st0" d="M166.27,545.45c-2.03-0.08-4.08-0.49-6.13-1.27c-9.58-3.65-15.15-13.78-19.8-22.53
		c-9.86-18.57-19.02-37.51-25.54-57.58c-0.98-3.01-1.53-7.11,1.21-8.64c1.93-1.08,4.77-0.69,6.25,0.96
		c44.29,49.23,48.69,46.3,51.83,44.73c2.7-1.35,4.94-8.44,6.04-11.08c3.14-7.55,5.1-15.56,8.29-23.09
		c4.15-9.78,7.58-24.34,16.21-31.17c4.4-3.47,11.48-4.15,15.17,0.08c4.09,4.7,1.95,11.99-0.4,17.79l-17.1,42.14
		c-2.57,6.32-5.61,12.59-7.95,18.93c-2.41,6.54-3.68,13.08-7.56,19.02C182.14,540.92,174.42,545.79,166.27,545.45"/>
	<path class="st0" d="M244.49,433.02c2.66,0,4.92,0.91,6.78,2.73c1.91,1.88,2.87,4.13,2.87,6.75c0,2.62-0.96,4.87-2.87,6.75
		c-1.85,1.82-4.11,2.73-6.78,2.73c-2.72,0-5.01-0.91-6.87-2.73c-1.91-1.88-2.87-4.13-2.87-6.75c0-2.62,0.96-4.87,2.87-6.75
		C239.48,433.94,241.77,433.02,244.49,433.02 M244.44,547.06c7.96,0.2,10.27-18.25,10.2-24.49c-0.09-7.48,3.67-79.72-17.01-59.4
		c-1.91,1.88-2.87,4.13-2.87,6.75v66.54c0,2.68,0.96,4.93,2.87,6.75c0,0,0.01,0.01,0.01,0.01
		C240.26,545.88,242.52,547.01,244.44,547.06"/>
	<path class="st0" d="M308.57,465.73c14.17,1.64,27.68,10.31,33.61,23.17c8.5,18.44,0.14,42.68-18.02,52.24
		c-9.84,5.18-22.35,6.06-32.09,0.72c-7.63-4.19-12.92-11.71-15.89-19.79c-2.97-8.07-3.84-16.73-4.37-25.3
		c-0.89-14.41-0.89-28.87,0-43.27c2.92-47.26,30.23,9.96,18.53,14.28C296.16,465.62,302.43,465.02,308.57,465.73 M325.81,499.9
		c0-4.61-1.68-8.57-5.04-11.87c-3.36-3.3-7.39-4.95-12.08-4.95h-0.26c-4.75,0-8.81,1.65-12.17,4.95c-3.36,3.3-5.04,7.26-5.04,11.87
		v11.19c0,4.67,1.68,8.66,5.04,11.96c3.36,3.3,7.42,4.95,12.17,4.95h0.26c4.69,0,8.72-1.65,12.08-4.95
		c3.36-3.3,5.04-7.29,5.04-11.96V499.9z"/>
	<path class="st0" d="M366.56,433.06c2.36-0.07,4.78,0.74,6.78,2.7c1.91,1.88,2.87,4.13,2.87,6.76
		c-0.01,10.63-15.76,12.96-18.94,2.78C355.22,438.72,360.72,433.22,366.56,433.06 M366.6,547.17c8.08,0.11,9.23-20.56,9.6-26
		c0.74-10.82,7.67-60.82-9.64-60.82c-2.72,0-5.01,0.94-6.87,2.82c-1.91,1.88-2.87,4.13-2.87,6.75v66.54c0,2.68,0.96,4.93,2.87,6.75
		C362.43,545.98,364.7,547.15,366.6,547.17"/>
	<g>
		<g>
			<defs>
				<rect id="SVGID_1_" x="146.4" y="90.05" width="343.46" height="337.7"/>
			</defs>
			<clipPath id="SVGID_2_">
				<use xlink:href="#SVGID_1_"  style="overflow:visible;"/>
			</clipPath>
			<g class="st1">
				<defs>
					<path id="SVGID_3_" d="M489.86,258.9c0,93.25-76.89,168.85-171.73,168.85c-94.84,0-171.73-75.6-171.73-168.85
						S223.29,90.05,318.13,90.05C412.97,90.05,489.86,165.65,489.86,258.9"/>
				</defs>
				<clipPath id="SVGID_4_">
					<use xlink:href="#SVGID_3_"  style="overflow:visible;"/>
				</clipPath>
				<defs>
					<filter id="Adobe_OpacityMaskFilter" filterUnits="userSpaceOnUse" x="146.4" y="90.05" width="343.46" height="337.7">
						<feColorMatrix  type="matrix" values="1 0 0 0 0  0 1 0 0 0  0 0 1 0 0  0 0 0 1 0"/>
					</filter>
				</defs>
				<mask maskUnits="userSpaceOnUse" x="146.4" y="90.05" width="343.46" height="337.7" id="SVGID_5_">
					<g class="st2">
						
							<radialGradient id="SVGID_6_" cx="0.0425" cy="567.0313" r="1.2085" gradientTransform="matrix(140.9101 0 0 -140.9101 312.1494 80159.3203)" gradientUnits="userSpaceOnUse">
							<stop  offset="0" style="stop-color:#FFFFFF"/>
							<stop  offset="5.327790e-09" style="stop-color:#FFFFFF"/>
							<stop  offset="0.1037" style="stop-color:#FAFAFA"/>
							<stop  offset="0.2263" style="stop-color:#ECECEC"/>
							<stop  offset="0.3584" style="stop-color:#D4D4D4"/>
							<stop  offset="0.4972" style="stop-color:#B3B3B3"/>
							<stop  offset="0.6414" style="stop-color:#888888"/>
							<stop  offset="0.7901" style="stop-color:#535353"/>
							<stop  offset="0.9396" style="stop-color:#171717"/>
							<stop  offset="0.9911" style="stop-color:#000000"/>
							<stop  offset="1" style="stop-color:#000000"/>
						</radialGradient>
						<rect x="146.4" y="90.05" class="st3" width="343.46" height="337.7"/>
					</g>
				</mask>
				
					<radialGradient id="SVGID_7_" cx="0.0425" cy="567.0313" r="1.2085" gradientTransform="matrix(140.9101 0 0 -140.9101 312.1494 80159.3203)" gradientUnits="userSpaceOnUse">
					<stop  offset="0" style="stop-color:#FFFFFF"/>
					<stop  offset="5.327790e-09" style="stop-color:#FFFFFF"/>
					<stop  offset="0.1037" style="stop-color:#FCFCFC"/>
					<stop  offset="0.2263" style="stop-color:#F1F1F1"/>
					<stop  offset="0.3584" style="stop-color:#E0E0E0"/>
					<stop  offset="0.4972" style="stop-color:#C6C6C6"/>
					<stop  offset="0.6414" style="stop-color:#A4A4A3"/>
					<stop  offset="0.7901" style="stop-color:#767675"/>
					<stop  offset="0.9396" style="stop-color:#393938"/>
					<stop  offset="0.9911" style="stop-color:#000000"/>
					<stop  offset="1" style="stop-color:#000000"/>
				</radialGradient>
				<rect x="146.4" y="90.05" class="st4" width="343.46" height="337.7"/>
			</g>
		</g>
	</g>
	<g>
		<defs>
			<path id="SVGID_8_" d="M115.39,226.5c0.49,93.53,79.35,169.9,169.16,169.16c93.42-0.76,169.16-75.74,169.16-169.16
				c0-93.43-75.74-169.16-169.16-169.16S114.89,133.08,115.39,226.5"/>
		</defs>
		<clipPath id="SVGID_9_">
			<use xlink:href="#SVGID_8_"  style="overflow:visible;"/>
		</clipPath>
		
			<linearGradient id="SVGID_10_" gradientUnits="userSpaceOnUse" x1="-0.1036" y1="566.9991" x2="1.1049" y2="566.9991" gradientTransform="matrix(279.9505 0 0 -279.9505 144.3875 158958.5625)">
			<stop  offset="0" style="stop-color:#F5D365"/>
			<stop  offset="1.065560e-08" style="stop-color:#F5D365"/>
			<stop  offset="0.0732" style="stop-color:#F5D25F"/>
			<stop  offset="0.1728" style="stop-color:#F5CD4B"/>
			<stop  offset="0.2873" style="stop-color:#F4C625"/>
			<stop  offset="0.3179" style="stop-color:#F4C313"/>
			<stop  offset="0.6243" style="stop-color:#F3BB05"/>
			<stop  offset="0.9955" style="stop-color:#F2AB00"/>
			<stop  offset="1" style="stop-color:#F2AB00"/>
		</linearGradient>
		<rect x="114.89" y="57.34" class="st5" width="338.82" height="339.06"/>
	</g>
	<g class="st6">
		<g>
			<defs>
				<rect id="SVGID_11_" x="134.91" y="78.23" width="129.36" height="229.49"/>
			</defs>
			<clipPath id="SVGID_12_">
				<use xlink:href="#SVGID_11_"  style="overflow:visible;"/>
			</clipPath>
			<g class="st7">
				<defs>
					<path id="SVGID_13_" d="M184.09,305.86c0.34-0.55,0.63-1.23,0.83-2.05c1.09-4.35-5.69-11.75-7.91-14.97
						c-22.63-32.83-16.13-73.93,2.23-107c9.7-17.49,22.74-33.53,38.56-45.79c13.96-10.82,39.67-19.37,45.72-37.32l0.05-0.17
						c0.36-1.17,0.6-2.39,0.67-3.61c0.65-11.24-11.41-18.25-21.35-16.41c-5.96,1.1-11.27,4.36-16.32,7.71
						c-48.92,32.45-95.68,81.25-91.39,144.46c1.97,29.13,16.16,57.79,39.85,74.76C178.39,307.86,182.18,308.88,184.09,305.86"/>
				</defs>
				<clipPath id="SVGID_14_">
					<use xlink:href="#SVGID_13_"  style="overflow:visible;"/>
				</clipPath>
				<defs>
					<filter id="Adobe_OpacityMaskFilter_1_" filterUnits="userSpaceOnUse" x="14.8" y="9.69" width="366.19" height="366.19">
						<feColorMatrix  type="matrix" values="1 0 0 0 0  0 1 0 0 0  0 0 1 0 0  0 0 0 1 0"/>
					</filter>
				</defs>
				<mask maskUnits="userSpaceOnUse" x="14.8" y="9.69" width="366.19" height="366.19" id="SVGID_15_">
					<g class="st8">
						
							<linearGradient id="SVGID_16_" gradientUnits="userSpaceOnUse" x1="-0.3609" y1="566.91" x2="0.8477" y2="566.91" gradientTransform="matrix(76.9032 76.9032 76.9032 -76.9032 -43414.7383 43774.4727)">
							<stop  offset="0" style="stop-color:#FFFFFF"/>
							<stop  offset="1" style="stop-color:#1A1A1A"/>
						</linearGradient>
						<polygon class="st9" points="197.9,9.69 380.99,192.78 197.9,375.88 14.8,192.78 						"/>
					</g>
				</mask>
				
					<linearGradient id="SVGID_17_" gradientUnits="userSpaceOnUse" x1="-0.3609" y1="566.91" x2="0.8477" y2="566.91" gradientTransform="matrix(76.9032 76.9032 76.9032 -76.9032 -43414.7383 43774.4727)">
					<stop  offset="0" style="stop-color:#FFFFFF"/>
					<stop  offset="1" style="stop-color:#FFFFFF"/>
				</linearGradient>
				<polygon class="st10" points="197.9,9.69 380.99,192.78 197.9,375.88 14.8,192.78 				"/>
			</g>
		</g>
	</g>
	<g class="st11">
		<g>
			<defs>
				<rect id="SVGID_18_" x="146.4" y="76.71" width="307.24" height="318.96"/>
			</defs>
			<clipPath id="SVGID_19_">
				<use xlink:href="#SVGID_18_"  style="overflow:visible;"/>
			</clipPath>
			<g class="st12">
				<defs>
					<path id="SVGID_20_" d="M363.14,76.71c19.58,27.61,31.09,61.34,31.09,97.76c0,93.43-75.74,169.17-169.16,169.17
						c-28.4,0-55.17-7-78.67-19.37c30.65,43.21,81.07,71.4,138.07,71.4c93.43,0,169.16-75.74,169.16-169.16
						C453.64,161.48,416.95,105.02,363.14,76.71"/>
				</defs>
				<clipPath id="SVGID_21_">
					<use xlink:href="#SVGID_20_"  style="overflow:visible;"/>
				</clipPath>
				<defs>
					<filter id="Adobe_OpacityMaskFilter_2_" filterUnits="userSpaceOnUse" x="-13.06" y="-76.9" width="626.16" height="626.17">
						<feColorMatrix  type="matrix" values="1 0 0 0 0  0 1 0 0 0  0 0 1 0 0  0 0 0 1 0"/>
					</filter>
				</defs>
				<mask maskUnits="userSpaceOnUse" x="-13.06" y="-76.9" width="626.16" height="626.17" id="SVGID_22_">
					<g class="st13">
						
							<linearGradient id="SVGID_23_" gradientUnits="userSpaceOnUse" x1="-0.0862" y1="567.1136" x2="1.1223" y2="567.1136" gradientTransform="matrix(70.9403 69.9122 69.9122 -70.9403 -39332.7227 40482.5703)">
							<stop  offset="0" style="stop-color:#4D4D4D"/>
							<stop  offset="0.0983" style="stop-color:#4D4D4D"/>
							<stop  offset="0.2026" style="stop-color:#535353"/>
							<stop  offset="0.3448" style="stop-color:#646464"/>
							<stop  offset="0.5089" style="stop-color:#818181"/>
							<stop  offset="0.6893" style="stop-color:#A9A9A9"/>
							<stop  offset="0.8807" style="stop-color:#DCDCDC"/>
							<stop  offset="1" style="stop-color:#FFFFFF"/>
						</linearGradient>
						<polygon class="st14" points="297.78,-76.9 613.1,233.86 302.26,549.27 -13.06,238.52 						"/>
					</g>
				</mask>
				
					<linearGradient id="SVGID_24_" gradientUnits="userSpaceOnUse" x1="-0.0862" y1="567.1136" x2="1.1223" y2="567.1136" gradientTransform="matrix(70.9403 69.9122 69.9122 -70.9403 -39332.7227 40482.5703)">
					<stop  offset="0" style="stop-color:#FFFFFF"/>
					<stop  offset="0.0983" style="stop-color:#FFFFFF"/>
					<stop  offset="0.1813" style="stop-color:#FBFBFB"/>
					<stop  offset="0.2945" style="stop-color:#EEEEEE"/>
					<stop  offset="0.4251" style="stop-color:#D9D9D9"/>
					<stop  offset="0.5687" style="stop-color:#BABABA"/>
					<stop  offset="0.7231" style="stop-color:#8F8F8F"/>
					<stop  offset="0.8838" style="stop-color:#565555"/>
					<stop  offset="1" style="stop-color:#000000"/>
				</linearGradient>
				<polygon class="st15" points="297.78,-76.9 613.1,233.86 302.26,549.27 -13.06,238.52 				"/>
			</g>
		</g>
	</g>
	<g class="st16">
		<g>
			<defs>
				<rect id="SVGID_25_" x="140.95" y="76.96" width="312.71" height="318.96"/>
			</defs>
			<clipPath id="SVGID_26_">
				<use xlink:href="#SVGID_25_"  style="overflow:visible;"/>
			</clipPath>
			<g class="st17">
				<defs>
					<path id="SVGID_27_" d="M363.14,76.96C230.66,92.01,106.69,239.04,149.59,324.54c10.21,20.35,38.36,45.06,67.68,57.25
						c28.32,11.77,56.65,14.13,67.21,14.13c42.66,0.01,66.6-11.19,92.2-27.31c53.38-33.61,77.78-94.8,76.97-141.85
						C452.52,161.74,416.95,105.28,363.14,76.96"/>
				</defs>
				<clipPath id="SVGID_28_">
					<use xlink:href="#SVGID_27_"  style="overflow:visible;"/>
				</clipPath>
				<defs>
					<filter id="Adobe_OpacityMaskFilter_3_" filterUnits="userSpaceOnUse" x="-51.08" y="-95.05" width="663.3" height="662.99">
						<feColorMatrix  type="matrix" values="1 0 0 0 0  0 1 0 0 0  0 0 1 0 0  0 0 0 1 0"/>
					</filter>
				</defs>
				<mask maskUnits="userSpaceOnUse" x="-51.08" y="-95.05" width="663.3" height="662.99" id="SVGID_29_">
					<g class="st18">
						
							<linearGradient id="SVGID_30_" gradientUnits="userSpaceOnUse" x1="-0.1142" y1="566.9524" x2="1.0943" y2="566.9524" gradientTransform="matrix(99.8333 115.6606 115.6606 -99.8333 -65294.4805 56835.9961)">
							<stop  offset="0" style="stop-color:#000000"/>
							<stop  offset="0.0154" style="stop-color:#000000"/>
							<stop  offset="0.0238" style="stop-color:#020202"/>
							<stop  offset="0.2871" style="stop-color:#404040"/>
							<stop  offset="0.4801" style="stop-color:#666666"/>
							<stop  offset="0.5811" style="stop-color:#757575"/>
							<stop  offset="0.8967" style="stop-color:#F1F1F1"/>
							<stop  offset="1" style="stop-color:#F1F1F1"/>
						</linearGradient>
						<polygon class="st19" points="305.97,-95.05 612.22,259.75 255.17,567.94 -51.08,213.14 						"/>
					</g>
				</mask>
				
					<linearGradient id="SVGID_31_" gradientUnits="userSpaceOnUse" x1="-0.1142" y1="566.9524" x2="1.0943" y2="566.9524" gradientTransform="matrix(99.8333 115.6606 115.6606 -99.8333 -65294.4805 56835.9961)">
					<stop  offset="0" style="stop-color:#C48814"/>
					<stop  offset="0.0154" style="stop-color:#C48814"/>
					<stop  offset="0.2066" style="stop-color:#CB9114"/>
					<stop  offset="0.5811" style="stop-color:#D69F13"/>
					<stop  offset="0.8967" style="stop-color:#F1C012"/>
					<stop  offset="1" style="stop-color:#F1C012"/>
				</linearGradient>
				<polygon class="st20" points="305.97,-95.05 612.22,259.75 255.17,567.94 -51.08,213.14 				"/>
			</g>
		</g>
	</g>
	<path class="st21" d="M153.87,358.7c5.89,3.66,26.65-5.11,26.83-4.9c0.43,0.5,1.27-0.03,1.64-0.7c0.37-0.68,0.39-1.46,0.37-2.22
		c-0.09-4.09-0.82-8.17-2.17-12.08c-0.51-1.46-1.1-2.93-1.22-4.46c-0.25-3.23,1.65-6.29,1.95-9.51c2.55-1.94,2.95-4.81,3.93-7.38
		c3.95-10.41,17.43-15.94,22.13-26.11c2.63-5.67,2.2-12.16,4.7-17.89c0.89-1.72,2.46-3.72,4.03-5.73c1.5-1.92,3-3.84,4.79-5.55
		c2.59-2.46,5.72-4.43,8.82-6.38c36.39-22.87,46.93,3.07,73.09,28.87c9.74,9.61,23.2,16.98,37.75,17.24
		c10.38,0.18,20.58-3.21,30.94-2.65c16.86,0.91,27.19,13.81,36.83,22.89c6.3-6.64,7.63-14.45,6.59-23.2
		c-1.02-8.56-6.42-17.27-15.49-20.28c-18.12-6.03-37.81,12.81-56.11,7.21c-16.08-4.92-18.31-23.73-21.33-38.61
		c-5.66-27.85-39.17-86.2-62.95-105.13c-6.53-5.2-13.78-9.62-21-14.02c-0.51-0.31-1.02-0.62-1.34-1.1
		c-0.82-1.24,0.16-2.76,0.78-4.09c1.11-2.37,1.02-5.17-0.25-7.48c-1.48,0.02-1.48-1.37-0.87-2.28c0.6-0.91,1.61-1.56,2.28-2.42
		c0.67-0.87,0.89-2.2-0.03-2.87c1.02-0.37,0.9-1.99-0.17-2.23c0.74-1.5-0.87-3.36-2.63-3.38c0.08-0.08,0.13-0.17,0.13-0.26
		c0.03-0.33-0.24-0.63-0.49-0.89c-0.49-0.49-0.98-1-1.46-1.5c-0.28-0.29-0.64-0.61-1.07-0.6c-0.14,0-0.26,0.06-0.35,0.15
		c0-0.6-0.09-1.18-0.5-1.64c-0.56-0.63-1.91-0.65-2.16,0.11c0.22-0.73-0.25-1.57-1.02-1.86c-0.77-0.3-1.78-0.03-2.22,0.61
		c-0.25-0.7-0.61-1.46-1.38-1.76c-0.76-0.29-1.87,0.37-1.53,1.04c-1.02-1.65-4.28-1.49-5.1,0.24c-0.36-1.44-2.95-1.87-3.86-0.62
		c-0.47-0.71-1.6-0.97-2.4-0.56c-0.78,0.4-1.09,1.41-0.64,2.12c-0.66-0.77-1.92-1.07-2.92-0.71c-1.01,0.36-1.67,1.37-1.52,2.33
		c-0.61-0.74-2.01-0.63-2.69,0.05c-0.69,0.68-0.78,1.7-0.56,2.58c-0.95-0.8-2.66-0.46-3.42,0.47c-0.76,0.94-0.7,2.26-0.18,3.32
		c-1.27-0.37-2.79,0.04-3.63,0.98c-0.83,0.93-0.94,2.33-0.26,3.36c-1.52,0.61-1.68,2.84-0.26,3.61c-1,1.23-0.99,3.03,0,4.27
		c-0.06,0-0.1,0.01-0.15,0.04c-0.19,0.14-0.18,0.39-0.14,0.61c0.33,1.67,1.33,3.16,2.32,4.6c1.13,1.69,2.3,3.4,3.97,4.69
		c1.01,0.78,2.19,1.4,2.94,2.38c0.75,0.97,0.86,2.48-0.19,3.2c0.61,0.91-0.58,1.37-1.48,1.75c-2.68,1.11-4.37,3.64-4.88,6.24
		c-0.52,2.59-0.02,5.27,0.66,7.83c8.01,30.35-3.57,22.94-29.43,36.03c-9.56,4.84-17.54,13.25-18.22,23.01
		c-0.85,12.28,11.85,23.93,25.68,23.55c13.83-0.38,25.7-12.69,24.01-24.9c9.25,0.78,18.51,1.56,27.76,2.34
		c-20.13,35.04-40.22,70.1-60.38,105.13c-4.08,7.09-21.55,27.95-18.87,39.57C150.39,355.43,151.64,357.32,153.87,358.7
		 M233.82,198.36c-2.11-0.1-4.23-0.19-6.35-0.29c-1.38-0.06-2.79-0.13-4.09-0.57c-1.28-0.42-2.4-1.19-3.63-1.73
		c-1.92-0.83-4.09-1.07-6.1-1.72c-1.5-0.47-3.13-1.61-2.74-2.97c0.12-0.46,0.49-0.85,0.89-1.17c1.9-1.51,4.95-1.9,6.1-3.91
		c0.51-0.9,0.52-1.94,0.5-2.93c-0.11-4.19-0.76-8.36-1.92-12.42c4.2,3.12,8.91,7.62,13.62,12.13c3.57,3.4,7.35,7.28,7.39,11.93
		c0.02,1.44-0.59,3.13-2.15,3.54C234.85,198.4,234.33,198.38,233.82,198.36"/>
	<path class="st22" d="M92.43,304.54c-2.87-6.99-5.37-14.58-7.47-21.94c-5.14-18.02-7.9-37.04-7.9-56.71
		c0-113.85,92.29-206.14,206.14-206.14c86.64,0,160.8,53.46,191.3,129.19"/>
</g>
<g>
	<path class="st0" d="M2903.71,593.3c-1.68-0.07-3.38-0.41-5.07-1.05c-7.93-3.02-12.54-11.4-16.38-18.64
		c-8.16-15.37-15.73-31.04-21.14-47.64c-0.81-2.49-1.26-5.88,1-7.15c1.6-0.89,3.95-0.57,5.17,0.8
		c36.65,40.73,40.29,38.31,42.89,37.01c2.24-1.12,4.09-6.99,4.99-9.17c2.6-6.25,4.22-12.88,6.86-19.11
		c3.43-8.09,6.27-20.14,13.42-25.79c3.64-2.88,9.5-3.44,12.55,0.07c3.39,3.89,1.61,9.92-0.33,14.72l-14.15,34.87
		c-2.12,5.23-4.65,10.42-6.58,15.66c-1.99,5.41-3.05,10.82-6.25,15.74C2916.84,589.55,2910.45,593.58,2903.71,593.3"/>
	<path class="st0" d="M2968.43,500.27c2.2,0,4.07,0.75,5.61,2.26c1.58,1.55,2.37,3.42,2.37,5.58c0,2.17-0.79,4.03-2.37,5.58
		c-1.53,1.51-3.4,2.26-5.61,2.26c-2.25,0-4.15-0.75-5.68-2.26c-1.58-1.56-2.37-3.42-2.37-5.58c0-2.17,0.79-4.03,2.37-5.58
		C2964.28,501.02,2966.18,500.27,2968.43,500.27 M2968.39,594.63c6.59,0.16,8.5-15.1,8.44-20.26c-0.08-6.19,3.04-65.97-14.08-49.15
		c-1.58,1.55-2.37,3.42-2.37,5.58v55.05c0,2.22,0.79,4.08,2.37,5.58c0,0,0.01,0.01,0.01,0.01
		C2964.93,593.65,2966.8,594.59,2968.39,594.63"/>
	<path class="st0" d="M3021.45,527.33c11.73,1.36,22.9,8.53,27.81,19.17c7.03,15.26,0.11,35.32-14.91,43.22
		c-8.14,4.29-18.49,5.02-26.55,0.59c-6.31-3.46-10.69-9.69-13.15-16.37c-2.46-6.68-3.17-13.85-3.61-20.94
		c-0.74-11.92-0.73-23.89,0-35.81c2.42-39.11,25.01,8.24,15.33,11.82C3011.19,527.24,3016.37,526.74,3021.45,527.33 M3035.72,555.61
		c0-3.82-1.39-7.09-4.17-9.82c-2.78-2.73-6.11-4.1-9.99-4.1h-0.22c-3.93,0-7.29,1.37-10.07,4.1c-2.78,2.73-4.17,6.01-4.17,9.82v9.26
		c0,3.86,1.39,7.16,4.17,9.89c2.78,2.73,6.14,4.1,10.07,4.1h0.22c3.88,0,7.21-1.37,9.99-4.1c2.78-2.73,4.17-6.03,4.17-9.89V555.61z"
		/>
	<path class="st0" d="M3069.44,500.3c1.96-0.05,3.96,0.61,5.61,2.24c1.58,1.55,2.37,3.42,2.37,5.59
		c-0.01,8.79-13.04,10.72-15.67,2.3C3060.05,504.98,3064.6,500.43,3069.44,500.3 M3069.47,594.72c6.69,0.09,7.63-17.02,7.94-21.51
		c0.61-8.96,6.35-50.32-7.98-50.32c-2.25,0-4.15,0.78-5.68,2.33c-1.58,1.55-2.37,3.42-2.37,5.58v55.05c0,2.21,0.79,4.08,2.37,5.58
		C3066.02,593.74,3067.9,594.7,3069.47,594.72"/>
	<g>
		<g>
			<defs>
				<rect id="SVGID_32_" x="2887.27" y="216.48" width="284.19" height="279.43"/>
			</defs>
			<clipPath id="SVGID_33_">
				<use xlink:href="#SVGID_32_"  style="overflow:visible;"/>
			</clipPath>
			<g class="st23">
				<defs>
					<path id="SVGID_34_" d="M3171.46,356.19c0,77.16-63.62,139.71-142.1,139.71c-78.48,0-142.09-62.55-142.09-139.71
						s63.62-139.71,142.09-139.71C3107.84,216.48,3171.46,279.03,3171.46,356.19"/>
				</defs>
				<clipPath id="SVGID_35_">
					<use xlink:href="#SVGID_34_"  style="overflow:visible;"/>
				</clipPath>
				<defs>
					<filter id="Adobe_OpacityMaskFilter_4_" filterUnits="userSpaceOnUse" x="2887.27" y="216.48" width="284.19" height="279.43">
						<feColorMatrix  type="matrix" values="1 0 0 0 0  0 1 0 0 0  0 0 1 0 0  0 0 0 1 0"/>
					</filter>
				</defs>
				<mask maskUnits="userSpaceOnUse" x="2887.27" y="216.48" width="284.19" height="279.43" id="SVGID_36_">
					<g class="st24">
						
							<radialGradient id="SVGID_37_" cx="19.2833" cy="566.3409" r="1" gradientTransform="matrix(140.9101 0 0 -140.9101 312.1494 80159.3203)" gradientUnits="userSpaceOnUse">
							<stop  offset="0" style="stop-color:#FFFFFF"/>
							<stop  offset="5.327790e-09" style="stop-color:#FFFFFF"/>
							<stop  offset="0.1037" style="stop-color:#FAFAFA"/>
							<stop  offset="0.2263" style="stop-color:#ECECEC"/>
							<stop  offset="0.3584" style="stop-color:#D4D4D4"/>
							<stop  offset="0.4972" style="stop-color:#B3B3B3"/>
							<stop  offset="0.6414" style="stop-color:#888888"/>
							<stop  offset="0.7901" style="stop-color:#535353"/>
							<stop  offset="0.9396" style="stop-color:#171717"/>
							<stop  offset="0.9911" style="stop-color:#000000"/>
							<stop  offset="1" style="stop-color:#000000"/>
						</radialGradient>
						<rect x="2887.27" y="216.48" class="st25" width="284.19" height="279.43"/>
					</g>
				</mask>
				
					<radialGradient id="SVGID_38_" cx="19.2833" cy="566.3409" r="1" gradientTransform="matrix(140.9101 0 0 -140.9101 312.1494 80159.3203)" gradientUnits="userSpaceOnUse">
					<stop  offset="0" style="stop-color:#FFFFFF"/>
					<stop  offset="5.327790e-09" style="stop-color:#FFFFFF"/>
					<stop  offset="0.1037" style="stop-color:#FCFCFC"/>
					<stop  offset="0.2263" style="stop-color:#F1F1F1"/>
					<stop  offset="0.3584" style="stop-color:#E0E0E0"/>
					<stop  offset="0.4972" style="stop-color:#C6C6C6"/>
					<stop  offset="0.6414" style="stop-color:#A4A4A3"/>
					<stop  offset="0.7901" style="stop-color:#767675"/>
					<stop  offset="0.9396" style="stop-color:#393938"/>
					<stop  offset="0.9911" style="stop-color:#000000"/>
					<stop  offset="1" style="stop-color:#000000"/>
				</radialGradient>
				<rect x="2887.27" y="216.48" class="st26" width="284.19" height="279.43"/>
			</g>
		</g>
	</g>
	<g>
		<defs>
			<path id="SVGID_39_" d="M2861.61,329.39c0.41,77.39,65.66,140.58,139.97,139.97c77.3-0.63,139.97-62.67,139.97-139.97
				c0-77.3-62.67-139.97-139.97-139.97S2861.2,252.08,2861.61,329.39"/>
		</defs>
		<clipPath id="SVGID_40_">
			<use xlink:href="#SVGID_39_"  style="overflow:visible;"/>
		</clipPath>
		
			<linearGradient id="SVGID_41_" gradientUnits="userSpaceOnUse" x1="9.7061" y1="566.6319" x2="10.7061" y2="566.6319" gradientTransform="matrix(279.9505 0 0 -279.9505 144.3875 158958.5625)">
			<stop  offset="0" style="stop-color:#F5D365"/>
			<stop  offset="1.065560e-08" style="stop-color:#F5D365"/>
			<stop  offset="0.0732" style="stop-color:#F5D25F"/>
			<stop  offset="0.1728" style="stop-color:#F5CD4B"/>
			<stop  offset="0.2873" style="stop-color:#F4C625"/>
			<stop  offset="0.3179" style="stop-color:#F4C313"/>
			<stop  offset="0.6243" style="stop-color:#F3BB05"/>
			<stop  offset="0.9955" style="stop-color:#F2AB00"/>
			<stop  offset="1" style="stop-color:#F2AB00"/>
		</linearGradient>
		<rect x="2861.2" y="189.41" class="st27" width="280.36" height="280.55"/>
	</g>
	<g class="st6">
		<g>
			<defs>
				<rect id="SVGID_42_" x="2877.76" y="206.7" width="107.04" height="189.89"/>
			</defs>
			<clipPath id="SVGID_43_">
				<use xlink:href="#SVGID_42_"  style="overflow:visible;"/>
			</clipPath>
			<g class="st28">
				<defs>
					<path id="SVGID_44_" d="M2918.45,395.05c0.28-0.45,0.52-1.01,0.69-1.7c0.9-3.6-4.71-9.72-6.55-12.39
						c-18.72-27.16-13.34-61.17,1.84-88.54c8.03-14.47,18.81-27.74,31.91-37.89c11.55-8.95,32.83-16.03,37.83-30.88l0.05-0.14
						c0.3-0.96,0.5-1.98,0.56-2.98c0.54-9.3-9.44-15.1-17.66-13.58c-4.93,0.91-9.32,3.61-13.51,6.38
						c-40.48,26.85-79.17,67.23-75.62,119.54c1.63,24.11,13.37,47.82,32.97,61.86C2913.74,396.7,2916.88,397.55,2918.45,395.05"/>
				</defs>
				<clipPath id="SVGID_45_">
					<use xlink:href="#SVGID_44_"  style="overflow:visible;"/>
				</clipPath>
				<defs>
					<filter id="Adobe_OpacityMaskFilter_5_" filterUnits="userSpaceOnUse" x="2778.38" y="149.98" width="303" height="303">
						<feColorMatrix  type="matrix" values="1 0 0 0 0  0 1 0 0 0  0 0 1 0 0  0 0 0 1 0"/>
					</filter>
				</defs>
				<mask maskUnits="userSpaceOnUse" x="2778.38" y="149.98" width="303" height="303" id="SVGID_46_">
					<g class="st29">
						
							<linearGradient id="SVGID_47_" gradientUnits="userSpaceOnUse" x1="18.2053" y1="583.9657" x2="19.2053" y2="583.9657" gradientTransform="matrix(76.9032 76.9032 76.9032 -76.9032 -43414.7383 43774.4727)">
							<stop  offset="0" style="stop-color:#FFFFFF"/>
							<stop  offset="1" style="stop-color:#1A1A1A"/>
						</linearGradient>
						<polygon class="st30" points="2929.88,149.98 3081.38,301.48 2929.88,452.99 2778.38,301.48 						"/>
					</g>
				</mask>
				
					<linearGradient id="SVGID_48_" gradientUnits="userSpaceOnUse" x1="18.2053" y1="583.9657" x2="19.2053" y2="583.9657" gradientTransform="matrix(76.9032 76.9032 76.9032 -76.9032 -43414.7383 43774.4727)">
					<stop  offset="0" style="stop-color:#FFFFFF"/>
					<stop  offset="1" style="stop-color:#FFFFFF"/>
				</linearGradient>
				<polygon class="st31" points="2929.88,149.98 3081.38,301.48 2929.88,452.99 2778.38,301.48 				"/>
			</g>
		</g>
	</g>
	<g class="st11">
		<g>
			<defs>
				<rect id="SVGID_49_" x="2887.27" y="205.44" width="254.22" height="263.92"/>
			</defs>
			<clipPath id="SVGID_50_">
				<use xlink:href="#SVGID_49_"  style="overflow:visible;"/>
			</clipPath>
			<g class="st32">
				<defs>
					<path id="SVGID_51_" d="M3066.61,205.44c16.2,22.84,25.73,50.75,25.73,80.89c0,77.31-62.67,139.98-139.97,139.98
						c-23.5,0-45.65-5.79-65.09-16.03c25.36,35.75,67.08,59.08,114.25,59.08c77.3,0,139.97-62.67,139.97-139.97
						C3141.49,275.58,3111.13,228.87,3066.61,205.44"/>
				</defs>
				<clipPath id="SVGID_52_">
					<use xlink:href="#SVGID_51_"  style="overflow:visible;"/>
				</clipPath>
				<defs>
					<filter id="Adobe_OpacityMaskFilter_6_" filterUnits="userSpaceOnUse" x="2755.32" y="78.34" width="518.11" height="518.12">
						<feColorMatrix  type="matrix" values="1 0 0 0 0  0 1 0 0 0  0 0 1 0 0  0 0 0 1 0"/>
					</filter>
				</defs>
				<mask maskUnits="userSpaceOnUse" x="2755.32" y="78.34" width="518.11" height="518.12" id="SVGID_53_">
					<g class="st33">
						
							<linearGradient id="SVGID_54_" gradientUnits="userSpaceOnUse" x1="20.0151" y1="585.5191" x2="21.0151" y2="585.5191" gradientTransform="matrix(70.9403 69.9122 69.9122 -70.9403 -39332.7227 40482.5703)">
							<stop  offset="0" style="stop-color:#4D4D4D"/>
							<stop  offset="0.0983" style="stop-color:#4D4D4D"/>
							<stop  offset="0.2026" style="stop-color:#535353"/>
							<stop  offset="0.3448" style="stop-color:#646464"/>
							<stop  offset="0.5089" style="stop-color:#818181"/>
							<stop  offset="0.6893" style="stop-color:#A9A9A9"/>
							<stop  offset="0.8807" style="stop-color:#DCDCDC"/>
							<stop  offset="1" style="stop-color:#FFFFFF"/>
						</linearGradient>
						<polygon class="st34" points="3012.53,78.34 3273.44,335.47 3016.24,596.46 2755.32,339.32 						"/>
					</g>
				</mask>
				
					<linearGradient id="SVGID_55_" gradientUnits="userSpaceOnUse" x1="20.0151" y1="585.5191" x2="21.0151" y2="585.5191" gradientTransform="matrix(70.9403 69.9122 69.9122 -70.9403 -39332.7227 40482.5703)">
					<stop  offset="0" style="stop-color:#FFFFFF"/>
					<stop  offset="0.0983" style="stop-color:#FFFFFF"/>
					<stop  offset="0.1813" style="stop-color:#FBFBFB"/>
					<stop  offset="0.2945" style="stop-color:#EEEEEE"/>
					<stop  offset="0.4251" style="stop-color:#D9D9D9"/>
					<stop  offset="0.5687" style="stop-color:#BABABA"/>
					<stop  offset="0.7231" style="stop-color:#8F8F8F"/>
					<stop  offset="0.8838" style="stop-color:#565555"/>
					<stop  offset="1" style="stop-color:#000000"/>
				</linearGradient>
				<polygon class="st35" points="3012.53,78.34 3273.44,335.47 3016.24,596.46 2755.32,339.32 				"/>
			</g>
		</g>
	</g>
	<g class="st16">
		<g>
			<defs>
				<rect id="SVGID_56_" x="2882.76" y="205.65" width="258.75" height="263.92"/>
			</defs>
			<clipPath id="SVGID_57_">
				<use xlink:href="#SVGID_56_"  style="overflow:visible;"/>
			</clipPath>
			<g class="st36">
				<defs>
					<path id="SVGID_58_" d="M3066.61,205.65c-109.62,12.45-212.2,134.11-176.7,204.85c8.45,16.84,31.74,37.29,56,47.37
						c23.44,9.74,46.88,11.69,55.61,11.7c35.3,0.01,55.1-9.26,76.29-22.6c44.17-27.81,64.35-78.44,63.68-117.37
						C3140.57,275.8,3111.13,229.08,3066.61,205.65"/>
				</defs>
				<clipPath id="SVGID_59_">
					<use xlink:href="#SVGID_58_"  style="overflow:visible;"/>
				</clipPath>
				<defs>
					<filter id="Adobe_OpacityMaskFilter_7_" filterUnits="userSpaceOnUse" x="2723.87" y="63.32" width="548.84" height="548.59">
						<feColorMatrix  type="matrix" values="1 0 0 0 0  0 1 0 0 0  0 0 1 0 0  0 0 0 1 0"/>
					</filter>
				</defs>
				<mask maskUnits="userSpaceOnUse" x="2723.87" y="63.32" width="548.84" height="548.59" id="SVGID_60_">
					<g class="st37">
						
							<linearGradient id="SVGID_61_" gradientUnits="userSpaceOnUse" x1="12.0311" y1="579.9849" x2="13.0311" y2="579.9849" gradientTransform="matrix(99.8333 115.6606 115.6606 -99.8333 -65294.4805 56835.9961)">
							<stop  offset="0" style="stop-color:#000000"/>
							<stop  offset="0.0154" style="stop-color:#000000"/>
							<stop  offset="0.0238" style="stop-color:#020202"/>
							<stop  offset="0.2871" style="stop-color:#404040"/>
							<stop  offset="0.4801" style="stop-color:#666666"/>
							<stop  offset="0.5811" style="stop-color:#757575"/>
							<stop  offset="0.8967" style="stop-color:#F1F1F1"/>
							<stop  offset="1" style="stop-color:#F1F1F1"/>
						</linearGradient>
						<polygon class="st38" points="3019.31,63.32 3272.71,356.89 2977.27,611.91 2723.87,318.33 						"/>
					</g>
				</mask>
				
					<linearGradient id="SVGID_62_" gradientUnits="userSpaceOnUse" x1="12.0311" y1="579.9849" x2="13.0311" y2="579.9849" gradientTransform="matrix(99.8333 115.6606 115.6606 -99.8333 -65294.4805 56835.9961)">
					<stop  offset="0" style="stop-color:#C48814"/>
					<stop  offset="0.0154" style="stop-color:#C48814"/>
					<stop  offset="0.2066" style="stop-color:#CB9114"/>
					<stop  offset="0.5811" style="stop-color:#D69F13"/>
					<stop  offset="0.8967" style="stop-color:#F1C012"/>
					<stop  offset="1" style="stop-color:#F1C012"/>
				</linearGradient>
				<polygon class="st39" points="3019.31,63.32 3272.71,356.89 2977.27,611.91 2723.87,318.33 				"/>
			</g>
		</g>
	</g>
	<path class="st21" d="M2893.45,438.77c4.87,3.03,22.05-4.23,22.2-4.05c0.36,0.42,1.05-0.02,1.36-0.58
		c0.31-0.56,0.32-1.21,0.31-1.84c-0.07-3.38-0.68-6.76-1.79-10c-0.42-1.21-0.91-2.42-1.01-3.69c-0.21-2.67,1.36-5.2,1.62-7.87
		c2.11-1.6,2.44-3.98,3.25-6.11c3.27-8.61,14.42-13.19,18.31-21.6c2.18-4.69,1.82-10.07,3.89-14.8c0.73-1.42,2.04-3.08,3.33-4.74
		c1.24-1.59,2.48-3.17,3.96-4.59c2.14-2.04,4.74-3.67,7.3-5.28c30.11-18.92,38.83,2.54,60.47,23.89
		c8.06,7.95,19.2,14.05,31.23,14.27c8.59,0.15,17.02-2.66,25.6-2.2c13.95,0.75,22.5,11.43,30.47,18.94
		c5.22-5.49,6.32-11.95,5.45-19.2c-0.85-7.08-5.31-14.29-12.81-16.78c-15-4.99-31.28,10.6-46.42,5.96
		c-13.31-4.07-15.15-19.63-17.65-31.95c-4.69-23.04-32.41-71.32-52.08-86.99c-5.4-4.3-11.4-7.96-17.38-11.6
		c-0.42-0.26-0.84-0.52-1.11-0.91c-0.68-1.03,0.13-2.28,0.65-3.38c0.92-1.96,0.84-4.28-0.21-6.19c-1.22,0.02-1.22-1.14-0.72-1.89
		c0.5-0.75,1.33-1.29,1.89-2.01c0.55-0.72,0.73-1.82-0.03-2.37c0.84-0.31,0.74-1.65-0.14-1.85c0.61-1.24-0.72-2.78-2.18-2.8
		c0.07-0.07,0.1-0.14,0.1-0.22c0.03-0.28-0.2-0.52-0.4-0.74c-0.4-0.41-0.81-0.83-1.21-1.24c-0.23-0.24-0.53-0.5-0.88-0.49
		c-0.11,0-0.22,0.05-0.29,0.13c0-0.49-0.07-0.98-0.41-1.35c-0.46-0.52-1.58-0.54-1.79,0.09c0.18-0.6-0.21-1.3-0.84-1.54
		c-0.64-0.25-1.47-0.02-1.84,0.5c-0.21-0.58-0.51-1.21-1.15-1.45c-0.63-0.24-1.55,0.31-1.27,0.86c-0.85-1.36-3.54-1.24-4.22,0.2
		c-0.3-1.19-2.44-1.54-3.2-0.52c-0.39-0.58-1.32-0.8-1.98-0.46c-0.65,0.33-0.9,1.17-0.53,1.75c-0.54-0.64-1.59-0.89-2.41-0.58
		c-0.84,0.3-1.38,1.14-1.26,1.93c-0.51-0.61-1.66-0.52-2.23,0.04c-0.57,0.56-0.65,1.4-0.46,2.14c-0.79-0.66-2.2-0.38-2.83,0.39
		c-0.63,0.78-0.58,1.87-0.15,2.75c-1.05-0.31-2.31,0.03-3.01,0.81c-0.69,0.77-0.78,1.93-0.22,2.78c-1.26,0.5-1.39,2.35-0.22,2.99
		c-0.83,1.02-0.82,2.51,0,3.53c-0.05,0-0.08,0.01-0.12,0.03c-0.16,0.12-0.15,0.33-0.11,0.5c0.27,1.38,1.1,2.61,1.92,3.81
		c0.94,1.39,1.91,2.82,3.29,3.88c0.84,0.64,1.81,1.16,2.43,1.97c0.62,0.8,0.71,2.05-0.16,2.65c0.51,0.75-0.48,1.14-1.22,1.45
		c-2.22,0.92-3.62,3.02-4.04,5.16c-0.43,2.15-0.02,4.36,0.54,6.48c6.63,25.11-2.96,18.98-24.35,29.81
		c-7.91,4.01-14.52,10.97-15.08,19.04c-0.7,10.16,9.8,19.8,21.25,19.49c11.44-0.31,21.27-10.5,19.87-20.6
		c7.66,0.65,15.31,1.29,22.97,1.94c-16.65,29-33.28,58-49.96,86.99c-3.38,5.87-17.83,23.12-15.61,32.74
		C2890.57,436.06,2891.6,437.63,2893.45,438.77 M2959.6,306.1c-1.75-0.08-3.5-0.16-5.25-0.24c-1.15-0.05-2.31-0.11-3.38-0.47
		c-1.06-0.35-1.98-0.99-3.01-1.43c-1.59-0.69-3.38-0.89-5.05-1.42c-1.24-0.39-2.59-1.33-2.26-2.46c0.1-0.38,0.4-0.7,0.73-0.97
		c1.57-1.25,4.1-1.57,5.04-3.23c0.42-0.74,0.43-1.6,0.41-2.42c-0.09-3.47-0.63-6.92-1.59-10.27c3.48,2.58,7.38,6.31,11.27,10.04
		c2.95,2.82,6.08,6.02,6.12,9.87c0.02,1.2-0.49,2.59-1.78,2.93C2960.46,306.13,2960.03,306.11,2959.6,306.1"/>
	<path class="st40" d="M2842.62,393.96c-2.38-5.79-4.44-12.07-6.18-18.15c-4.26-14.91-6.53-30.65-6.53-46.92
		c0-94.21,76.37-170.57,170.57-170.57c71.69,0,133.06,44.23,158.29,106.89"/>
</g>
</svg>
