<svg xmlns="http://www.w3.org/2000/svg" xmlns:xlink="http://www.w3.org/1999/xlink" viewBox="0 0 792.48 744.11"><defs><style>.cls-1{fill:none;}.cls-2{isolation:isolate;}.cls-3{opacity:0.42;mix-blend-mode:multiply;}.cls-4{clip-path:url(#clip-path);}.cls-5{fill:#1b1464;}</style><clipPath id="clip-path" transform="translate(-289.52 -9.07)"><rect class="cls-1" x="289.52" y="9.07" width="792.48" height="744.11"/></clipPath></defs><title>siluetaFondo</title><g class="cls-2"><g id="Capa_1" data-name="Capa 1"><g class="cls-3"><g class="cls-4"><path class="cls-5" d="M302.29,750.68c17.56,10.26,79.52-14.33,80.06-13.75,1.29,1.42,3.78-.08,4.89-2s1.16-4.11,1.12-6.24a105.82,105.82,0,0,0-6.47-33.92c-1.52-4.1-3.28-8.21-3.62-12.52-.75-9.07,4.91-17.65,5.82-26.69,7.63-5.44,8.81-13.49,11.72-20.72,11.79-29.21,52-44.74,66-73.28,7.85-15.92,6.57-34.14,14-50.21,2.64-4.82,7.35-10.46,12-16.1a144.3,144.3,0,0,1,14.29-15.58c7.72-6.92,17.07-12.44,26.32-17.91,108.58-64.2,140,8.62,218.07,81,29.07,27,69.22,47.67,112.63,48.4,31,.51,61.38-9,92.3-7.45,50.29,2.55,81.11,38.77,109.89,64.27,18.81-18.64,22.77-40.56,19.65-65.12-3-24-19.16-48.47-46.21-56.94-54.08-16.93-112.8,36-167.4,20.23-48-13.81-54.63-66.6-63.66-108.38-16.89-78.18-116.87-242-187.81-295.1-19.48-14.6-41.12-27-62.66-39.36a12.11,12.11,0,0,1-4-3.09c-2.44-3.48.47-7.73,2.34-11.48a22,22,0,0,0-.75-21c-4.4.05-4.4-3.86-2.61-6.41s4.81-4.36,6.81-6.8,2.64-6.18-.1-8c3-1,2.68-5.58-.51-6.26,2.2-4.22-2.61-9.44-7.86-9.49a1.05,1.05,0,0,0,.38-.74c.1-.93-.71-1.76-1.46-2.49-1.46-1.39-2.91-2.81-4.37-4.22A4.71,4.71,0,0,0,538,21.68a1.52,1.52,0,0,0-1,.43,6.29,6.29,0,0,0-1.49-4.59c-1.66-1.76-5.7-1.81-6.44.31.64-2-.75-4.39-3-5.21a6.11,6.11,0,0,0-6.64,1.7c-.74-2-1.83-4.11-4.13-4.93s-5.59,1-4.57,2.91c-3.05-4.61-12.78-4.19-15.21.68-1.09-4.05-8.81-5.24-11.52-1.75-1.39-2-4.78-2.72-7.15-1.56a4.15,4.15,0,0,0-1.9,5.95,8.62,8.62,0,0,0-8.7-2c-3,1-5,3.85-4.54,6.54-1.83-2.07-6-1.76-8,.14s-2.34,4.76-1.66,7.26c-2.84-2.24-7.93-1.31-10.2,1.33s-2.1,6.35-.54,9.32A11.46,11.46,0,0,0,430.33,41a7.48,7.48,0,0,0-.78,9.44,5.57,5.57,0,0,0-.78,10.14,9.2,9.2,0,0,0,0,12,.85.85,0,0,0-.44.11,1.52,1.52,0,0,0-.4,1.7c1,4.68,4,8.87,6.91,12.92,3.39,4.74,6.87,9.55,11.85,13.18,3,2.18,6.54,3.94,8.78,6.69s2.57,7-.58,9c1.83,2.55-1.73,3.86-4.4,4.9a24.07,24.07,0,0,0-14.57,17.52c-1.56,7.28-.07,14.79,2,22,23.89,85.18-10.67,64.38-87.81,101.13-28.52,13.59-52.34,37.2-54.36,64.61-2.54,34.47,35.34,67.16,76.61,66.1S449,356.76,444,322.49l82.83,6.57Q436.73,476.6,346.65,624.16c-12.18,19.9-64.31,78.45-56.3,111.07,1.53,6.25,5.28,11.55,11.94,15.45m238.54-450.1c-6.3-.29-12.63-.54-18.93-.82-4.14-.17-8.34-.37-12.2-1.59s-7.15-3.34-10.84-4.85c-5.72-2.32-12.19-3-18.19-4.81-4.47-1.34-9.35-4.51-8.16-8.33a6.78,6.78,0,0,1,2.64-3.29c5.66-4.25,14.77-5.33,18.19-11,1.52-2.52,1.56-5.44,1.49-8.22a133.46,133.46,0,0,0-5.72-34.85c12.53,8.76,26.59,21.39,40.64,34.06,10.64,9.55,21.92,20.43,22.06,33.5.06,4-1.77,8.78-6.41,9.94a17.9,17.9,0,0,1-4.57.23" transform="translate(-289.52 -9.07)"/></g></g></g></g></svg>